  0
SECTION
  2
BLOCKS
  0
ENDSEC
  0
SECTION
  2
ENTITIES
  0
LINE
  8
0
 10
-97
 11
-83
 20
0
 21
24.249
  0
LINE
  8
0
 10
-83
 11
-75.981
 20
24.249
 21
20.196
  0
LINE
  8
0
 10
-75.981
 11
-73.481
 20
20.196
 21
24.527
  0
LINE
  8
0
 10
-73.481
 11
-80.5
 20
24.527
 21
28.579
  0
LINE
  8
0
 10
-80.5
 11
-65
 20
28.579
 21
55.426
  0
LINE
  8
0
 10
-65
 11
-57.981
 20
55.426
 21
51.373
  0
LINE
  8
0
 10
-57.981
 11
-55.481
 20
51.373
 21
55.704
  0
LINE
  8
0
 10
-55.481
 11
-62.5
 20
55.704
 21
59.756
  0
LINE
  8
0
 10
-62.5
 11
-48.5
 20
59.756
 21
84.004
  0
LINE
  8
0
 10
-48.5
 11
48.5
 20
84.004
 21
84.004
  0
LINE
  8
0
 10
48.5
 11
62.5
 20
84.004
 21
59.756
  0
LINE
  8
0
 10
62.5
 11
55.481
 20
59.756
 21
55.704
  0
LINE
  8
0
 10
55.481
 11
57.981
 20
55.704
 21
51.373
  0
LINE
  8
0
 10
57.981
 11
65
 20
51.373
 21
55.426
  0
LINE
  8
0
 10
65
 11
80.5
 20
55.426
 21
28.579
  0
LINE
  8
0
 10
80.5
 11
73.481
 20
28.579
 21
24.527
  0
LINE
  8
0
 10
73.481
 11
75.981
 20
24.527
 21
20.196
  0
LINE
  8
0
 10
75.981
 11
83
 20
20.196
 21
24.249
  0
LINE
  8
0
 10
83
 11
97
 20
24.249
 21
0
  0
LINE
  8
0
 10
97
 11
48.5
 20
0
 21
-84.004
  0
LINE
  8
0
 10
48.5
 11
20.5
 20
-84.004
 21
-84.004
  0
LINE
  8
0
 10
20.5
 11
20.5
 20
-84.004
 21
-75.9
  0
LINE
  8
0
 10
20.5
 11
15.5
 20
-75.9
 21
-75.9
  0
LINE
  8
0
 10
15.5
 11
15.5
 20
-75.9
 21
-84.004
  0
LINE
  8
0
 10
15.5
 11
-15.5
 20
-84.004
 21
-84.004
  0
LINE
  8
0
 10
-15.5
 11
-15.5
 20
-84.004
 21
-75.9
  0
LINE
  8
0
 10
-15.5
 11
-20.5
 20
-75.9
 21
-75.9
  0
LINE
  8
0
 10
-20.5
 11
-20.5
 20
-75.9
 21
-84.004
  0
LINE
  8
0
 10
-20.5
 11
-48.5
 20
-84.004
 21
-84.004
  0
LINE
  8
0
 10
-48.5
 11
-97
 20
-84.004
 21
0
  0
LINE
  8
0
 10
-71.882
 11
-71.825
 20
40
 21
40.541
  0
LINE
  8
0
 10
-71.825
 11
-71.657
 20
40.541
 21
41.058
  0
LINE
  8
0
 10
-71.657
 11
-71.385
 20
41.058
 21
41.528
  0
LINE
  8
0
 10
-71.385
 11
-71.022
 20
41.528
 21
41.932
  0
LINE
  8
0
 10
-71.022
 11
-70.582
 20
41.932
 21
42.252
  0
LINE
  8
0
 10
-70.582
 11
-70.085
 20
42.252
 21
42.473
  0
LINE
  8
0
 10
-70.085
 11
-69.554
 20
42.473
 21
42.586
  0
LINE
  8
0
 10
-69.554
 11
-69.01
 20
42.586
 21
42.586
  0
LINE
  8
0
 10
-69.01
 11
-68.479
 20
42.586
 21
42.473
  0
LINE
  8
0
 10
-68.479
 11
-67.982
 20
42.473
 21
42.252
  0
LINE
  8
0
 10
-67.982
 11
-67.542
 20
42.252
 21
41.932
  0
LINE
  8
0
 10
-67.542
 11
-67.179
 20
41.932
 21
41.528
  0
LINE
  8
0
 10
-67.179
 11
-66.907
 20
41.528
 21
41.058
  0
LINE
  8
0
 10
-66.907
 11
-66.739
 20
41.058
 21
40.541
  0
LINE
  8
0
 10
-66.739
 11
-66.682
 20
40.541
 21
40
  0
LINE
  8
0
 10
-66.682
 11
-66.739
 20
40
 21
39.459
  0
LINE
  8
0
 10
-66.739
 11
-66.907
 20
39.459
 21
38.942
  0
LINE
  8
0
 10
-66.907
 11
-67.179
 20
38.942
 21
38.472
  0
LINE
  8
0
 10
-67.179
 11
-67.542
 20
38.472
 21
38.068
  0
LINE
  8
0
 10
-67.542
 11
-67.982
 20
38.068
 21
37.748
  0
LINE
  8
0
 10
-67.982
 11
-68.479
 20
37.748
 21
37.527
  0
LINE
  8
0
 10
-68.479
 11
-69.01
 20
37.527
 21
37.414
  0
LINE
  8
0
 10
-69.01
 11
-69.554
 20
37.414
 21
37.414
  0
LINE
  8
0
 10
-69.554
 11
-70.085
 20
37.414
 21
37.527
  0
LINE
  8
0
 10
-70.085
 11
-70.582
 20
37.527
 21
37.748
  0
LINE
  8
0
 10
-70.582
 11
-71.022
 20
37.748
 21
38.068
  0
LINE
  8
0
 10
-71.022
 11
-71.385
 20
38.068
 21
38.472
  0
LINE
  8
0
 10
-71.385
 11
-71.657
 20
38.472
 21
38.942
  0
LINE
  8
0
 10
-71.657
 11
-71.825
 20
38.942
 21
39.459
  0
LINE
  8
0
 10
-71.825
 11
-71.882
 20
39.459
 21
40
  0
LINE
  8
0
 10
-42.586
 11
-42.586
 20
-56.272
 21
-55.728
  0
LINE
  8
0
 10
-42.586
 11
-42.473
 20
-55.728
 21
-55.197
  0
LINE
  8
0
 10
-42.473
 11
-42.252
 20
-55.197
 21
-54.7
  0
LINE
  8
0
 10
-42.252
 11
-41.932
 20
-54.7
 21
-54.26
  0
LINE
  8
0
 10
-41.932
 11
-41.528
 20
-54.26
 21
-53.897
  0
LINE
  8
0
 10
-41.528
 11
-41.058
 20
-53.897
 21
-53.625
  0
LINE
  8
0
 10
-41.058
 11
-40.541
 20
-53.625
 21
-53.457
  0
LINE
  8
0
 10
-40.541
 11
-40
 20
-53.457
 21
-53.4
  0
LINE
  8
0
 10
-40
 11
-39.459
 20
-53.4
 21
-53.457
  0
LINE
  8
0
 10
-39.459
 11
-38.942
 20
-53.457
 21
-53.625
  0
LINE
  8
0
 10
-38.942
 11
-38.472
 20
-53.625
 21
-53.897
  0
LINE
  8
0
 10
-38.472
 11
-38.068
 20
-53.897
 21
-54.26
  0
LINE
  8
0
 10
-38.068
 11
-37.748
 20
-54.26
 21
-54.7
  0
LINE
  8
0
 10
-37.748
 11
-37.527
 20
-54.7
 21
-55.197
  0
LINE
  8
0
 10
-37.527
 11
-37.414
 20
-55.197
 21
-55.728
  0
LINE
  8
0
 10
-37.414
 11
-37.414
 20
-55.728
 21
-56.272
  0
LINE
  8
0
 10
-37.414
 11
-37.527
 20
-56.272
 21
-56.803
  0
LINE
  8
0
 10
-37.527
 11
-37.748
 20
-56.803
 21
-57.3
  0
LINE
  8
0
 10
-37.748
 11
-38.068
 20
-57.3
 21
-57.74
  0
LINE
  8
0
 10
-38.068
 11
-38.472
 20
-57.74
 21
-58.103
  0
LINE
  8
0
 10
-38.472
 11
-38.942
 20
-58.103
 21
-58.375
  0
LINE
  8
0
 10
-38.942
 11
-39.459
 20
-58.375
 21
-58.543
  0
LINE
  8
0
 10
-39.459
 11
-40
 20
-58.543
 21
-58.6
  0
LINE
  8
0
 10
-40
 11
-40.541
 20
-58.6
 21
-58.543
  0
LINE
  8
0
 10
-40.541
 11
-41.058
 20
-58.543
 21
-58.375
  0
LINE
  8
0
 10
-41.058
 11
-41.528
 20
-58.375
 21
-58.103
  0
LINE
  8
0
 10
-41.528
 11
-41.932
 20
-58.103
 21
-57.74
  0
LINE
  8
0
 10
-41.932
 11
-42.252
 20
-57.74
 21
-57.3
  0
LINE
  8
0
 10
-42.252
 11
-42.473
 20
-57.3
 21
-56.803
  0
LINE
  8
0
 10
-42.473
 11
-42.586
 20
-56.803
 21
-56.272
  0
LINE
  8
0
 10
-42.586
 11
-42.586
 20
-48.272
 21
-47.728
  0
LINE
  8
0
 10
-42.586
 11
-42.473
 20
-47.728
 21
-47.197
  0
LINE
  8
0
 10
-42.473
 11
-42.252
 20
-47.197
 21
-46.7
  0
LINE
  8
0
 10
-42.252
 11
-41.932
 20
-46.7
 21
-46.26
  0
LINE
  8
0
 10
-41.932
 11
-41.528
 20
-46.26
 21
-45.897
  0
LINE
  8
0
 10
-41.528
 11
-41.058
 20
-45.897
 21
-45.625
  0
LINE
  8
0
 10
-41.058
 11
-40.541
 20
-45.625
 21
-45.457
  0
LINE
  8
0
 10
-40.541
 11
-40
 20
-45.457
 21
-45.4
  0
LINE
  8
0
 10
-40
 11
-39.459
 20
-45.4
 21
-45.457
  0
LINE
  8
0
 10
-39.459
 11
-38.942
 20
-45.457
 21
-45.625
  0
LINE
  8
0
 10
-38.942
 11
-38.472
 20
-45.625
 21
-45.897
  0
LINE
  8
0
 10
-38.472
 11
-38.068
 20
-45.897
 21
-46.26
  0
LINE
  8
0
 10
-38.068
 11
-37.748
 20
-46.26
 21
-46.7
  0
LINE
  8
0
 10
-37.748
 11
-37.527
 20
-46.7
 21
-47.197
  0
LINE
  8
0
 10
-37.527
 11
-37.414
 20
-47.197
 21
-47.728
  0
LINE
  8
0
 10
-37.414
 11
-37.414
 20
-47.728
 21
-48.272
  0
LINE
  8
0
 10
-37.414
 11
-37.527
 20
-48.272
 21
-48.803
  0
LINE
  8
0
 10
-37.527
 11
-37.748
 20
-48.803
 21
-49.3
  0
LINE
  8
0
 10
-37.748
 11
-38.068
 20
-49.3
 21
-49.74
  0
LINE
  8
0
 10
-38.068
 11
-38.472
 20
-49.74
 21
-50.103
  0
LINE
  8
0
 10
-38.472
 11
-38.942
 20
-50.103
 21
-50.375
  0
LINE
  8
0
 10
-38.942
 11
-39.459
 20
-50.375
 21
-50.543
  0
LINE
  8
0
 10
-39.459
 11
-40
 20
-50.543
 21
-50.6
  0
LINE
  8
0
 10
-40
 11
-40.541
 20
-50.6
 21
-50.543
  0
LINE
  8
0
 10
-40.541
 11
-41.058
 20
-50.543
 21
-50.375
  0
LINE
  8
0
 10
-41.058
 11
-41.528
 20
-50.375
 21
-50.103
  0
LINE
  8
0
 10
-41.528
 11
-41.932
 20
-50.103
 21
-49.74
  0
LINE
  8
0
 10
-41.932
 11
-42.252
 20
-49.74
 21
-49.3
  0
LINE
  8
0
 10
-42.252
 11
-42.473
 20
-49.3
 21
-48.803
  0
LINE
  8
0
 10
-42.473
 11
-42.586
 20
-48.803
 21
-48.272
  0
LINE
  8
0
 10
-42.586
 11
-42.586
 20
-40.272
 21
-39.728
  0
LINE
  8
0
 10
-42.586
 11
-42.473
 20
-39.728
 21
-39.197
  0
LINE
  8
0
 10
-42.473
 11
-42.252
 20
-39.197
 21
-38.7
  0
LINE
  8
0
 10
-42.252
 11
-41.932
 20
-38.7
 21
-38.26
  0
LINE
  8
0
 10
-41.932
 11
-41.528
 20
-38.26
 21
-37.897
  0
LINE
  8
0
 10
-41.528
 11
-41.058
 20
-37.897
 21
-37.625
  0
LINE
  8
0
 10
-41.058
 11
-40.541
 20
-37.625
 21
-37.457
  0
LINE
  8
0
 10
-40.541
 11
-40
 20
-37.457
 21
-37.4
  0
LINE
  8
0
 10
-40
 11
-39.459
 20
-37.4
 21
-37.457
  0
LINE
  8
0
 10
-39.459
 11
-38.942
 20
-37.457
 21
-37.625
  0
LINE
  8
0
 10
-38.942
 11
-38.472
 20
-37.625
 21
-37.897
  0
LINE
  8
0
 10
-38.472
 11
-38.068
 20
-37.897
 21
-38.26
  0
LINE
  8
0
 10
-38.068
 11
-37.748
 20
-38.26
 21
-38.7
  0
LINE
  8
0
 10
-37.748
 11
-37.527
 20
-38.7
 21
-39.197
  0
LINE
  8
0
 10
-37.527
 11
-37.414
 20
-39.197
 21
-39.728
  0
LINE
  8
0
 10
-37.414
 11
-37.414
 20
-39.728
 21
-40.272
  0
LINE
  8
0
 10
-37.414
 11
-37.527
 20
-40.272
 21
-40.803
  0
LINE
  8
0
 10
-37.527
 11
-37.748
 20
-40.803
 21
-41.3
  0
LINE
  8
0
 10
-37.748
 11
-38.068
 20
-41.3
 21
-41.74
  0
LINE
  8
0
 10
-38.068
 11
-38.472
 20
-41.74
 21
-42.103
  0
LINE
  8
0
 10
-38.472
 11
-38.942
 20
-42.103
 21
-42.375
  0
LINE
  8
0
 10
-38.942
 11
-39.459
 20
-42.375
 21
-42.543
  0
LINE
  8
0
 10
-39.459
 11
-40
 20
-42.543
 21
-42.6
  0
LINE
  8
0
 10
-40
 11
-40.541
 20
-42.6
 21
-42.543
  0
LINE
  8
0
 10
-40.541
 11
-41.058
 20
-42.543
 21
-42.375
  0
LINE
  8
0
 10
-41.058
 11
-41.528
 20
-42.375
 21
-42.103
  0
LINE
  8
0
 10
-41.528
 11
-41.932
 20
-42.103
 21
-41.74
  0
LINE
  8
0
 10
-41.932
 11
-42.252
 20
-41.74
 21
-41.3
  0
LINE
  8
0
 10
-42.252
 11
-42.473
 20
-41.3
 21
-40.803
  0
LINE
  8
0
 10
-42.473
 11
-42.586
 20
-40.803
 21
-40.272
  0
LINE
  8
0
 10
-42.586
 11
-42.586
 20
-32.272
 21
-31.728
  0
LINE
  8
0
 10
-42.586
 11
-42.473
 20
-31.728
 21
-31.197
  0
LINE
  8
0
 10
-42.473
 11
-42.252
 20
-31.197
 21
-30.7
  0
LINE
  8
0
 10
-42.252
 11
-41.932
 20
-30.7
 21
-30.26
  0
LINE
  8
0
 10
-41.932
 11
-41.528
 20
-30.26
 21
-29.897
  0
LINE
  8
0
 10
-41.528
 11
-41.058
 20
-29.897
 21
-29.625
  0
LINE
  8
0
 10
-41.058
 11
-40.541
 20
-29.625
 21
-29.457
  0
LINE
  8
0
 10
-40.541
 11
-40
 20
-29.457
 21
-29.4
  0
LINE
  8
0
 10
-40
 11
-39.459
 20
-29.4
 21
-29.457
  0
LINE
  8
0
 10
-39.459
 11
-38.942
 20
-29.457
 21
-29.625
  0
LINE
  8
0
 10
-38.942
 11
-38.472
 20
-29.625
 21
-29.897
  0
LINE
  8
0
 10
-38.472
 11
-38.068
 20
-29.897
 21
-30.26
  0
LINE
  8
0
 10
-38.068
 11
-37.748
 20
-30.26
 21
-30.7
  0
LINE
  8
0
 10
-37.748
 11
-37.527
 20
-30.7
 21
-31.197
  0
LINE
  8
0
 10
-37.527
 11
-37.414
 20
-31.197
 21
-31.728
  0
LINE
  8
0
 10
-37.414
 11
-37.414
 20
-31.728
 21
-32.272
  0
LINE
  8
0
 10
-37.414
 11
-37.527
 20
-32.272
 21
-32.803
  0
LINE
  8
0
 10
-37.527
 11
-37.748
 20
-32.803
 21
-33.3
  0
LINE
  8
0
 10
-37.748
 11
-38.068
 20
-33.3
 21
-33.74
  0
LINE
  8
0
 10
-38.068
 11
-38.472
 20
-33.74
 21
-34.103
  0
LINE
  8
0
 10
-38.472
 11
-38.942
 20
-34.103
 21
-34.375
  0
LINE
  8
0
 10
-38.942
 11
-39.459
 20
-34.375
 21
-34.543
  0
LINE
  8
0
 10
-39.459
 11
-40
 20
-34.543
 21
-34.6
  0
LINE
  8
0
 10
-40
 11
-40.541
 20
-34.6
 21
-34.543
  0
LINE
  8
0
 10
-40.541
 11
-41.058
 20
-34.543
 21
-34.375
  0
LINE
  8
0
 10
-41.058
 11
-41.528
 20
-34.375
 21
-34.103
  0
LINE
  8
0
 10
-41.528
 11
-41.932
 20
-34.103
 21
-33.74
  0
LINE
  8
0
 10
-41.932
 11
-42.252
 20
-33.74
 21
-33.3
  0
LINE
  8
0
 10
-42.252
 11
-42.473
 20
-33.3
 21
-32.803
  0
LINE
  8
0
 10
-42.473
 11
-42.586
 20
-32.803
 21
-32.272
  0
LINE
  8
0
 10
-42.586
 11
-42.586
 20
-24.272
 21
-23.728
  0
LINE
  8
0
 10
-42.586
 11
-42.473
 20
-23.728
 21
-23.197
  0
LINE
  8
0
 10
-42.473
 11
-42.252
 20
-23.197
 21
-22.7
  0
LINE
  8
0
 10
-42.252
 11
-41.932
 20
-22.7
 21
-22.26
  0
LINE
  8
0
 10
-41.932
 11
-41.528
 20
-22.26
 21
-21.897
  0
LINE
  8
0
 10
-41.528
 11
-41.058
 20
-21.897
 21
-21.625
  0
LINE
  8
0
 10
-41.058
 11
-40.541
 20
-21.625
 21
-21.457
  0
LINE
  8
0
 10
-40.541
 11
-40
 20
-21.457
 21
-21.4
  0
LINE
  8
0
 10
-40
 11
-39.459
 20
-21.4
 21
-21.457
  0
LINE
  8
0
 10
-39.459
 11
-38.942
 20
-21.457
 21
-21.625
  0
LINE
  8
0
 10
-38.942
 11
-38.472
 20
-21.625
 21
-21.897
  0
LINE
  8
0
 10
-38.472
 11
-38.068
 20
-21.897
 21
-22.26
  0
LINE
  8
0
 10
-38.068
 11
-37.748
 20
-22.26
 21
-22.7
  0
LINE
  8
0
 10
-37.748
 11
-37.527
 20
-22.7
 21
-23.197
  0
LINE
  8
0
 10
-37.527
 11
-37.414
 20
-23.197
 21
-23.728
  0
LINE
  8
0
 10
-37.414
 11
-37.414
 20
-23.728
 21
-24.272
  0
LINE
  8
0
 10
-37.414
 11
-37.527
 20
-24.272
 21
-24.803
  0
LINE
  8
0
 10
-37.527
 11
-37.748
 20
-24.803
 21
-25.3
  0
LINE
  8
0
 10
-37.748
 11
-38.068
 20
-25.3
 21
-25.74
  0
LINE
  8
0
 10
-38.068
 11
-38.472
 20
-25.74
 21
-26.103
  0
LINE
  8
0
 10
-38.472
 11
-38.942
 20
-26.103
 21
-26.375
  0
LINE
  8
0
 10
-38.942
 11
-39.459
 20
-26.375
 21
-26.543
  0
LINE
  8
0
 10
-39.459
 11
-40
 20
-26.543
 21
-26.6
  0
LINE
  8
0
 10
-40
 11
-40.541
 20
-26.6
 21
-26.543
  0
LINE
  8
0
 10
-40.541
 11
-41.058
 20
-26.543
 21
-26.375
  0
LINE
  8
0
 10
-41.058
 11
-41.528
 20
-26.375
 21
-26.103
  0
LINE
  8
0
 10
-41.528
 11
-41.932
 20
-26.103
 21
-25.74
  0
LINE
  8
0
 10
-41.932
 11
-42.252
 20
-25.74
 21
-25.3
  0
LINE
  8
0
 10
-42.252
 11
-42.473
 20
-25.3
 21
-24.803
  0
LINE
  8
0
 10
-42.473
 11
-42.586
 20
-24.803
 21
-24.272
  0
LINE
  8
0
 10
-42.586
 11
-42.586
 20
-16.272
 21
-15.728
  0
LINE
  8
0
 10
-42.586
 11
-42.473
 20
-15.728
 21
-15.197
  0
LINE
  8
0
 10
-42.473
 11
-42.252
 20
-15.197
 21
-14.7
  0
LINE
  8
0
 10
-42.252
 11
-41.932
 20
-14.7
 21
-14.26
  0
LINE
  8
0
 10
-41.932
 11
-41.528
 20
-14.26
 21
-13.897
  0
LINE
  8
0
 10
-41.528
 11
-41.058
 20
-13.897
 21
-13.625
  0
LINE
  8
0
 10
-41.058
 11
-40.541
 20
-13.625
 21
-13.457
  0
LINE
  8
0
 10
-40.541
 11
-40
 20
-13.457
 21
-13.4
  0
LINE
  8
0
 10
-40
 11
-39.459
 20
-13.4
 21
-13.457
  0
LINE
  8
0
 10
-39.459
 11
-38.942
 20
-13.457
 21
-13.625
  0
LINE
  8
0
 10
-38.942
 11
-38.472
 20
-13.625
 21
-13.897
  0
LINE
  8
0
 10
-38.472
 11
-38.068
 20
-13.897
 21
-14.26
  0
LINE
  8
0
 10
-38.068
 11
-37.748
 20
-14.26
 21
-14.7
  0
LINE
  8
0
 10
-37.748
 11
-37.527
 20
-14.7
 21
-15.197
  0
LINE
  8
0
 10
-37.527
 11
-37.414
 20
-15.197
 21
-15.728
  0
LINE
  8
0
 10
-37.414
 11
-37.414
 20
-15.728
 21
-16.272
  0
LINE
  8
0
 10
-37.414
 11
-37.527
 20
-16.272
 21
-16.803
  0
LINE
  8
0
 10
-37.527
 11
-37.748
 20
-16.803
 21
-17.3
  0
LINE
  8
0
 10
-37.748
 11
-38.068
 20
-17.3
 21
-17.74
  0
LINE
  8
0
 10
-38.068
 11
-38.472
 20
-17.74
 21
-18.103
  0
LINE
  8
0
 10
-38.472
 11
-38.942
 20
-18.103
 21
-18.375
  0
LINE
  8
0
 10
-38.942
 11
-39.459
 20
-18.375
 21
-18.543
  0
LINE
  8
0
 10
-39.459
 11
-40
 20
-18.543
 21
-18.6
  0
LINE
  8
0
 10
-40
 11
-40.541
 20
-18.6
 21
-18.543
  0
LINE
  8
0
 10
-40.541
 11
-41.058
 20
-18.543
 21
-18.375
  0
LINE
  8
0
 10
-41.058
 11
-41.528
 20
-18.375
 21
-18.103
  0
LINE
  8
0
 10
-41.528
 11
-41.932
 20
-18.103
 21
-17.74
  0
LINE
  8
0
 10
-41.932
 11
-42.252
 20
-17.74
 21
-17.3
  0
LINE
  8
0
 10
-42.252
 11
-42.473
 20
-17.3
 21
-16.803
  0
LINE
  8
0
 10
-42.473
 11
-42.586
 20
-16.803
 21
-16.272
  0
LINE
  8
0
 10
-42.586
 11
-42.586
 20
-8.272
 21
-7.728
  0
LINE
  8
0
 10
-42.586
 11
-42.473
 20
-7.728
 21
-7.197
  0
LINE
  8
0
 10
-42.473
 11
-42.252
 20
-7.197
 21
-6.7
  0
LINE
  8
0
 10
-42.252
 11
-41.932
 20
-6.7
 21
-6.26
  0
LINE
  8
0
 10
-41.932
 11
-41.528
 20
-6.26
 21
-5.897
  0
LINE
  8
0
 10
-41.528
 11
-41.058
 20
-5.897
 21
-5.625
  0
LINE
  8
0
 10
-41.058
 11
-40.541
 20
-5.625
 21
-5.457
  0
LINE
  8
0
 10
-40.541
 11
-40
 20
-5.457
 21
-5.4
  0
LINE
  8
0
 10
-40
 11
-39.459
 20
-5.4
 21
-5.457
  0
LINE
  8
0
 10
-39.459
 11
-38.942
 20
-5.457
 21
-5.625
  0
LINE
  8
0
 10
-38.942
 11
-38.472
 20
-5.625
 21
-5.897
  0
LINE
  8
0
 10
-38.472
 11
-38.068
 20
-5.897
 21
-6.26
  0
LINE
  8
0
 10
-38.068
 11
-37.748
 20
-6.26
 21
-6.7
  0
LINE
  8
0
 10
-37.748
 11
-37.527
 20
-6.7
 21
-7.197
  0
LINE
  8
0
 10
-37.527
 11
-37.414
 20
-7.197
 21
-7.728
  0
LINE
  8
0
 10
-37.414
 11
-37.414
 20
-7.728
 21
-8.272
  0
LINE
  8
0
 10
-37.414
 11
-37.527
 20
-8.272
 21
-8.803
  0
LINE
  8
0
 10
-37.527
 11
-37.748
 20
-8.803
 21
-9.3
  0
LINE
  8
0
 10
-37.748
 11
-38.068
 20
-9.3
 21
-9.74
  0
LINE
  8
0
 10
-38.068
 11
-38.472
 20
-9.74
 21
-10.103
  0
LINE
  8
0
 10
-38.472
 11
-38.942
 20
-10.103
 21
-10.375
  0
LINE
  8
0
 10
-38.942
 11
-39.459
 20
-10.375
 21
-10.543
  0
LINE
  8
0
 10
-39.459
 11
-40
 20
-10.543
 21
-10.6
  0
LINE
  8
0
 10
-40
 11
-40.541
 20
-10.6
 21
-10.543
  0
LINE
  8
0
 10
-40.541
 11
-41.058
 20
-10.543
 21
-10.375
  0
LINE
  8
0
 10
-41.058
 11
-41.528
 20
-10.375
 21
-10.103
  0
LINE
  8
0
 10
-41.528
 11
-41.932
 20
-10.103
 21
-9.74
  0
LINE
  8
0
 10
-41.932
 11
-42.252
 20
-9.74
 21
-9.3
  0
LINE
  8
0
 10
-42.252
 11
-42.473
 20
-9.3
 21
-8.803
  0
LINE
  8
0
 10
-42.473
 11
-42.586
 20
-8.803
 21
-8.272
  0
LINE
  8
0
 10
-42.586
 11
-42.586
 20
-0.272
 21
0.272
  0
LINE
  8
0
 10
-42.586
 11
-42.473
 20
0.272
 21
0.803
  0
LINE
  8
0
 10
-42.473
 11
-42.252
 20
0.803
 21
1.3
  0
LINE
  8
0
 10
-42.252
 11
-41.932
 20
1.3
 21
1.74
  0
LINE
  8
0
 10
-41.932
 11
-41.528
 20
1.74
 21
2.103
  0
LINE
  8
0
 10
-41.528
 11
-41.058
 20
2.103
 21
2.375
  0
LINE
  8
0
 10
-41.058
 11
-40.541
 20
2.375
 21
2.543
  0
LINE
  8
0
 10
-40.541
 11
-40
 20
2.543
 21
2.6
  0
LINE
  8
0
 10
-40
 11
-39.459
 20
2.6
 21
2.543
  0
LINE
  8
0
 10
-39.459
 11
-38.942
 20
2.543
 21
2.375
  0
LINE
  8
0
 10
-38.942
 11
-38.472
 20
2.375
 21
2.103
  0
LINE
  8
0
 10
-38.472
 11
-38.068
 20
2.103
 21
1.74
  0
LINE
  8
0
 10
-38.068
 11
-37.748
 20
1.74
 21
1.3
  0
LINE
  8
0
 10
-37.748
 11
-37.527
 20
1.3
 21
0.803
  0
LINE
  8
0
 10
-37.527
 11
-37.414
 20
0.803
 21
0.272
  0
LINE
  8
0
 10
-37.414
 11
-37.414
 20
0.272
 21
-0.272
  0
LINE
  8
0
 10
-37.414
 11
-37.527
 20
-0.272
 21
-0.803
  0
LINE
  8
0
 10
-37.527
 11
-37.748
 20
-0.803
 21
-1.3
  0
LINE
  8
0
 10
-37.748
 11
-38.068
 20
-1.3
 21
-1.74
  0
LINE
  8
0
 10
-38.068
 11
-38.472
 20
-1.74
 21
-2.103
  0
LINE
  8
0
 10
-38.472
 11
-38.942
 20
-2.103
 21
-2.375
  0
LINE
  8
0
 10
-38.942
 11
-39.459
 20
-2.375
 21
-2.543
  0
LINE
  8
0
 10
-39.459
 11
-40
 20
-2.543
 21
-2.6
  0
LINE
  8
0
 10
-40
 11
-40.541
 20
-2.6
 21
-2.543
  0
LINE
  8
0
 10
-40.541
 11
-41.058
 20
-2.543
 21
-2.375
  0
LINE
  8
0
 10
-41.058
 11
-41.528
 20
-2.375
 21
-2.103
  0
LINE
  8
0
 10
-41.528
 11
-41.932
 20
-2.103
 21
-1.74
  0
LINE
  8
0
 10
-41.932
 11
-42.252
 20
-1.74
 21
-1.3
  0
LINE
  8
0
 10
-42.252
 11
-42.473
 20
-1.3
 21
-0.803
  0
LINE
  8
0
 10
-42.473
 11
-42.586
 20
-0.803
 21
-0.272
  0
LINE
  8
0
 10
-42.586
 11
-42.586
 20
7.728
 21
8.272
  0
LINE
  8
0
 10
-42.586
 11
-42.473
 20
8.272
 21
8.803
  0
LINE
  8
0
 10
-42.473
 11
-42.252
 20
8.803
 21
9.3
  0
LINE
  8
0
 10
-42.252
 11
-41.932
 20
9.3
 21
9.74
  0
LINE
  8
0
 10
-41.932
 11
-41.528
 20
9.74
 21
10.103
  0
LINE
  8
0
 10
-41.528
 11
-41.058
 20
10.103
 21
10.375
  0
LINE
  8
0
 10
-41.058
 11
-40.541
 20
10.375
 21
10.543
  0
LINE
  8
0
 10
-40.541
 11
-40
 20
10.543
 21
10.6
  0
LINE
  8
0
 10
-40
 11
-39.459
 20
10.6
 21
10.543
  0
LINE
  8
0
 10
-39.459
 11
-38.942
 20
10.543
 21
10.375
  0
LINE
  8
0
 10
-38.942
 11
-38.472
 20
10.375
 21
10.103
  0
LINE
  8
0
 10
-38.472
 11
-38.068
 20
10.103
 21
9.74
  0
LINE
  8
0
 10
-38.068
 11
-37.748
 20
9.74
 21
9.3
  0
LINE
  8
0
 10
-37.748
 11
-37.527
 20
9.3
 21
8.803
  0
LINE
  8
0
 10
-37.527
 11
-37.414
 20
8.803
 21
8.272
  0
LINE
  8
0
 10
-37.414
 11
-37.414
 20
8.272
 21
7.728
  0
LINE
  8
0
 10
-37.414
 11
-37.527
 20
7.728
 21
7.197
  0
LINE
  8
0
 10
-37.527
 11
-37.748
 20
7.197
 21
6.7
  0
LINE
  8
0
 10
-37.748
 11
-38.068
 20
6.7
 21
6.26
  0
LINE
  8
0
 10
-38.068
 11
-38.472
 20
6.26
 21
5.897
  0
LINE
  8
0
 10
-38.472
 11
-38.942
 20
5.897
 21
5.625
  0
LINE
  8
0
 10
-38.942
 11
-39.459
 20
5.625
 21
5.457
  0
LINE
  8
0
 10
-39.459
 11
-40
 20
5.457
 21
5.4
  0
LINE
  8
0
 10
-40
 11
-40.541
 20
5.4
 21
5.457
  0
LINE
  8
0
 10
-40.541
 11
-41.058
 20
5.457
 21
5.625
  0
LINE
  8
0
 10
-41.058
 11
-41.528
 20
5.625
 21
5.897
  0
LINE
  8
0
 10
-41.528
 11
-41.932
 20
5.897
 21
6.26
  0
LINE
  8
0
 10
-41.932
 11
-42.252
 20
6.26
 21
6.7
  0
LINE
  8
0
 10
-42.252
 11
-42.473
 20
6.7
 21
7.197
  0
LINE
  8
0
 10
-42.473
 11
-42.586
 20
7.197
 21
7.728
  0
LINE
  8
0
 10
-42.586
 11
-42.586
 20
15.728
 21
16.272
  0
LINE
  8
0
 10
-42.586
 11
-42.473
 20
16.272
 21
16.803
  0
LINE
  8
0
 10
-42.473
 11
-42.252
 20
16.803
 21
17.3
  0
LINE
  8
0
 10
-42.252
 11
-41.932
 20
17.3
 21
17.74
  0
LINE
  8
0
 10
-41.932
 11
-41.528
 20
17.74
 21
18.103
  0
LINE
  8
0
 10
-41.528
 11
-41.058
 20
18.103
 21
18.375
  0
LINE
  8
0
 10
-41.058
 11
-40.541
 20
18.375
 21
18.543
  0
LINE
  8
0
 10
-40.541
 11
-40
 20
18.543
 21
18.6
  0
LINE
  8
0
 10
-40
 11
-39.459
 20
18.6
 21
18.543
  0
LINE
  8
0
 10
-39.459
 11
-38.942
 20
18.543
 21
18.375
  0
LINE
  8
0
 10
-38.942
 11
-38.472
 20
18.375
 21
18.103
  0
LINE
  8
0
 10
-38.472
 11
-38.068
 20
18.103
 21
17.74
  0
LINE
  8
0
 10
-38.068
 11
-37.748
 20
17.74
 21
17.3
  0
LINE
  8
0
 10
-37.748
 11
-37.527
 20
17.3
 21
16.803
  0
LINE
  8
0
 10
-37.527
 11
-37.414
 20
16.803
 21
16.272
  0
LINE
  8
0
 10
-37.414
 11
-37.414
 20
16.272
 21
15.728
  0
LINE
  8
0
 10
-37.414
 11
-37.527
 20
15.728
 21
15.197
  0
LINE
  8
0
 10
-37.527
 11
-37.748
 20
15.197
 21
14.7
  0
LINE
  8
0
 10
-37.748
 11
-38.068
 20
14.7
 21
14.26
  0
LINE
  8
0
 10
-38.068
 11
-38.472
 20
14.26
 21
13.897
  0
LINE
  8
0
 10
-38.472
 11
-38.942
 20
13.897
 21
13.625
  0
LINE
  8
0
 10
-38.942
 11
-39.459
 20
13.625
 21
13.457
  0
LINE
  8
0
 10
-39.459
 11
-40
 20
13.457
 21
13.4
  0
LINE
  8
0
 10
-40
 11
-40.541
 20
13.4
 21
13.457
  0
LINE
  8
0
 10
-40.541
 11
-41.058
 20
13.457
 21
13.625
  0
LINE
  8
0
 10
-41.058
 11
-41.528
 20
13.625
 21
13.897
  0
LINE
  8
0
 10
-41.528
 11
-41.932
 20
13.897
 21
14.26
  0
LINE
  8
0
 10
-41.932
 11
-42.252
 20
14.26
 21
14.7
  0
LINE
  8
0
 10
-42.252
 11
-42.473
 20
14.7
 21
15.197
  0
LINE
  8
0
 10
-42.473
 11
-42.586
 20
15.197
 21
15.728
  0
LINE
  8
0
 10
-42.586
 11
-42.586
 20
23.728
 21
24.272
  0
LINE
  8
0
 10
-42.586
 11
-42.473
 20
24.272
 21
24.803
  0
LINE
  8
0
 10
-42.473
 11
-42.252
 20
24.803
 21
25.3
  0
LINE
  8
0
 10
-42.252
 11
-41.932
 20
25.3
 21
25.74
  0
LINE
  8
0
 10
-41.932
 11
-41.528
 20
25.74
 21
26.103
  0
LINE
  8
0
 10
-41.528
 11
-41.058
 20
26.103
 21
26.375
  0
LINE
  8
0
 10
-41.058
 11
-40.541
 20
26.375
 21
26.543
  0
LINE
  8
0
 10
-40.541
 11
-40
 20
26.543
 21
26.6
  0
LINE
  8
0
 10
-40
 11
-39.459
 20
26.6
 21
26.543
  0
LINE
  8
0
 10
-39.459
 11
-38.942
 20
26.543
 21
26.375
  0
LINE
  8
0
 10
-38.942
 11
-38.472
 20
26.375
 21
26.103
  0
LINE
  8
0
 10
-38.472
 11
-38.068
 20
26.103
 21
25.74
  0
LINE
  8
0
 10
-38.068
 11
-37.748
 20
25.74
 21
25.3
  0
LINE
  8
0
 10
-37.748
 11
-37.527
 20
25.3
 21
24.803
  0
LINE
  8
0
 10
-37.527
 11
-37.414
 20
24.803
 21
24.272
  0
LINE
  8
0
 10
-37.414
 11
-37.414
 20
24.272
 21
23.728
  0
LINE
  8
0
 10
-37.414
 11
-37.527
 20
23.728
 21
23.197
  0
LINE
  8
0
 10
-37.527
 11
-37.748
 20
23.197
 21
22.7
  0
LINE
  8
0
 10
-37.748
 11
-38.068
 20
22.7
 21
22.26
  0
LINE
  8
0
 10
-38.068
 11
-38.472
 20
22.26
 21
21.897
  0
LINE
  8
0
 10
-38.472
 11
-38.942
 20
21.897
 21
21.625
  0
LINE
  8
0
 10
-38.942
 11
-39.459
 20
21.625
 21
21.457
  0
LINE
  8
0
 10
-39.459
 11
-40
 20
21.457
 21
21.4
  0
LINE
  8
0
 10
-40
 11
-40.541
 20
21.4
 21
21.457
  0
LINE
  8
0
 10
-40.541
 11
-41.058
 20
21.457
 21
21.625
  0
LINE
  8
0
 10
-41.058
 11
-41.528
 20
21.625
 21
21.897
  0
LINE
  8
0
 10
-41.528
 11
-41.932
 20
21.897
 21
22.26
  0
LINE
  8
0
 10
-41.932
 11
-42.252
 20
22.26
 21
22.7
  0
LINE
  8
0
 10
-42.252
 11
-42.473
 20
22.7
 21
23.197
  0
LINE
  8
0
 10
-42.473
 11
-42.586
 20
23.197
 21
23.728
  0
LINE
  8
0
 10
-42.586
 11
-42.586
 20
31.728
 21
32.272
  0
LINE
  8
0
 10
-42.586
 11
-42.473
 20
32.272
 21
32.803
  0
LINE
  8
0
 10
-42.473
 11
-42.252
 20
32.803
 21
33.3
  0
LINE
  8
0
 10
-42.252
 11
-41.932
 20
33.3
 21
33.74
  0
LINE
  8
0
 10
-41.932
 11
-41.528
 20
33.74
 21
34.103
  0
LINE
  8
0
 10
-41.528
 11
-41.058
 20
34.103
 21
34.375
  0
LINE
  8
0
 10
-41.058
 11
-40.541
 20
34.375
 21
34.543
  0
LINE
  8
0
 10
-40.541
 11
-40
 20
34.543
 21
34.6
  0
LINE
  8
0
 10
-40
 11
-39.459
 20
34.6
 21
34.543
  0
LINE
  8
0
 10
-39.459
 11
-38.942
 20
34.543
 21
34.375
  0
LINE
  8
0
 10
-38.942
 11
-38.472
 20
34.375
 21
34.103
  0
LINE
  8
0
 10
-38.472
 11
-38.068
 20
34.103
 21
33.74
  0
LINE
  8
0
 10
-38.068
 11
-37.748
 20
33.74
 21
33.3
  0
LINE
  8
0
 10
-37.748
 11
-37.527
 20
33.3
 21
32.803
  0
LINE
  8
0
 10
-37.527
 11
-37.414
 20
32.803
 21
32.272
  0
LINE
  8
0
 10
-37.414
 11
-37.414
 20
32.272
 21
31.728
  0
LINE
  8
0
 10
-37.414
 11
-37.527
 20
31.728
 21
31.197
  0
LINE
  8
0
 10
-37.527
 11
-37.748
 20
31.197
 21
30.7
  0
LINE
  8
0
 10
-37.748
 11
-38.068
 20
30.7
 21
30.26
  0
LINE
  8
0
 10
-38.068
 11
-38.472
 20
30.26
 21
29.897
  0
LINE
  8
0
 10
-38.472
 11
-38.942
 20
29.897
 21
29.625
  0
LINE
  8
0
 10
-38.942
 11
-39.459
 20
29.625
 21
29.457
  0
LINE
  8
0
 10
-39.459
 11
-40
 20
29.457
 21
29.4
  0
LINE
  8
0
 10
-40
 11
-40.541
 20
29.4
 21
29.457
  0
LINE
  8
0
 10
-40.541
 11
-41.058
 20
29.457
 21
29.625
  0
LINE
  8
0
 10
-41.058
 11
-41.528
 20
29.625
 21
29.897
  0
LINE
  8
0
 10
-41.528
 11
-41.932
 20
29.897
 21
30.26
  0
LINE
  8
0
 10
-41.932
 11
-42.252
 20
30.26
 21
30.7
  0
LINE
  8
0
 10
-42.252
 11
-42.473
 20
30.7
 21
31.197
  0
LINE
  8
0
 10
-42.473
 11
-42.586
 20
31.197
 21
31.728
  0
LINE
  8
0
 10
-42.586
 11
-42.586
 20
39.728
 21
40.272
  0
LINE
  8
0
 10
-42.586
 11
-42.473
 20
40.272
 21
40.803
  0
LINE
  8
0
 10
-42.473
 11
-42.252
 20
40.803
 21
41.3
  0
LINE
  8
0
 10
-42.252
 11
-41.932
 20
41.3
 21
41.74
  0
LINE
  8
0
 10
-41.932
 11
-41.528
 20
41.74
 21
42.103
  0
LINE
  8
0
 10
-41.528
 11
-41.058
 20
42.103
 21
42.375
  0
LINE
  8
0
 10
-41.058
 11
-40.541
 20
42.375
 21
42.543
  0
LINE
  8
0
 10
-40.541
 11
-40
 20
42.543
 21
42.6
  0
LINE
  8
0
 10
-40
 11
-39.459
 20
42.6
 21
42.543
  0
LINE
  8
0
 10
-39.459
 11
-38.942
 20
42.543
 21
42.375
  0
LINE
  8
0
 10
-38.942
 11
-38.472
 20
42.375
 21
42.103
  0
LINE
  8
0
 10
-38.472
 11
-38.068
 20
42.103
 21
41.74
  0
LINE
  8
0
 10
-38.068
 11
-37.748
 20
41.74
 21
41.3
  0
LINE
  8
0
 10
-37.748
 11
-37.527
 20
41.3
 21
40.803
  0
LINE
  8
0
 10
-37.527
 11
-37.414
 20
40.803
 21
40.272
  0
LINE
  8
0
 10
-37.414
 11
-37.414
 20
40.272
 21
39.728
  0
LINE
  8
0
 10
-37.414
 11
-37.527
 20
39.728
 21
39.197
  0
LINE
  8
0
 10
-37.527
 11
-37.748
 20
39.197
 21
38.7
  0
LINE
  8
0
 10
-37.748
 11
-38.068
 20
38.7
 21
38.26
  0
LINE
  8
0
 10
-38.068
 11
-38.472
 20
38.26
 21
37.897
  0
LINE
  8
0
 10
-38.472
 11
-38.942
 20
37.897
 21
37.625
  0
LINE
  8
0
 10
-38.942
 11
-39.459
 20
37.625
 21
37.457
  0
LINE
  8
0
 10
-39.459
 11
-40
 20
37.457
 21
37.4
  0
LINE
  8
0
 10
-40
 11
-40.541
 20
37.4
 21
37.457
  0
LINE
  8
0
 10
-40.541
 11
-41.058
 20
37.457
 21
37.625
  0
LINE
  8
0
 10
-41.058
 11
-41.528
 20
37.625
 21
37.897
  0
LINE
  8
0
 10
-41.528
 11
-41.932
 20
37.897
 21
38.26
  0
LINE
  8
0
 10
-41.932
 11
-42.252
 20
38.26
 21
38.7
  0
LINE
  8
0
 10
-42.252
 11
-42.473
 20
38.7
 21
39.197
  0
LINE
  8
0
 10
-42.473
 11
-42.586
 20
39.197
 21
39.728
  0
LINE
  8
0
 10
-42.586
 11
-42.586
 20
47.728
 21
48.272
  0
LINE
  8
0
 10
-42.586
 11
-42.473
 20
48.272
 21
48.803
  0
LINE
  8
0
 10
-42.473
 11
-42.252
 20
48.803
 21
49.3
  0
LINE
  8
0
 10
-42.252
 11
-41.932
 20
49.3
 21
49.74
  0
LINE
  8
0
 10
-41.932
 11
-41.528
 20
49.74
 21
50.103
  0
LINE
  8
0
 10
-41.528
 11
-41.058
 20
50.103
 21
50.375
  0
LINE
  8
0
 10
-41.058
 11
-40.541
 20
50.375
 21
50.543
  0
LINE
  8
0
 10
-40.541
 11
-40
 20
50.543
 21
50.6
  0
LINE
  8
0
 10
-40
 11
-39.459
 20
50.6
 21
50.543
  0
LINE
  8
0
 10
-39.459
 11
-38.942
 20
50.543
 21
50.375
  0
LINE
  8
0
 10
-38.942
 11
-38.472
 20
50.375
 21
50.103
  0
LINE
  8
0
 10
-38.472
 11
-38.068
 20
50.103
 21
49.74
  0
LINE
  8
0
 10
-38.068
 11
-37.748
 20
49.74
 21
49.3
  0
LINE
  8
0
 10
-37.748
 11
-37.527
 20
49.3
 21
48.803
  0
LINE
  8
0
 10
-37.527
 11
-37.414
 20
48.803
 21
48.272
  0
LINE
  8
0
 10
-37.414
 11
-37.414
 20
48.272
 21
47.728
  0
LINE
  8
0
 10
-37.414
 11
-37.527
 20
47.728
 21
47.197
  0
LINE
  8
0
 10
-37.527
 11
-37.748
 20
47.197
 21
46.7
  0
LINE
  8
0
 10
-37.748
 11
-38.068
 20
46.7
 21
46.26
  0
LINE
  8
0
 10
-38.068
 11
-38.472
 20
46.26
 21
45.897
  0
LINE
  8
0
 10
-38.472
 11
-38.942
 20
45.897
 21
45.625
  0
LINE
  8
0
 10
-38.942
 11
-39.459
 20
45.625
 21
45.457
  0
LINE
  8
0
 10
-39.459
 11
-40
 20
45.457
 21
45.4
  0
LINE
  8
0
 10
-40
 11
-40.541
 20
45.4
 21
45.457
  0
LINE
  8
0
 10
-40.541
 11
-41.058
 20
45.457
 21
45.625
  0
LINE
  8
0
 10
-41.058
 11
-41.528
 20
45.625
 21
45.897
  0
LINE
  8
0
 10
-41.528
 11
-41.932
 20
45.897
 21
46.26
  0
LINE
  8
0
 10
-41.932
 11
-42.252
 20
46.26
 21
46.7
  0
LINE
  8
0
 10
-42.252
 11
-42.473
 20
46.7
 21
47.197
  0
LINE
  8
0
 10
-42.473
 11
-42.586
 20
47.197
 21
47.728
  0
LINE
  8
0
 10
-42.586
 11
-42.586
 20
55.728
 21
56.272
  0
LINE
  8
0
 10
-42.586
 11
-42.473
 20
56.272
 21
56.803
  0
LINE
  8
0
 10
-42.473
 11
-42.252
 20
56.803
 21
57.3
  0
LINE
  8
0
 10
-42.252
 11
-41.932
 20
57.3
 21
57.74
  0
LINE
  8
0
 10
-41.932
 11
-41.528
 20
57.74
 21
58.103
  0
LINE
  8
0
 10
-41.528
 11
-41.058
 20
58.103
 21
58.375
  0
LINE
  8
0
 10
-41.058
 11
-40.541
 20
58.375
 21
58.543
  0
LINE
  8
0
 10
-40.541
 11
-40
 20
58.543
 21
58.6
  0
LINE
  8
0
 10
-40
 11
-39.459
 20
58.6
 21
58.543
  0
LINE
  8
0
 10
-39.459
 11
-38.942
 20
58.543
 21
58.375
  0
LINE
  8
0
 10
-38.942
 11
-38.472
 20
58.375
 21
58.103
  0
LINE
  8
0
 10
-38.472
 11
-38.068
 20
58.103
 21
57.74
  0
LINE
  8
0
 10
-38.068
 11
-37.748
 20
57.74
 21
57.3
  0
LINE
  8
0
 10
-37.748
 11
-37.527
 20
57.3
 21
56.803
  0
LINE
  8
0
 10
-37.527
 11
-37.414
 20
56.803
 21
56.272
  0
LINE
  8
0
 10
-37.414
 11
-37.414
 20
56.272
 21
55.728
  0
LINE
  8
0
 10
-37.414
 11
-37.527
 20
55.728
 21
55.197
  0
LINE
  8
0
 10
-37.527
 11
-37.748
 20
55.197
 21
54.7
  0
LINE
  8
0
 10
-37.748
 11
-38.068
 20
54.7
 21
54.26
  0
LINE
  8
0
 10
-38.068
 11
-38.472
 20
54.26
 21
53.897
  0
LINE
  8
0
 10
-38.472
 11
-38.942
 20
53.897
 21
53.625
  0
LINE
  8
0
 10
-38.942
 11
-39.459
 20
53.625
 21
53.457
  0
LINE
  8
0
 10
-39.459
 11
-40
 20
53.457
 21
53.4
  0
LINE
  8
0
 10
-40
 11
-40.541
 20
53.4
 21
53.457
  0
LINE
  8
0
 10
-40.541
 11
-41.058
 20
53.457
 21
53.625
  0
LINE
  8
0
 10
-41.058
 11
-41.528
 20
53.625
 21
53.897
  0
LINE
  8
0
 10
-41.528
 11
-41.932
 20
53.897
 21
54.26
  0
LINE
  8
0
 10
-41.932
 11
-42.252
 20
54.26
 21
54.7
  0
LINE
  8
0
 10
-42.252
 11
-42.473
 20
54.7
 21
55.197
  0
LINE
  8
0
 10
-42.473
 11
-42.586
 20
55.197
 21
55.728
  0
LINE
  8
0
 10
-42.586
 11
-42.586
 20
63.728
 21
64.272
  0
LINE
  8
0
 10
-42.586
 11
-42.473
 20
64.272
 21
64.803
  0
LINE
  8
0
 10
-42.473
 11
-42.252
 20
64.803
 21
65.3
  0
LINE
  8
0
 10
-42.252
 11
-41.932
 20
65.3
 21
65.74
  0
LINE
  8
0
 10
-41.932
 11
-41.528
 20
65.74
 21
66.103
  0
LINE
  8
0
 10
-41.528
 11
-41.058
 20
66.103
 21
66.375
  0
LINE
  8
0
 10
-41.058
 11
-40.541
 20
66.375
 21
66.543
  0
LINE
  8
0
 10
-40.541
 11
-40
 20
66.543
 21
66.6
  0
LINE
  8
0
 10
-40
 11
-39.459
 20
66.6
 21
66.543
  0
LINE
  8
0
 10
-39.459
 11
-38.942
 20
66.543
 21
66.375
  0
LINE
  8
0
 10
-38.942
 11
-38.472
 20
66.375
 21
66.103
  0
LINE
  8
0
 10
-38.472
 11
-38.068
 20
66.103
 21
65.74
  0
LINE
  8
0
 10
-38.068
 11
-37.748
 20
65.74
 21
65.3
  0
LINE
  8
0
 10
-37.748
 11
-37.527
 20
65.3
 21
64.803
  0
LINE
  8
0
 10
-37.527
 11
-37.414
 20
64.803
 21
64.272
  0
LINE
  8
0
 10
-37.414
 11
-37.414
 20
64.272
 21
63.728
  0
LINE
  8
0
 10
-37.414
 11
-37.527
 20
63.728
 21
63.197
  0
LINE
  8
0
 10
-37.527
 11
-37.748
 20
63.197
 21
62.7
  0
LINE
  8
0
 10
-37.748
 11
-38.068
 20
62.7
 21
62.26
  0
LINE
  8
0
 10
-38.068
 11
-38.472
 20
62.26
 21
61.897
  0
LINE
  8
0
 10
-38.472
 11
-38.942
 20
61.897
 21
61.625
  0
LINE
  8
0
 10
-38.942
 11
-39.459
 20
61.625
 21
61.457
  0
LINE
  8
0
 10
-39.459
 11
-40
 20
61.457
 21
61.4
  0
LINE
  8
0
 10
-40
 11
-40.541
 20
61.4
 21
61.457
  0
LINE
  8
0
 10
-40.541
 11
-41.058
 20
61.457
 21
61.625
  0
LINE
  8
0
 10
-41.058
 11
-41.528
 20
61.625
 21
61.897
  0
LINE
  8
0
 10
-41.528
 11
-41.932
 20
61.897
 21
62.26
  0
LINE
  8
0
 10
-41.932
 11
-42.252
 20
62.26
 21
62.7
  0
LINE
  8
0
 10
-42.252
 11
-42.473
 20
62.7
 21
63.197
  0
LINE
  8
0
 10
-42.473
 11
-42.586
 20
63.197
 21
63.728
  0
LINE
  8
0
 10
-42.586
 11
-42.586
 20
71.728
 21
72.272
  0
LINE
  8
0
 10
-42.586
 11
-42.473
 20
72.272
 21
72.803
  0
LINE
  8
0
 10
-42.473
 11
-42.252
 20
72.803
 21
73.3
  0
LINE
  8
0
 10
-42.252
 11
-41.932
 20
73.3
 21
73.74
  0
LINE
  8
0
 10
-41.932
 11
-41.528
 20
73.74
 21
74.103
  0
LINE
  8
0
 10
-41.528
 11
-41.058
 20
74.103
 21
74.375
  0
LINE
  8
0
 10
-41.058
 11
-40.541
 20
74.375
 21
74.543
  0
LINE
  8
0
 10
-40.541
 11
-40
 20
74.543
 21
74.6
  0
LINE
  8
0
 10
-40
 11
-39.459
 20
74.6
 21
74.543
  0
LINE
  8
0
 10
-39.459
 11
-38.942
 20
74.543
 21
74.375
  0
LINE
  8
0
 10
-38.942
 11
-38.472
 20
74.375
 21
74.103
  0
LINE
  8
0
 10
-38.472
 11
-38.068
 20
74.103
 21
73.74
  0
LINE
  8
0
 10
-38.068
 11
-37.748
 20
73.74
 21
73.3
  0
LINE
  8
0
 10
-37.748
 11
-37.527
 20
73.3
 21
72.803
  0
LINE
  8
0
 10
-37.527
 11
-37.414
 20
72.803
 21
72.272
  0
LINE
  8
0
 10
-37.414
 11
-37.414
 20
72.272
 21
71.728
  0
LINE
  8
0
 10
-37.414
 11
-37.527
 20
71.728
 21
71.197
  0
LINE
  8
0
 10
-37.527
 11
-37.748
 20
71.197
 21
70.7
  0
LINE
  8
0
 10
-37.748
 11
-38.068
 20
70.7
 21
70.26
  0
LINE
  8
0
 10
-38.068
 11
-38.472
 20
70.26
 21
69.897
  0
LINE
  8
0
 10
-38.472
 11
-38.942
 20
69.897
 21
69.625
  0
LINE
  8
0
 10
-38.942
 11
-39.459
 20
69.625
 21
69.457
  0
LINE
  8
0
 10
-39.459
 11
-40
 20
69.457
 21
69.4
  0
LINE
  8
0
 10
-40
 11
-40.541
 20
69.4
 21
69.457
  0
LINE
  8
0
 10
-40.541
 11
-41.058
 20
69.457
 21
69.625
  0
LINE
  8
0
 10
-41.058
 11
-41.528
 20
69.625
 21
69.897
  0
LINE
  8
0
 10
-41.528
 11
-41.932
 20
69.897
 21
70.26
  0
LINE
  8
0
 10
-41.932
 11
-42.252
 20
70.26
 21
70.7
  0
LINE
  8
0
 10
-42.252
 11
-42.473
 20
70.7
 21
71.197
  0
LINE
  8
0
 10
-42.473
 11
-42.586
 20
71.197
 21
71.728
  0
LINE
  8
0
 10
-34.6
 11
-34.543
 20
-64
 21
-63.459
  0
LINE
  8
0
 10
-34.543
 11
-34.375
 20
-63.459
 21
-62.942
  0
LINE
  8
0
 10
-34.375
 11
-34.103
 20
-62.942
 21
-62.472
  0
LINE
  8
0
 10
-34.103
 11
-33.74
 20
-62.472
 21
-62.068
  0
LINE
  8
0
 10
-33.74
 11
-33.3
 20
-62.068
 21
-61.748
  0
LINE
  8
0
 10
-33.3
 11
-32.803
 20
-61.748
 21
-61.527
  0
LINE
  8
0
 10
-32.803
 11
-32.272
 20
-61.527
 21
-61.414
  0
LINE
  8
0
 10
-32.272
 11
-31.728
 20
-61.414
 21
-61.414
  0
LINE
  8
0
 10
-31.728
 11
-31.197
 20
-61.414
 21
-61.527
  0
LINE
  8
0
 10
-31.197
 11
-30.7
 20
-61.527
 21
-61.748
  0
LINE
  8
0
 10
-30.7
 11
-30.26
 20
-61.748
 21
-62.068
  0
LINE
  8
0
 10
-30.26
 11
-29.897
 20
-62.068
 21
-62.472
  0
LINE
  8
0
 10
-29.897
 11
-29.625
 20
-62.472
 21
-62.942
  0
LINE
  8
0
 10
-29.625
 11
-29.457
 20
-62.942
 21
-63.459
  0
LINE
  8
0
 10
-29.457
 11
-29.4
 20
-63.459
 21
-64
  0
LINE
  8
0
 10
-29.4
 11
-29.457
 20
-64
 21
-64.541
  0
LINE
  8
0
 10
-29.457
 11
-29.625
 20
-64.541
 21
-65.058
  0
LINE
  8
0
 10
-29.625
 11
-29.897
 20
-65.058
 21
-65.528
  0
LINE
  8
0
 10
-29.897
 11
-30.26
 20
-65.528
 21
-65.932
  0
LINE
  8
0
 10
-30.26
 11
-30.7
 20
-65.932
 21
-66.252
  0
LINE
  8
0
 10
-30.7
 11
-31.197
 20
-66.252
 21
-66.473
  0
LINE
  8
0
 10
-31.197
 11
-31.728
 20
-66.473
 21
-66.586
  0
LINE
  8
0
 10
-31.728
 11
-32.272
 20
-66.586
 21
-66.586
  0
LINE
  8
0
 10
-32.272
 11
-32.803
 20
-66.586
 21
-66.473
  0
LINE
  8
0
 10
-32.803
 11
-33.3
 20
-66.473
 21
-66.252
  0
LINE
  8
0
 10
-33.3
 11
-33.74
 20
-66.252
 21
-65.932
  0
LINE
  8
0
 10
-33.74
 11
-34.103
 20
-65.932
 21
-65.528
  0
LINE
  8
0
 10
-34.103
 11
-34.375
 20
-65.528
 21
-65.058
  0
LINE
  8
0
 10
-34.375
 11
-34.543
 20
-65.058
 21
-64.541
  0
LINE
  8
0
 10
-34.543
 11
-34.6
 20
-64.541
 21
-64
  0
LINE
  8
0
 10
-34.6
 11
-34.543
 20
80
 21
80.541
  0
LINE
  8
0
 10
-34.543
 11
-34.375
 20
80.541
 21
81.058
  0
LINE
  8
0
 10
-34.375
 11
-34.103
 20
81.058
 21
81.528
  0
LINE
  8
0
 10
-34.103
 11
-33.74
 20
81.528
 21
81.932
  0
LINE
  8
0
 10
-33.74
 11
-33.3
 20
81.932
 21
82.252
  0
LINE
  8
0
 10
-33.3
 11
-32.803
 20
82.252
 21
82.473
  0
LINE
  8
0
 10
-32.803
 11
-32.272
 20
82.473
 21
82.586
  0
LINE
  8
0
 10
-32.272
 11
-31.728
 20
82.586
 21
82.586
  0
LINE
  8
0
 10
-31.728
 11
-31.197
 20
82.586
 21
82.473
  0
LINE
  8
0
 10
-31.197
 11
-30.7
 20
82.473
 21
82.252
  0
LINE
  8
0
 10
-30.7
 11
-30.26
 20
82.252
 21
81.932
  0
LINE
  8
0
 10
-30.26
 11
-29.897
 20
81.932
 21
81.528
  0
LINE
  8
0
 10
-29.897
 11
-29.625
 20
81.528
 21
81.058
  0
LINE
  8
0
 10
-29.625
 11
-29.457
 20
81.058
 21
80.541
  0
LINE
  8
0
 10
-29.457
 11
-29.4
 20
80.541
 21
80
  0
LINE
  8
0
 10
-29.4
 11
-29.457
 20
80
 21
79.459
  0
LINE
  8
0
 10
-29.457
 11
-29.625
 20
79.459
 21
78.942
  0
LINE
  8
0
 10
-29.625
 11
-29.897
 20
78.942
 21
78.472
  0
LINE
  8
0
 10
-29.897
 11
-30.26
 20
78.472
 21
78.068
  0
LINE
  8
0
 10
-30.26
 11
-30.7
 20
78.068
 21
77.748
  0
LINE
  8
0
 10
-30.7
 11
-31.197
 20
77.748
 21
77.527
  0
LINE
  8
0
 10
-31.197
 11
-31.728
 20
77.527
 21
77.414
  0
LINE
  8
0
 10
-31.728
 11
-32.272
 20
77.414
 21
77.414
  0
LINE
  8
0
 10
-32.272
 11
-32.803
 20
77.414
 21
77.527
  0
LINE
  8
0
 10
-32.803
 11
-33.3
 20
77.527
 21
77.748
  0
LINE
  8
0
 10
-33.3
 11
-33.74
 20
77.748
 21
78.068
  0
LINE
  8
0
 10
-33.74
 11
-34.103
 20
78.068
 21
78.472
  0
LINE
  8
0
 10
-34.103
 11
-34.375
 20
78.472
 21
78.942
  0
LINE
  8
0
 10
-34.375
 11
-34.543
 20
78.942
 21
79.459
  0
LINE
  8
0
 10
-34.543
 11
-34.6
 20
79.459
 21
80
  0
LINE
  8
0
 10
-26.6
 11
-26.543
 20
-64
 21
-63.459
  0
LINE
  8
0
 10
-26.543
 11
-26.375
 20
-63.459
 21
-62.942
  0
LINE
  8
0
 10
-26.375
 11
-26.103
 20
-62.942
 21
-62.472
  0
LINE
  8
0
 10
-26.103
 11
-25.74
 20
-62.472
 21
-62.068
  0
LINE
  8
0
 10
-25.74
 11
-25.3
 20
-62.068
 21
-61.748
  0
LINE
  8
0
 10
-25.3
 11
-24.803
 20
-61.748
 21
-61.527
  0
LINE
  8
0
 10
-24.803
 11
-24.272
 20
-61.527
 21
-61.414
  0
LINE
  8
0
 10
-24.272
 11
-23.728
 20
-61.414
 21
-61.414
  0
LINE
  8
0
 10
-23.728
 11
-23.197
 20
-61.414
 21
-61.527
  0
LINE
  8
0
 10
-23.197
 11
-22.7
 20
-61.527
 21
-61.748
  0
LINE
  8
0
 10
-22.7
 11
-22.26
 20
-61.748
 21
-62.068
  0
LINE
  8
0
 10
-22.26
 11
-21.897
 20
-62.068
 21
-62.472
  0
LINE
  8
0
 10
-21.897
 11
-21.625
 20
-62.472
 21
-62.942
  0
LINE
  8
0
 10
-21.625
 11
-21.457
 20
-62.942
 21
-63.459
  0
LINE
  8
0
 10
-21.457
 11
-21.4
 20
-63.459
 21
-64
  0
LINE
  8
0
 10
-21.4
 11
-21.457
 20
-64
 21
-64.541
  0
LINE
  8
0
 10
-21.457
 11
-21.625
 20
-64.541
 21
-65.058
  0
LINE
  8
0
 10
-21.625
 11
-21.897
 20
-65.058
 21
-65.528
  0
LINE
  8
0
 10
-21.897
 11
-22.26
 20
-65.528
 21
-65.932
  0
LINE
  8
0
 10
-22.26
 11
-22.7
 20
-65.932
 21
-66.252
  0
LINE
  8
0
 10
-22.7
 11
-23.197
 20
-66.252
 21
-66.473
  0
LINE
  8
0
 10
-23.197
 11
-23.728
 20
-66.473
 21
-66.586
  0
LINE
  8
0
 10
-23.728
 11
-24.272
 20
-66.586
 21
-66.586
  0
LINE
  8
0
 10
-24.272
 11
-24.803
 20
-66.586
 21
-66.473
  0
LINE
  8
0
 10
-24.803
 11
-25.3
 20
-66.473
 21
-66.252
  0
LINE
  8
0
 10
-25.3
 11
-25.74
 20
-66.252
 21
-65.932
  0
LINE
  8
0
 10
-25.74
 11
-26.103
 20
-65.932
 21
-65.528
  0
LINE
  8
0
 10
-26.103
 11
-26.375
 20
-65.528
 21
-65.058
  0
LINE
  8
0
 10
-26.375
 11
-26.543
 20
-65.058
 21
-64.541
  0
LINE
  8
0
 10
-26.543
 11
-26.6
 20
-64.541
 21
-64
  0
LINE
  8
0
 10
-26.6
 11
-26.543
 20
80
 21
80.541
  0
LINE
  8
0
 10
-26.543
 11
-26.375
 20
80.541
 21
81.058
  0
LINE
  8
0
 10
-26.375
 11
-26.103
 20
81.058
 21
81.528
  0
LINE
  8
0
 10
-26.103
 11
-25.74
 20
81.528
 21
81.932
  0
LINE
  8
0
 10
-25.74
 11
-25.3
 20
81.932
 21
82.252
  0
LINE
  8
0
 10
-25.3
 11
-24.803
 20
82.252
 21
82.473
  0
LINE
  8
0
 10
-24.803
 11
-24.272
 20
82.473
 21
82.586
  0
LINE
  8
0
 10
-24.272
 11
-23.728
 20
82.586
 21
82.586
  0
LINE
  8
0
 10
-23.728
 11
-23.197
 20
82.586
 21
82.473
  0
LINE
  8
0
 10
-23.197
 11
-22.7
 20
82.473
 21
82.252
  0
LINE
  8
0
 10
-22.7
 11
-22.26
 20
82.252
 21
81.932
  0
LINE
  8
0
 10
-22.26
 11
-21.897
 20
81.932
 21
81.528
  0
LINE
  8
0
 10
-21.897
 11
-21.625
 20
81.528
 21
81.058
  0
LINE
  8
0
 10
-21.625
 11
-21.457
 20
81.058
 21
80.541
  0
LINE
  8
0
 10
-21.457
 11
-21.4
 20
80.541
 21
80
  0
LINE
  8
0
 10
-21.4
 11
-21.457
 20
80
 21
79.459
  0
LINE
  8
0
 10
-21.457
 11
-21.625
 20
79.459
 21
78.942
  0
LINE
  8
0
 10
-21.625
 11
-21.897
 20
78.942
 21
78.472
  0
LINE
  8
0
 10
-21.897
 11
-22.26
 20
78.472
 21
78.068
  0
LINE
  8
0
 10
-22.26
 11
-22.7
 20
78.068
 21
77.748
  0
LINE
  8
0
 10
-22.7
 11
-23.197
 20
77.748
 21
77.527
  0
LINE
  8
0
 10
-23.197
 11
-23.728
 20
77.527
 21
77.414
  0
LINE
  8
0
 10
-23.728
 11
-24.272
 20
77.414
 21
77.414
  0
LINE
  8
0
 10
-24.272
 11
-24.803
 20
77.414
 21
77.527
  0
LINE
  8
0
 10
-24.803
 11
-25.3
 20
77.527
 21
77.748
  0
LINE
  8
0
 10
-25.3
 11
-25.74
 20
77.748
 21
78.068
  0
LINE
  8
0
 10
-25.74
 11
-26.103
 20
78.068
 21
78.472
  0
LINE
  8
0
 10
-26.103
 11
-26.375
 20
78.472
 21
78.942
  0
LINE
  8
0
 10
-26.375
 11
-26.543
 20
78.942
 21
79.459
  0
LINE
  8
0
 10
-26.543
 11
-26.6
 20
79.459
 21
80
  0
LINE
  8
0
 10
-18.6
 11
-18.543
 20
-64
 21
-63.459
  0
LINE
  8
0
 10
-18.543
 11
-18.375
 20
-63.459
 21
-62.942
  0
LINE
  8
0
 10
-18.375
 11
-18.103
 20
-62.942
 21
-62.472
  0
LINE
  8
0
 10
-18.103
 11
-17.74
 20
-62.472
 21
-62.068
  0
LINE
  8
0
 10
-17.74
 11
-17.3
 20
-62.068
 21
-61.748
  0
LINE
  8
0
 10
-17.3
 11
-16.803
 20
-61.748
 21
-61.527
  0
LINE
  8
0
 10
-16.803
 11
-16.272
 20
-61.527
 21
-61.414
  0
LINE
  8
0
 10
-16.272
 11
-15.728
 20
-61.414
 21
-61.414
  0
LINE
  8
0
 10
-15.728
 11
-15.197
 20
-61.414
 21
-61.527
  0
LINE
  8
0
 10
-15.197
 11
-14.7
 20
-61.527
 21
-61.748
  0
LINE
  8
0
 10
-14.7
 11
-14.26
 20
-61.748
 21
-62.068
  0
LINE
  8
0
 10
-14.26
 11
-13.897
 20
-62.068
 21
-62.472
  0
LINE
  8
0
 10
-13.897
 11
-13.625
 20
-62.472
 21
-62.942
  0
LINE
  8
0
 10
-13.625
 11
-13.457
 20
-62.942
 21
-63.459
  0
LINE
  8
0
 10
-13.457
 11
-13.4
 20
-63.459
 21
-64
  0
LINE
  8
0
 10
-13.4
 11
-13.457
 20
-64
 21
-64.541
  0
LINE
  8
0
 10
-13.457
 11
-13.625
 20
-64.541
 21
-65.058
  0
LINE
  8
0
 10
-13.625
 11
-13.897
 20
-65.058
 21
-65.528
  0
LINE
  8
0
 10
-13.897
 11
-14.26
 20
-65.528
 21
-65.932
  0
LINE
  8
0
 10
-14.26
 11
-14.7
 20
-65.932
 21
-66.252
  0
LINE
  8
0
 10
-14.7
 11
-15.197
 20
-66.252
 21
-66.473
  0
LINE
  8
0
 10
-15.197
 11
-15.728
 20
-66.473
 21
-66.586
  0
LINE
  8
0
 10
-15.728
 11
-16.272
 20
-66.586
 21
-66.586
  0
LINE
  8
0
 10
-16.272
 11
-16.803
 20
-66.586
 21
-66.473
  0
LINE
  8
0
 10
-16.803
 11
-17.3
 20
-66.473
 21
-66.252
  0
LINE
  8
0
 10
-17.3
 11
-17.74
 20
-66.252
 21
-65.932
  0
LINE
  8
0
 10
-17.74
 11
-18.103
 20
-65.932
 21
-65.528
  0
LINE
  8
0
 10
-18.103
 11
-18.375
 20
-65.528
 21
-65.058
  0
LINE
  8
0
 10
-18.375
 11
-18.543
 20
-65.058
 21
-64.541
  0
LINE
  8
0
 10
-18.543
 11
-18.6
 20
-64.541
 21
-64
  0
LINE
  8
0
 10
-18.6
 11
-18.543
 20
80
 21
80.541
  0
LINE
  8
0
 10
-18.543
 11
-18.375
 20
80.541
 21
81.058
  0
LINE
  8
0
 10
-18.375
 11
-18.103
 20
81.058
 21
81.528
  0
LINE
  8
0
 10
-18.103
 11
-17.74
 20
81.528
 21
81.932
  0
LINE
  8
0
 10
-17.74
 11
-17.3
 20
81.932
 21
82.252
  0
LINE
  8
0
 10
-17.3
 11
-16.803
 20
82.252
 21
82.473
  0
LINE
  8
0
 10
-16.803
 11
-16.272
 20
82.473
 21
82.586
  0
LINE
  8
0
 10
-16.272
 11
-15.728
 20
82.586
 21
82.586
  0
LINE
  8
0
 10
-15.728
 11
-15.197
 20
82.586
 21
82.473
  0
LINE
  8
0
 10
-15.197
 11
-14.7
 20
82.473
 21
82.252
  0
LINE
  8
0
 10
-14.7
 11
-14.26
 20
82.252
 21
81.932
  0
LINE
  8
0
 10
-14.26
 11
-13.897
 20
81.932
 21
81.528
  0
LINE
  8
0
 10
-13.897
 11
-13.625
 20
81.528
 21
81.058
  0
LINE
  8
0
 10
-13.625
 11
-13.457
 20
81.058
 21
80.541
  0
LINE
  8
0
 10
-13.457
 11
-13.4
 20
80.541
 21
80
  0
LINE
  8
0
 10
-13.4
 11
-13.457
 20
80
 21
79.459
  0
LINE
  8
0
 10
-13.457
 11
-13.625
 20
79.459
 21
78.942
  0
LINE
  8
0
 10
-13.625
 11
-13.897
 20
78.942
 21
78.472
  0
LINE
  8
0
 10
-13.897
 11
-14.26
 20
78.472
 21
78.068
  0
LINE
  8
0
 10
-14.26
 11
-14.7
 20
78.068
 21
77.748
  0
LINE
  8
0
 10
-14.7
 11
-15.197
 20
77.748
 21
77.527
  0
LINE
  8
0
 10
-15.197
 11
-15.728
 20
77.527
 21
77.414
  0
LINE
  8
0
 10
-15.728
 11
-16.272
 20
77.414
 21
77.414
  0
LINE
  8
0
 10
-16.272
 11
-16.803
 20
77.414
 21
77.527
  0
LINE
  8
0
 10
-16.803
 11
-17.3
 20
77.527
 21
77.748
  0
LINE
  8
0
 10
-17.3
 11
-17.74
 20
77.748
 21
78.068
  0
LINE
  8
0
 10
-17.74
 11
-18.103
 20
78.068
 21
78.472
  0
LINE
  8
0
 10
-18.103
 11
-18.375
 20
78.472
 21
78.942
  0
LINE
  8
0
 10
-18.375
 11
-18.543
 20
78.942
 21
79.459
  0
LINE
  8
0
 10
-18.543
 11
-18.6
 20
79.459
 21
80
  0
LINE
  8
0
 10
-10.6
 11
-10.543
 20
-64
 21
-63.459
  0
LINE
  8
0
 10
-10.543
 11
-10.375
 20
-63.459
 21
-62.942
  0
LINE
  8
0
 10
-10.375
 11
-10.103
 20
-62.942
 21
-62.472
  0
LINE
  8
0
 10
-10.103
 11
-9.74
 20
-62.472
 21
-62.068
  0
LINE
  8
0
 10
-9.74
 11
-9.3
 20
-62.068
 21
-61.748
  0
LINE
  8
0
 10
-9.3
 11
-8.803
 20
-61.748
 21
-61.527
  0
LINE
  8
0
 10
-8.803
 11
-8.272
 20
-61.527
 21
-61.414
  0
LINE
  8
0
 10
-8.272
 11
-7.728
 20
-61.414
 21
-61.414
  0
LINE
  8
0
 10
-7.728
 11
-7.197
 20
-61.414
 21
-61.527
  0
LINE
  8
0
 10
-7.197
 11
-6.7
 20
-61.527
 21
-61.748
  0
LINE
  8
0
 10
-6.7
 11
-6.26
 20
-61.748
 21
-62.068
  0
LINE
  8
0
 10
-6.26
 11
-5.897
 20
-62.068
 21
-62.472
  0
LINE
  8
0
 10
-5.897
 11
-5.625
 20
-62.472
 21
-62.942
  0
LINE
  8
0
 10
-5.625
 11
-5.457
 20
-62.942
 21
-63.459
  0
LINE
  8
0
 10
-5.457
 11
-5.4
 20
-63.459
 21
-64
  0
LINE
  8
0
 10
-5.4
 11
-5.457
 20
-64
 21
-64.541
  0
LINE
  8
0
 10
-5.457
 11
-5.625
 20
-64.541
 21
-65.058
  0
LINE
  8
0
 10
-5.625
 11
-5.897
 20
-65.058
 21
-65.528
  0
LINE
  8
0
 10
-5.897
 11
-6.26
 20
-65.528
 21
-65.932
  0
LINE
  8
0
 10
-6.26
 11
-6.7
 20
-65.932
 21
-66.252
  0
LINE
  8
0
 10
-6.7
 11
-7.197
 20
-66.252
 21
-66.473
  0
LINE
  8
0
 10
-7.197
 11
-7.728
 20
-66.473
 21
-66.586
  0
LINE
  8
0
 10
-7.728
 11
-8.272
 20
-66.586
 21
-66.586
  0
LINE
  8
0
 10
-8.272
 11
-8.803
 20
-66.586
 21
-66.473
  0
LINE
  8
0
 10
-8.803
 11
-9.3
 20
-66.473
 21
-66.252
  0
LINE
  8
0
 10
-9.3
 11
-9.74
 20
-66.252
 21
-65.932
  0
LINE
  8
0
 10
-9.74
 11
-10.103
 20
-65.932
 21
-65.528
  0
LINE
  8
0
 10
-10.103
 11
-10.375
 20
-65.528
 21
-65.058
  0
LINE
  8
0
 10
-10.375
 11
-10.543
 20
-65.058
 21
-64.541
  0
LINE
  8
0
 10
-10.543
 11
-10.6
 20
-64.541
 21
-64
  0
LINE
  8
0
 10
-10.6
 11
-10.543
 20
80
 21
80.541
  0
LINE
  8
0
 10
-10.543
 11
-10.375
 20
80.541
 21
81.058
  0
LINE
  8
0
 10
-10.375
 11
-10.103
 20
81.058
 21
81.528
  0
LINE
  8
0
 10
-10.103
 11
-9.74
 20
81.528
 21
81.932
  0
LINE
  8
0
 10
-9.74
 11
-9.3
 20
81.932
 21
82.252
  0
LINE
  8
0
 10
-9.3
 11
-8.803
 20
82.252
 21
82.473
  0
LINE
  8
0
 10
-8.803
 11
-8.272
 20
82.473
 21
82.586
  0
LINE
  8
0
 10
-8.272
 11
-7.728
 20
82.586
 21
82.586
  0
LINE
  8
0
 10
-7.728
 11
-7.197
 20
82.586
 21
82.473
  0
LINE
  8
0
 10
-7.197
 11
-6.7
 20
82.473
 21
82.252
  0
LINE
  8
0
 10
-6.7
 11
-6.26
 20
82.252
 21
81.932
  0
LINE
  8
0
 10
-6.26
 11
-5.897
 20
81.932
 21
81.528
  0
LINE
  8
0
 10
-5.897
 11
-5.625
 20
81.528
 21
81.058
  0
LINE
  8
0
 10
-5.625
 11
-5.457
 20
81.058
 21
80.541
  0
LINE
  8
0
 10
-5.457
 11
-5.4
 20
80.541
 21
80
  0
LINE
  8
0
 10
-5.4
 11
-5.457
 20
80
 21
79.459
  0
LINE
  8
0
 10
-5.457
 11
-5.625
 20
79.459
 21
78.942
  0
LINE
  8
0
 10
-5.625
 11
-5.897
 20
78.942
 21
78.472
  0
LINE
  8
0
 10
-5.897
 11
-6.26
 20
78.472
 21
78.068
  0
LINE
  8
0
 10
-6.26
 11
-6.7
 20
78.068
 21
77.748
  0
LINE
  8
0
 10
-6.7
 11
-7.197
 20
77.748
 21
77.527
  0
LINE
  8
0
 10
-7.197
 11
-7.728
 20
77.527
 21
77.414
  0
LINE
  8
0
 10
-7.728
 11
-8.272
 20
77.414
 21
77.414
  0
LINE
  8
0
 10
-8.272
 11
-8.803
 20
77.414
 21
77.527
  0
LINE
  8
0
 10
-8.803
 11
-9.3
 20
77.527
 21
77.748
  0
LINE
  8
0
 10
-9.3
 11
-9.74
 20
77.748
 21
78.068
  0
LINE
  8
0
 10
-9.74
 11
-10.103
 20
78.068
 21
78.472
  0
LINE
  8
0
 10
-10.103
 11
-10.375
 20
78.472
 21
78.942
  0
LINE
  8
0
 10
-10.375
 11
-10.543
 20
78.942
 21
79.459
  0
LINE
  8
0
 10
-10.543
 11
-10.6
 20
79.459
 21
80
  0
LINE
  8
0
 10
-2.6
 11
-2.543
 20
-80
 21
-79.459
  0
LINE
  8
0
 10
-2.543
 11
-2.375
 20
-79.459
 21
-78.942
  0
LINE
  8
0
 10
-2.375
 11
-2.103
 20
-78.942
 21
-78.472
  0
LINE
  8
0
 10
-2.103
 11
-1.74
 20
-78.472
 21
-78.068
  0
LINE
  8
0
 10
-1.74
 11
-1.3
 20
-78.068
 21
-77.748
  0
LINE
  8
0
 10
-1.3
 11
-0.803
 20
-77.748
 21
-77.527
  0
LINE
  8
0
 10
-0.803
 11
-0.272
 20
-77.527
 21
-77.414
  0
LINE
  8
0
 10
-0.272
 11
0.272
 20
-77.414
 21
-77.414
  0
LINE
  8
0
 10
0.272
 11
0.803
 20
-77.414
 21
-77.527
  0
LINE
  8
0
 10
0.803
 11
1.3
 20
-77.527
 21
-77.748
  0
LINE
  8
0
 10
1.3
 11
1.74
 20
-77.748
 21
-78.068
  0
LINE
  8
0
 10
1.74
 11
2.103
 20
-78.068
 21
-78.472
  0
LINE
  8
0
 10
2.103
 11
2.375
 20
-78.472
 21
-78.942
  0
LINE
  8
0
 10
2.375
 11
2.543
 20
-78.942
 21
-79.459
  0
LINE
  8
0
 10
2.543
 11
2.6
 20
-79.459
 21
-80
  0
LINE
  8
0
 10
2.6
 11
2.543
 20
-80
 21
-80.541
  0
LINE
  8
0
 10
2.543
 11
2.375
 20
-80.541
 21
-81.058
  0
LINE
  8
0
 10
2.375
 11
2.103
 20
-81.058
 21
-81.528
  0
LINE
  8
0
 10
2.103
 11
1.74
 20
-81.528
 21
-81.932
  0
LINE
  8
0
 10
1.74
 11
1.3
 20
-81.932
 21
-82.252
  0
LINE
  8
0
 10
1.3
 11
0.803
 20
-82.252
 21
-82.473
  0
LINE
  8
0
 10
0.803
 11
0.272
 20
-82.473
 21
-82.586
  0
LINE
  8
0
 10
0.272
 11
-0.272
 20
-82.586
 21
-82.586
  0
LINE
  8
0
 10
-0.272
 11
-0.803
 20
-82.586
 21
-82.473
  0
LINE
  8
0
 10
-0.803
 11
-1.3
 20
-82.473
 21
-82.252
  0
LINE
  8
0
 10
-1.3
 11
-1.74
 20
-82.252
 21
-81.932
  0
LINE
  8
0
 10
-1.74
 11
-2.103
 20
-81.932
 21
-81.528
  0
LINE
  8
0
 10
-2.103
 11
-2.375
 20
-81.528
 21
-81.058
  0
LINE
  8
0
 10
-2.375
 11
-2.543
 20
-81.058
 21
-80.541
  0
LINE
  8
0
 10
-2.543
 11
-2.6
 20
-80.541
 21
-80
  0
LINE
  8
0
 10
-2.6
 11
-2.543
 20
-64
 21
-63.459
  0
LINE
  8
0
 10
-2.543
 11
-2.375
 20
-63.459
 21
-62.942
  0
LINE
  8
0
 10
-2.375
 11
-2.103
 20
-62.942
 21
-62.472
  0
LINE
  8
0
 10
-2.103
 11
-1.74
 20
-62.472
 21
-62.068
  0
LINE
  8
0
 10
-1.74
 11
-1.3
 20
-62.068
 21
-61.748
  0
LINE
  8
0
 10
-1.3
 11
-0.803
 20
-61.748
 21
-61.527
  0
LINE
  8
0
 10
-0.803
 11
-0.272
 20
-61.527
 21
-61.414
  0
LINE
  8
0
 10
-0.272
 11
0.272
 20
-61.414
 21
-61.414
  0
LINE
  8
0
 10
0.272
 11
0.803
 20
-61.414
 21
-61.527
  0
LINE
  8
0
 10
0.803
 11
1.3
 20
-61.527
 21
-61.748
  0
LINE
  8
0
 10
1.3
 11
1.74
 20
-61.748
 21
-62.068
  0
LINE
  8
0
 10
1.74
 11
2.103
 20
-62.068
 21
-62.472
  0
LINE
  8
0
 10
2.103
 11
2.375
 20
-62.472
 21
-62.942
  0
LINE
  8
0
 10
2.375
 11
2.543
 20
-62.942
 21
-63.459
  0
LINE
  8
0
 10
2.543
 11
2.6
 20
-63.459
 21
-64
  0
LINE
  8
0
 10
2.6
 11
2.543
 20
-64
 21
-64.541
  0
LINE
  8
0
 10
2.543
 11
2.375
 20
-64.541
 21
-65.058
  0
LINE
  8
0
 10
2.375
 11
2.103
 20
-65.058
 21
-65.528
  0
LINE
  8
0
 10
2.103
 11
1.74
 20
-65.528
 21
-65.932
  0
LINE
  8
0
 10
1.74
 11
1.3
 20
-65.932
 21
-66.252
  0
LINE
  8
0
 10
1.3
 11
0.803
 20
-66.252
 21
-66.473
  0
LINE
  8
0
 10
0.803
 11
0.272
 20
-66.473
 21
-66.586
  0
LINE
  8
0
 10
0.272
 11
-0.272
 20
-66.586
 21
-66.586
  0
LINE
  8
0
 10
-0.272
 11
-0.803
 20
-66.586
 21
-66.473
  0
LINE
  8
0
 10
-0.803
 11
-1.3
 20
-66.473
 21
-66.252
  0
LINE
  8
0
 10
-1.3
 11
-1.74
 20
-66.252
 21
-65.932
  0
LINE
  8
0
 10
-1.74
 11
-2.103
 20
-65.932
 21
-65.528
  0
LINE
  8
0
 10
-2.103
 11
-2.375
 20
-65.528
 21
-65.058
  0
LINE
  8
0
 10
-2.375
 11
-2.543
 20
-65.058
 21
-64.541
  0
LINE
  8
0
 10
-2.543
 11
-2.6
 20
-64.541
 21
-64
  0
LINE
  8
0
 10
-2.6
 11
-2.543
 20
80
 21
80.541
  0
LINE
  8
0
 10
-2.543
 11
-2.375
 20
80.541
 21
81.058
  0
LINE
  8
0
 10
-2.375
 11
-2.103
 20
81.058
 21
81.528
  0
LINE
  8
0
 10
-2.103
 11
-1.74
 20
81.528
 21
81.932
  0
LINE
  8
0
 10
-1.74
 11
-1.3
 20
81.932
 21
82.252
  0
LINE
  8
0
 10
-1.3
 11
-0.803
 20
82.252
 21
82.473
  0
LINE
  8
0
 10
-0.803
 11
-0.272
 20
82.473
 21
82.586
  0
LINE
  8
0
 10
-0.272
 11
0.272
 20
82.586
 21
82.586
  0
LINE
  8
0
 10
0.272
 11
0.803
 20
82.586
 21
82.473
  0
LINE
  8
0
 10
0.803
 11
1.3
 20
82.473
 21
82.252
  0
LINE
  8
0
 10
1.3
 11
1.74
 20
82.252
 21
81.932
  0
LINE
  8
0
 10
1.74
 11
2.103
 20
81.932
 21
81.528
  0
LINE
  8
0
 10
2.103
 11
2.375
 20
81.528
 21
81.058
  0
LINE
  8
0
 10
2.375
 11
2.543
 20
81.058
 21
80.541
  0
LINE
  8
0
 10
2.543
 11
2.6
 20
80.541
 21
80
  0
LINE
  8
0
 10
2.6
 11
2.543
 20
80
 21
79.459
  0
LINE
  8
0
 10
2.543
 11
2.375
 20
79.459
 21
78.942
  0
LINE
  8
0
 10
2.375
 11
2.103
 20
78.942
 21
78.472
  0
LINE
  8
0
 10
2.103
 11
1.74
 20
78.472
 21
78.068
  0
LINE
  8
0
 10
1.74
 11
1.3
 20
78.068
 21
77.748
  0
LINE
  8
0
 10
1.3
 11
0.803
 20
77.748
 21
77.527
  0
LINE
  8
0
 10
0.803
 11
0.272
 20
77.527
 21
77.414
  0
LINE
  8
0
 10
0.272
 11
-0.272
 20
77.414
 21
77.414
  0
LINE
  8
0
 10
-0.272
 11
-0.803
 20
77.414
 21
77.527
  0
LINE
  8
0
 10
-0.803
 11
-1.3
 20
77.527
 21
77.748
  0
LINE
  8
0
 10
-1.3
 11
-1.74
 20
77.748
 21
78.068
  0
LINE
  8
0
 10
-1.74
 11
-2.103
 20
78.068
 21
78.472
  0
LINE
  8
0
 10
-2.103
 11
-2.375
 20
78.472
 21
78.942
  0
LINE
  8
0
 10
-2.375
 11
-2.543
 20
78.942
 21
79.459
  0
LINE
  8
0
 10
-2.543
 11
-2.6
 20
79.459
 21
80
  0
LINE
  8
0
 10
5.4
 11
5.457
 20
-64
 21
-63.459
  0
LINE
  8
0
 10
5.457
 11
5.625
 20
-63.459
 21
-62.942
  0
LINE
  8
0
 10
5.625
 11
5.897
 20
-62.942
 21
-62.472
  0
LINE
  8
0
 10
5.897
 11
6.26
 20
-62.472
 21
-62.068
  0
LINE
  8
0
 10
6.26
 11
6.7
 20
-62.068
 21
-61.748
  0
LINE
  8
0
 10
6.7
 11
7.197
 20
-61.748
 21
-61.527
  0
LINE
  8
0
 10
7.197
 11
7.728
 20
-61.527
 21
-61.414
  0
LINE
  8
0
 10
7.728
 11
8.272
 20
-61.414
 21
-61.414
  0
LINE
  8
0
 10
8.272
 11
8.803
 20
-61.414
 21
-61.527
  0
LINE
  8
0
 10
8.803
 11
9.3
 20
-61.527
 21
-61.748
  0
LINE
  8
0
 10
9.3
 11
9.74
 20
-61.748
 21
-62.068
  0
LINE
  8
0
 10
9.74
 11
10.103
 20
-62.068
 21
-62.472
  0
LINE
  8
0
 10
10.103
 11
10.375
 20
-62.472
 21
-62.942
  0
LINE
  8
0
 10
10.375
 11
10.543
 20
-62.942
 21
-63.459
  0
LINE
  8
0
 10
10.543
 11
10.6
 20
-63.459
 21
-64
  0
LINE
  8
0
 10
10.6
 11
10.543
 20
-64
 21
-64.541
  0
LINE
  8
0
 10
10.543
 11
10.375
 20
-64.541
 21
-65.058
  0
LINE
  8
0
 10
10.375
 11
10.103
 20
-65.058
 21
-65.528
  0
LINE
  8
0
 10
10.103
 11
9.74
 20
-65.528
 21
-65.932
  0
LINE
  8
0
 10
9.74
 11
9.3
 20
-65.932
 21
-66.252
  0
LINE
  8
0
 10
9.3
 11
8.803
 20
-66.252
 21
-66.473
  0
LINE
  8
0
 10
8.803
 11
8.272
 20
-66.473
 21
-66.586
  0
LINE
  8
0
 10
8.272
 11
7.728
 20
-66.586
 21
-66.586
  0
LINE
  8
0
 10
7.728
 11
7.197
 20
-66.586
 21
-66.473
  0
LINE
  8
0
 10
7.197
 11
6.7
 20
-66.473
 21
-66.252
  0
LINE
  8
0
 10
6.7
 11
6.26
 20
-66.252
 21
-65.932
  0
LINE
  8
0
 10
6.26
 11
5.897
 20
-65.932
 21
-65.528
  0
LINE
  8
0
 10
5.897
 11
5.625
 20
-65.528
 21
-65.058
  0
LINE
  8
0
 10
5.625
 11
5.457
 20
-65.058
 21
-64.541
  0
LINE
  8
0
 10
5.457
 11
5.4
 20
-64.541
 21
-64
  0
LINE
  8
0
 10
5.4
 11
5.457
 20
80
 21
80.541
  0
LINE
  8
0
 10
5.457
 11
5.625
 20
80.541
 21
81.058
  0
LINE
  8
0
 10
5.625
 11
5.897
 20
81.058
 21
81.528
  0
LINE
  8
0
 10
5.897
 11
6.26
 20
81.528
 21
81.932
  0
LINE
  8
0
 10
6.26
 11
6.7
 20
81.932
 21
82.252
  0
LINE
  8
0
 10
6.7
 11
7.197
 20
82.252
 21
82.473
  0
LINE
  8
0
 10
7.197
 11
7.728
 20
82.473
 21
82.586
  0
LINE
  8
0
 10
7.728
 11
8.272
 20
82.586
 21
82.586
  0
LINE
  8
0
 10
8.272
 11
8.803
 20
82.586
 21
82.473
  0
LINE
  8
0
 10
8.803
 11
9.3
 20
82.473
 21
82.252
  0
LINE
  8
0
 10
9.3
 11
9.74
 20
82.252
 21
81.932
  0
LINE
  8
0
 10
9.74
 11
10.103
 20
81.932
 21
81.528
  0
LINE
  8
0
 10
10.103
 11
10.375
 20
81.528
 21
81.058
  0
LINE
  8
0
 10
10.375
 11
10.543
 20
81.058
 21
80.541
  0
LINE
  8
0
 10
10.543
 11
10.6
 20
80.541
 21
80
  0
LINE
  8
0
 10
10.6
 11
10.543
 20
80
 21
79.459
  0
LINE
  8
0
 10
10.543
 11
10.375
 20
79.459
 21
78.942
  0
LINE
  8
0
 10
10.375
 11
10.103
 20
78.942
 21
78.472
  0
LINE
  8
0
 10
10.103
 11
9.74
 20
78.472
 21
78.068
  0
LINE
  8
0
 10
9.74
 11
9.3
 20
78.068
 21
77.748
  0
LINE
  8
0
 10
9.3
 11
8.803
 20
77.748
 21
77.527
  0
LINE
  8
0
 10
8.803
 11
8.272
 20
77.527
 21
77.414
  0
LINE
  8
0
 10
8.272
 11
7.728
 20
77.414
 21
77.414
  0
LINE
  8
0
 10
7.728
 11
7.197
 20
77.414
 21
77.527
  0
LINE
  8
0
 10
7.197
 11
6.7
 20
77.527
 21
77.748
  0
LINE
  8
0
 10
6.7
 11
6.26
 20
77.748
 21
78.068
  0
LINE
  8
0
 10
6.26
 11
5.897
 20
78.068
 21
78.472
  0
LINE
  8
0
 10
5.897
 11
5.625
 20
78.472
 21
78.942
  0
LINE
  8
0
 10
5.625
 11
5.457
 20
78.942
 21
79.459
  0
LINE
  8
0
 10
5.457
 11
5.4
 20
79.459
 21
80
  0
LINE
  8
0
 10
13.4
 11
13.457
 20
-64
 21
-63.459
  0
LINE
  8
0
 10
13.457
 11
13.625
 20
-63.459
 21
-62.942
  0
LINE
  8
0
 10
13.625
 11
13.897
 20
-62.942
 21
-62.472
  0
LINE
  8
0
 10
13.897
 11
14.26
 20
-62.472
 21
-62.068
  0
LINE
  8
0
 10
14.26
 11
14.7
 20
-62.068
 21
-61.748
  0
LINE
  8
0
 10
14.7
 11
15.197
 20
-61.748
 21
-61.527
  0
LINE
  8
0
 10
15.197
 11
15.728
 20
-61.527
 21
-61.414
  0
LINE
  8
0
 10
15.728
 11
16.272
 20
-61.414
 21
-61.414
  0
LINE
  8
0
 10
16.272
 11
16.803
 20
-61.414
 21
-61.527
  0
LINE
  8
0
 10
16.803
 11
17.3
 20
-61.527
 21
-61.748
  0
LINE
  8
0
 10
17.3
 11
17.74
 20
-61.748
 21
-62.068
  0
LINE
  8
0
 10
17.74
 11
18.103
 20
-62.068
 21
-62.472
  0
LINE
  8
0
 10
18.103
 11
18.375
 20
-62.472
 21
-62.942
  0
LINE
  8
0
 10
18.375
 11
18.543
 20
-62.942
 21
-63.459
  0
LINE
  8
0
 10
18.543
 11
18.6
 20
-63.459
 21
-64
  0
LINE
  8
0
 10
18.6
 11
18.543
 20
-64
 21
-64.541
  0
LINE
  8
0
 10
18.543
 11
18.375
 20
-64.541
 21
-65.058
  0
LINE
  8
0
 10
18.375
 11
18.103
 20
-65.058
 21
-65.528
  0
LINE
  8
0
 10
18.103
 11
17.74
 20
-65.528
 21
-65.932
  0
LINE
  8
0
 10
17.74
 11
17.3
 20
-65.932
 21
-66.252
  0
LINE
  8
0
 10
17.3
 11
16.803
 20
-66.252
 21
-66.473
  0
LINE
  8
0
 10
16.803
 11
16.272
 20
-66.473
 21
-66.586
  0
LINE
  8
0
 10
16.272
 11
15.728
 20
-66.586
 21
-66.586
  0
LINE
  8
0
 10
15.728
 11
15.197
 20
-66.586
 21
-66.473
  0
LINE
  8
0
 10
15.197
 11
14.7
 20
-66.473
 21
-66.252
  0
LINE
  8
0
 10
14.7
 11
14.26
 20
-66.252
 21
-65.932
  0
LINE
  8
0
 10
14.26
 11
13.897
 20
-65.932
 21
-65.528
  0
LINE
  8
0
 10
13.897
 11
13.625
 20
-65.528
 21
-65.058
  0
LINE
  8
0
 10
13.625
 11
13.457
 20
-65.058
 21
-64.541
  0
LINE
  8
0
 10
13.457
 11
13.4
 20
-64.541
 21
-64
  0
LINE
  8
0
 10
13.4
 11
13.457
 20
80
 21
80.541
  0
LINE
  8
0
 10
13.457
 11
13.625
 20
80.541
 21
81.058
  0
LINE
  8
0
 10
13.625
 11
13.897
 20
81.058
 21
81.528
  0
LINE
  8
0
 10
13.897
 11
14.26
 20
81.528
 21
81.932
  0
LINE
  8
0
 10
14.26
 11
14.7
 20
81.932
 21
82.252
  0
LINE
  8
0
 10
14.7
 11
15.197
 20
82.252
 21
82.473
  0
LINE
  8
0
 10
15.197
 11
15.728
 20
82.473
 21
82.586
  0
LINE
  8
0
 10
15.728
 11
16.272
 20
82.586
 21
82.586
  0
LINE
  8
0
 10
16.272
 11
16.803
 20
82.586
 21
82.473
  0
LINE
  8
0
 10
16.803
 11
17.3
 20
82.473
 21
82.252
  0
LINE
  8
0
 10
17.3
 11
17.74
 20
82.252
 21
81.932
  0
LINE
  8
0
 10
17.74
 11
18.103
 20
81.932
 21
81.528
  0
LINE
  8
0
 10
18.103
 11
18.375
 20
81.528
 21
81.058
  0
LINE
  8
0
 10
18.375
 11
18.543
 20
81.058
 21
80.541
  0
LINE
  8
0
 10
18.543
 11
18.6
 20
80.541
 21
80
  0
LINE
  8
0
 10
18.6
 11
18.543
 20
80
 21
79.459
  0
LINE
  8
0
 10
18.543
 11
18.375
 20
79.459
 21
78.942
  0
LINE
  8
0
 10
18.375
 11
18.103
 20
78.942
 21
78.472
  0
LINE
  8
0
 10
18.103
 11
17.74
 20
78.472
 21
78.068
  0
LINE
  8
0
 10
17.74
 11
17.3
 20
78.068
 21
77.748
  0
LINE
  8
0
 10
17.3
 11
16.803
 20
77.748
 21
77.527
  0
LINE
  8
0
 10
16.803
 11
16.272
 20
77.527
 21
77.414
  0
LINE
  8
0
 10
16.272
 11
15.728
 20
77.414
 21
77.414
  0
LINE
  8
0
 10
15.728
 11
15.197
 20
77.414
 21
77.527
  0
LINE
  8
0
 10
15.197
 11
14.7
 20
77.527
 21
77.748
  0
LINE
  8
0
 10
14.7
 11
14.26
 20
77.748
 21
78.068
  0
LINE
  8
0
 10
14.26
 11
13.897
 20
78.068
 21
78.472
  0
LINE
  8
0
 10
13.897
 11
13.625
 20
78.472
 21
78.942
  0
LINE
  8
0
 10
13.625
 11
13.457
 20
78.942
 21
79.459
  0
LINE
  8
0
 10
13.457
 11
13.4
 20
79.459
 21
80
  0
LINE
  8
0
 10
21.4
 11
21.457
 20
-64
 21
-63.459
  0
LINE
  8
0
 10
21.457
 11
21.625
 20
-63.459
 21
-62.942
  0
LINE
  8
0
 10
21.625
 11
21.897
 20
-62.942
 21
-62.472
  0
LINE
  8
0
 10
21.897
 11
22.26
 20
-62.472
 21
-62.068
  0
LINE
  8
0
 10
22.26
 11
22.7
 20
-62.068
 21
-61.748
  0
LINE
  8
0
 10
22.7
 11
23.197
 20
-61.748
 21
-61.527
  0
LINE
  8
0
 10
23.197
 11
23.728
 20
-61.527
 21
-61.414
  0
LINE
  8
0
 10
23.728
 11
24.272
 20
-61.414
 21
-61.414
  0
LINE
  8
0
 10
24.272
 11
24.803
 20
-61.414
 21
-61.527
  0
LINE
  8
0
 10
24.803
 11
25.3
 20
-61.527
 21
-61.748
  0
LINE
  8
0
 10
25.3
 11
25.74
 20
-61.748
 21
-62.068
  0
LINE
  8
0
 10
25.74
 11
26.103
 20
-62.068
 21
-62.472
  0
LINE
  8
0
 10
26.103
 11
26.375
 20
-62.472
 21
-62.942
  0
LINE
  8
0
 10
26.375
 11
26.543
 20
-62.942
 21
-63.459
  0
LINE
  8
0
 10
26.543
 11
26.6
 20
-63.459
 21
-64
  0
LINE
  8
0
 10
26.6
 11
26.543
 20
-64
 21
-64.541
  0
LINE
  8
0
 10
26.543
 11
26.375
 20
-64.541
 21
-65.058
  0
LINE
  8
0
 10
26.375
 11
26.103
 20
-65.058
 21
-65.528
  0
LINE
  8
0
 10
26.103
 11
25.74
 20
-65.528
 21
-65.932
  0
LINE
  8
0
 10
25.74
 11
25.3
 20
-65.932
 21
-66.252
  0
LINE
  8
0
 10
25.3
 11
24.803
 20
-66.252
 21
-66.473
  0
LINE
  8
0
 10
24.803
 11
24.272
 20
-66.473
 21
-66.586
  0
LINE
  8
0
 10
24.272
 11
23.728
 20
-66.586
 21
-66.586
  0
LINE
  8
0
 10
23.728
 11
23.197
 20
-66.586
 21
-66.473
  0
LINE
  8
0
 10
23.197
 11
22.7
 20
-66.473
 21
-66.252
  0
LINE
  8
0
 10
22.7
 11
22.26
 20
-66.252
 21
-65.932
  0
LINE
  8
0
 10
22.26
 11
21.897
 20
-65.932
 21
-65.528
  0
LINE
  8
0
 10
21.897
 11
21.625
 20
-65.528
 21
-65.058
  0
LINE
  8
0
 10
21.625
 11
21.457
 20
-65.058
 21
-64.541
  0
LINE
  8
0
 10
21.457
 11
21.4
 20
-64.541
 21
-64
  0
LINE
  8
0
 10
21.4
 11
21.457
 20
80
 21
80.541
  0
LINE
  8
0
 10
21.457
 11
21.625
 20
80.541
 21
81.058
  0
LINE
  8
0
 10
21.625
 11
21.897
 20
81.058
 21
81.528
  0
LINE
  8
0
 10
21.897
 11
22.26
 20
81.528
 21
81.932
  0
LINE
  8
0
 10
22.26
 11
22.7
 20
81.932
 21
82.252
  0
LINE
  8
0
 10
22.7
 11
23.197
 20
82.252
 21
82.473
  0
LINE
  8
0
 10
23.197
 11
23.728
 20
82.473
 21
82.586
  0
LINE
  8
0
 10
23.728
 11
24.272
 20
82.586
 21
82.586
  0
LINE
  8
0
 10
24.272
 11
24.803
 20
82.586
 21
82.473
  0
LINE
  8
0
 10
24.803
 11
25.3
 20
82.473
 21
82.252
  0
LINE
  8
0
 10
25.3
 11
25.74
 20
82.252
 21
81.932
  0
LINE
  8
0
 10
25.74
 11
26.103
 20
81.932
 21
81.528
  0
LINE
  8
0
 10
26.103
 11
26.375
 20
81.528
 21
81.058
  0
LINE
  8
0
 10
26.375
 11
26.543
 20
81.058
 21
80.541
  0
LINE
  8
0
 10
26.543
 11
26.6
 20
80.541
 21
80
  0
LINE
  8
0
 10
26.6
 11
26.543
 20
80
 21
79.459
  0
LINE
  8
0
 10
26.543
 11
26.375
 20
79.459
 21
78.942
  0
LINE
  8
0
 10
26.375
 11
26.103
 20
78.942
 21
78.472
  0
LINE
  8
0
 10
26.103
 11
25.74
 20
78.472
 21
78.068
  0
LINE
  8
0
 10
25.74
 11
25.3
 20
78.068
 21
77.748
  0
LINE
  8
0
 10
25.3
 11
24.803
 20
77.748
 21
77.527
  0
LINE
  8
0
 10
24.803
 11
24.272
 20
77.527
 21
77.414
  0
LINE
  8
0
 10
24.272
 11
23.728
 20
77.414
 21
77.414
  0
LINE
  8
0
 10
23.728
 11
23.197
 20
77.414
 21
77.527
  0
LINE
  8
0
 10
23.197
 11
22.7
 20
77.527
 21
77.748
  0
LINE
  8
0
 10
22.7
 11
22.26
 20
77.748
 21
78.068
  0
LINE
  8
0
 10
22.26
 11
21.897
 20
78.068
 21
78.472
  0
LINE
  8
0
 10
21.897
 11
21.625
 20
78.472
 21
78.942
  0
LINE
  8
0
 10
21.625
 11
21.457
 20
78.942
 21
79.459
  0
LINE
  8
0
 10
21.457
 11
21.4
 20
79.459
 21
80
  0
LINE
  8
0
 10
29.4
 11
29.457
 20
-64
 21
-63.459
  0
LINE
  8
0
 10
29.457
 11
29.625
 20
-63.459
 21
-62.942
  0
LINE
  8
0
 10
29.625
 11
29.897
 20
-62.942
 21
-62.472
  0
LINE
  8
0
 10
29.897
 11
30.26
 20
-62.472
 21
-62.068
  0
LINE
  8
0
 10
30.26
 11
30.7
 20
-62.068
 21
-61.748
  0
LINE
  8
0
 10
30.7
 11
31.197
 20
-61.748
 21
-61.527
  0
LINE
  8
0
 10
31.197
 11
31.728
 20
-61.527
 21
-61.414
  0
LINE
  8
0
 10
31.728
 11
32.272
 20
-61.414
 21
-61.414
  0
LINE
  8
0
 10
32.272
 11
32.803
 20
-61.414
 21
-61.527
  0
LINE
  8
0
 10
32.803
 11
33.3
 20
-61.527
 21
-61.748
  0
LINE
  8
0
 10
33.3
 11
33.74
 20
-61.748
 21
-62.068
  0
LINE
  8
0
 10
33.74
 11
34.103
 20
-62.068
 21
-62.472
  0
LINE
  8
0
 10
34.103
 11
34.375
 20
-62.472
 21
-62.942
  0
LINE
  8
0
 10
34.375
 11
34.543
 20
-62.942
 21
-63.459
  0
LINE
  8
0
 10
34.543
 11
34.6
 20
-63.459
 21
-64
  0
LINE
  8
0
 10
34.6
 11
34.543
 20
-64
 21
-64.541
  0
LINE
  8
0
 10
34.543
 11
34.375
 20
-64.541
 21
-65.058
  0
LINE
  8
0
 10
34.375
 11
34.103
 20
-65.058
 21
-65.528
  0
LINE
  8
0
 10
34.103
 11
33.74
 20
-65.528
 21
-65.932
  0
LINE
  8
0
 10
33.74
 11
33.3
 20
-65.932
 21
-66.252
  0
LINE
  8
0
 10
33.3
 11
32.803
 20
-66.252
 21
-66.473
  0
LINE
  8
0
 10
32.803
 11
32.272
 20
-66.473
 21
-66.586
  0
LINE
  8
0
 10
32.272
 11
31.728
 20
-66.586
 21
-66.586
  0
LINE
  8
0
 10
31.728
 11
31.197
 20
-66.586
 21
-66.473
  0
LINE
  8
0
 10
31.197
 11
30.7
 20
-66.473
 21
-66.252
  0
LINE
  8
0
 10
30.7
 11
30.26
 20
-66.252
 21
-65.932
  0
LINE
  8
0
 10
30.26
 11
29.897
 20
-65.932
 21
-65.528
  0
LINE
  8
0
 10
29.897
 11
29.625
 20
-65.528
 21
-65.058
  0
LINE
  8
0
 10
29.625
 11
29.457
 20
-65.058
 21
-64.541
  0
LINE
  8
0
 10
29.457
 11
29.4
 20
-64.541
 21
-64
  0
LINE
  8
0
 10
29.4
 11
29.457
 20
80
 21
80.541
  0
LINE
  8
0
 10
29.457
 11
29.625
 20
80.541
 21
81.058
  0
LINE
  8
0
 10
29.625
 11
29.897
 20
81.058
 21
81.528
  0
LINE
  8
0
 10
29.897
 11
30.26
 20
81.528
 21
81.932
  0
LINE
  8
0
 10
30.26
 11
30.7
 20
81.932
 21
82.252
  0
LINE
  8
0
 10
30.7
 11
31.197
 20
82.252
 21
82.473
  0
LINE
  8
0
 10
31.197
 11
31.728
 20
82.473
 21
82.586
  0
LINE
  8
0
 10
31.728
 11
32.272
 20
82.586
 21
82.586
  0
LINE
  8
0
 10
32.272
 11
32.803
 20
82.586
 21
82.473
  0
LINE
  8
0
 10
32.803
 11
33.3
 20
82.473
 21
82.252
  0
LINE
  8
0
 10
33.3
 11
33.74
 20
82.252
 21
81.932
  0
LINE
  8
0
 10
33.74
 11
34.103
 20
81.932
 21
81.528
  0
LINE
  8
0
 10
34.103
 11
34.375
 20
81.528
 21
81.058
  0
LINE
  8
0
 10
34.375
 11
34.543
 20
81.058
 21
80.541
  0
LINE
  8
0
 10
34.543
 11
34.6
 20
80.541
 21
80
  0
LINE
  8
0
 10
34.6
 11
34.543
 20
80
 21
79.459
  0
LINE
  8
0
 10
34.543
 11
34.375
 20
79.459
 21
78.942
  0
LINE
  8
0
 10
34.375
 11
34.103
 20
78.942
 21
78.472
  0
LINE
  8
0
 10
34.103
 11
33.74
 20
78.472
 21
78.068
  0
LINE
  8
0
 10
33.74
 11
33.3
 20
78.068
 21
77.748
  0
LINE
  8
0
 10
33.3
 11
32.803
 20
77.748
 21
77.527
  0
LINE
  8
0
 10
32.803
 11
32.272
 20
77.527
 21
77.414
  0
LINE
  8
0
 10
32.272
 11
31.728
 20
77.414
 21
77.414
  0
LINE
  8
0
 10
31.728
 11
31.197
 20
77.414
 21
77.527
  0
LINE
  8
0
 10
31.197
 11
30.7
 20
77.527
 21
77.748
  0
LINE
  8
0
 10
30.7
 11
30.26
 20
77.748
 21
78.068
  0
LINE
  8
0
 10
30.26
 11
29.897
 20
78.068
 21
78.472
  0
LINE
  8
0
 10
29.897
 11
29.625
 20
78.472
 21
78.942
  0
LINE
  8
0
 10
29.625
 11
29.457
 20
78.942
 21
79.459
  0
LINE
  8
0
 10
29.457
 11
29.4
 20
79.459
 21
80
  0
LINE
  8
0
 10
37.414
 11
37.414
 20
-56.272
 21
-55.728
  0
LINE
  8
0
 10
37.414
 11
37.527
 20
-55.728
 21
-55.197
  0
LINE
  8
0
 10
37.527
 11
37.748
 20
-55.197
 21
-54.7
  0
LINE
  8
0
 10
37.748
 11
38.068
 20
-54.7
 21
-54.26
  0
LINE
  8
0
 10
38.068
 11
38.472
 20
-54.26
 21
-53.897
  0
LINE
  8
0
 10
38.472
 11
38.942
 20
-53.897
 21
-53.625
  0
LINE
  8
0
 10
38.942
 11
39.459
 20
-53.625
 21
-53.457
  0
LINE
  8
0
 10
39.459
 11
40
 20
-53.457
 21
-53.4
  0
LINE
  8
0
 10
40
 11
40.541
 20
-53.4
 21
-53.457
  0
LINE
  8
0
 10
40.541
 11
41.058
 20
-53.457
 21
-53.625
  0
LINE
  8
0
 10
41.058
 11
41.528
 20
-53.625
 21
-53.897
  0
LINE
  8
0
 10
41.528
 11
41.932
 20
-53.897
 21
-54.26
  0
LINE
  8
0
 10
41.932
 11
42.252
 20
-54.26
 21
-54.7
  0
LINE
  8
0
 10
42.252
 11
42.473
 20
-54.7
 21
-55.197
  0
LINE
  8
0
 10
42.473
 11
42.586
 20
-55.197
 21
-55.728
  0
LINE
  8
0
 10
42.586
 11
42.586
 20
-55.728
 21
-56.272
  0
LINE
  8
0
 10
42.586
 11
42.473
 20
-56.272
 21
-56.803
  0
LINE
  8
0
 10
42.473
 11
42.252
 20
-56.803
 21
-57.3
  0
LINE
  8
0
 10
42.252
 11
41.932
 20
-57.3
 21
-57.74
  0
LINE
  8
0
 10
41.932
 11
41.528
 20
-57.74
 21
-58.103
  0
LINE
  8
0
 10
41.528
 11
41.058
 20
-58.103
 21
-58.375
  0
LINE
  8
0
 10
41.058
 11
40.541
 20
-58.375
 21
-58.543
  0
LINE
  8
0
 10
40.541
 11
40
 20
-58.543
 21
-58.6
  0
LINE
  8
0
 10
40
 11
39.459
 20
-58.6
 21
-58.543
  0
LINE
  8
0
 10
39.459
 11
38.942
 20
-58.543
 21
-58.375
  0
LINE
  8
0
 10
38.942
 11
38.472
 20
-58.375
 21
-58.103
  0
LINE
  8
0
 10
38.472
 11
38.068
 20
-58.103
 21
-57.74
  0
LINE
  8
0
 10
38.068
 11
37.748
 20
-57.74
 21
-57.3
  0
LINE
  8
0
 10
37.748
 11
37.527
 20
-57.3
 21
-56.803
  0
LINE
  8
0
 10
37.527
 11
37.414
 20
-56.803
 21
-56.272
  0
LINE
  8
0
 10
37.414
 11
37.414
 20
-48.272
 21
-47.728
  0
LINE
  8
0
 10
37.414
 11
37.527
 20
-47.728
 21
-47.197
  0
LINE
  8
0
 10
37.527
 11
37.748
 20
-47.197
 21
-46.7
  0
LINE
  8
0
 10
37.748
 11
38.068
 20
-46.7
 21
-46.26
  0
LINE
  8
0
 10
38.068
 11
38.472
 20
-46.26
 21
-45.897
  0
LINE
  8
0
 10
38.472
 11
38.942
 20
-45.897
 21
-45.625
  0
LINE
  8
0
 10
38.942
 11
39.459
 20
-45.625
 21
-45.457
  0
LINE
  8
0
 10
39.459
 11
40
 20
-45.457
 21
-45.4
  0
LINE
  8
0
 10
40
 11
40.541
 20
-45.4
 21
-45.457
  0
LINE
  8
0
 10
40.541
 11
41.058
 20
-45.457
 21
-45.625
  0
LINE
  8
0
 10
41.058
 11
41.528
 20
-45.625
 21
-45.897
  0
LINE
  8
0
 10
41.528
 11
41.932
 20
-45.897
 21
-46.26
  0
LINE
  8
0
 10
41.932
 11
42.252
 20
-46.26
 21
-46.7
  0
LINE
  8
0
 10
42.252
 11
42.473
 20
-46.7
 21
-47.197
  0
LINE
  8
0
 10
42.473
 11
42.586
 20
-47.197
 21
-47.728
  0
LINE
  8
0
 10
42.586
 11
42.586
 20
-47.728
 21
-48.272
  0
LINE
  8
0
 10
42.586
 11
42.473
 20
-48.272
 21
-48.803
  0
LINE
  8
0
 10
42.473
 11
42.252
 20
-48.803
 21
-49.3
  0
LINE
  8
0
 10
42.252
 11
41.932
 20
-49.3
 21
-49.74
  0
LINE
  8
0
 10
41.932
 11
41.528
 20
-49.74
 21
-50.103
  0
LINE
  8
0
 10
41.528
 11
41.058
 20
-50.103
 21
-50.375
  0
LINE
  8
0
 10
41.058
 11
40.541
 20
-50.375
 21
-50.543
  0
LINE
  8
0
 10
40.541
 11
40
 20
-50.543
 21
-50.6
  0
LINE
  8
0
 10
40
 11
39.459
 20
-50.6
 21
-50.543
  0
LINE
  8
0
 10
39.459
 11
38.942
 20
-50.543
 21
-50.375
  0
LINE
  8
0
 10
38.942
 11
38.472
 20
-50.375
 21
-50.103
  0
LINE
  8
0
 10
38.472
 11
38.068
 20
-50.103
 21
-49.74
  0
LINE
  8
0
 10
38.068
 11
37.748
 20
-49.74
 21
-49.3
  0
LINE
  8
0
 10
37.748
 11
37.527
 20
-49.3
 21
-48.803
  0
LINE
  8
0
 10
37.527
 11
37.414
 20
-48.803
 21
-48.272
  0
LINE
  8
0
 10
37.414
 11
37.414
 20
-40.272
 21
-39.728
  0
LINE
  8
0
 10
37.414
 11
37.527
 20
-39.728
 21
-39.197
  0
LINE
  8
0
 10
37.527
 11
37.748
 20
-39.197
 21
-38.7
  0
LINE
  8
0
 10
37.748
 11
38.068
 20
-38.7
 21
-38.26
  0
LINE
  8
0
 10
38.068
 11
38.472
 20
-38.26
 21
-37.897
  0
LINE
  8
0
 10
38.472
 11
38.942
 20
-37.897
 21
-37.625
  0
LINE
  8
0
 10
38.942
 11
39.459
 20
-37.625
 21
-37.457
  0
LINE
  8
0
 10
39.459
 11
40
 20
-37.457
 21
-37.4
  0
LINE
  8
0
 10
40
 11
40.541
 20
-37.4
 21
-37.457
  0
LINE
  8
0
 10
40.541
 11
41.058
 20
-37.457
 21
-37.625
  0
LINE
  8
0
 10
41.058
 11
41.528
 20
-37.625
 21
-37.897
  0
LINE
  8
0
 10
41.528
 11
41.932
 20
-37.897
 21
-38.26
  0
LINE
  8
0
 10
41.932
 11
42.252
 20
-38.26
 21
-38.7
  0
LINE
  8
0
 10
42.252
 11
42.473
 20
-38.7
 21
-39.197
  0
LINE
  8
0
 10
42.473
 11
42.586
 20
-39.197
 21
-39.728
  0
LINE
  8
0
 10
42.586
 11
42.586
 20
-39.728
 21
-40.272
  0
LINE
  8
0
 10
42.586
 11
42.473
 20
-40.272
 21
-40.803
  0
LINE
  8
0
 10
42.473
 11
42.252
 20
-40.803
 21
-41.3
  0
LINE
  8
0
 10
42.252
 11
41.932
 20
-41.3
 21
-41.74
  0
LINE
  8
0
 10
41.932
 11
41.528
 20
-41.74
 21
-42.103
  0
LINE
  8
0
 10
41.528
 11
41.058
 20
-42.103
 21
-42.375
  0
LINE
  8
0
 10
41.058
 11
40.541
 20
-42.375
 21
-42.543
  0
LINE
  8
0
 10
40.541
 11
40
 20
-42.543
 21
-42.6
  0
LINE
  8
0
 10
40
 11
39.459
 20
-42.6
 21
-42.543
  0
LINE
  8
0
 10
39.459
 11
38.942
 20
-42.543
 21
-42.375
  0
LINE
  8
0
 10
38.942
 11
38.472
 20
-42.375
 21
-42.103
  0
LINE
  8
0
 10
38.472
 11
38.068
 20
-42.103
 21
-41.74
  0
LINE
  8
0
 10
38.068
 11
37.748
 20
-41.74
 21
-41.3
  0
LINE
  8
0
 10
37.748
 11
37.527
 20
-41.3
 21
-40.803
  0
LINE
  8
0
 10
37.527
 11
37.414
 20
-40.803
 21
-40.272
  0
LINE
  8
0
 10
37.414
 11
37.414
 20
-32.272
 21
-31.728
  0
LINE
  8
0
 10
37.414
 11
37.527
 20
-31.728
 21
-31.197
  0
LINE
  8
0
 10
37.527
 11
37.748
 20
-31.197
 21
-30.7
  0
LINE
  8
0
 10
37.748
 11
38.068
 20
-30.7
 21
-30.26
  0
LINE
  8
0
 10
38.068
 11
38.472
 20
-30.26
 21
-29.897
  0
LINE
  8
0
 10
38.472
 11
38.942
 20
-29.897
 21
-29.625
  0
LINE
  8
0
 10
38.942
 11
39.459
 20
-29.625
 21
-29.457
  0
LINE
  8
0
 10
39.459
 11
40
 20
-29.457
 21
-29.4
  0
LINE
  8
0
 10
40
 11
40.541
 20
-29.4
 21
-29.457
  0
LINE
  8
0
 10
40.541
 11
41.058
 20
-29.457
 21
-29.625
  0
LINE
  8
0
 10
41.058
 11
41.528
 20
-29.625
 21
-29.897
  0
LINE
  8
0
 10
41.528
 11
41.932
 20
-29.897
 21
-30.26
  0
LINE
  8
0
 10
41.932
 11
42.252
 20
-30.26
 21
-30.7
  0
LINE
  8
0
 10
42.252
 11
42.473
 20
-30.7
 21
-31.197
  0
LINE
  8
0
 10
42.473
 11
42.586
 20
-31.197
 21
-31.728
  0
LINE
  8
0
 10
42.586
 11
42.586
 20
-31.728
 21
-32.272
  0
LINE
  8
0
 10
42.586
 11
42.473
 20
-32.272
 21
-32.803
  0
LINE
  8
0
 10
42.473
 11
42.252
 20
-32.803
 21
-33.3
  0
LINE
  8
0
 10
42.252
 11
41.932
 20
-33.3
 21
-33.74
  0
LINE
  8
0
 10
41.932
 11
41.528
 20
-33.74
 21
-34.103
  0
LINE
  8
0
 10
41.528
 11
41.058
 20
-34.103
 21
-34.375
  0
LINE
  8
0
 10
41.058
 11
40.541
 20
-34.375
 21
-34.543
  0
LINE
  8
0
 10
40.541
 11
40
 20
-34.543
 21
-34.6
  0
LINE
  8
0
 10
40
 11
39.459
 20
-34.6
 21
-34.543
  0
LINE
  8
0
 10
39.459
 11
38.942
 20
-34.543
 21
-34.375
  0
LINE
  8
0
 10
38.942
 11
38.472
 20
-34.375
 21
-34.103
  0
LINE
  8
0
 10
38.472
 11
38.068
 20
-34.103
 21
-33.74
  0
LINE
  8
0
 10
38.068
 11
37.748
 20
-33.74
 21
-33.3
  0
LINE
  8
0
 10
37.748
 11
37.527
 20
-33.3
 21
-32.803
  0
LINE
  8
0
 10
37.527
 11
37.414
 20
-32.803
 21
-32.272
  0
LINE
  8
0
 10
37.414
 11
37.414
 20
-24.272
 21
-23.728
  0
LINE
  8
0
 10
37.414
 11
37.527
 20
-23.728
 21
-23.197
  0
LINE
  8
0
 10
37.527
 11
37.748
 20
-23.197
 21
-22.7
  0
LINE
  8
0
 10
37.748
 11
38.068
 20
-22.7
 21
-22.26
  0
LINE
  8
0
 10
38.068
 11
38.472
 20
-22.26
 21
-21.897
  0
LINE
  8
0
 10
38.472
 11
38.942
 20
-21.897
 21
-21.625
  0
LINE
  8
0
 10
38.942
 11
39.459
 20
-21.625
 21
-21.457
  0
LINE
  8
0
 10
39.459
 11
40
 20
-21.457
 21
-21.4
  0
LINE
  8
0
 10
40
 11
40.541
 20
-21.4
 21
-21.457
  0
LINE
  8
0
 10
40.541
 11
41.058
 20
-21.457
 21
-21.625
  0
LINE
  8
0
 10
41.058
 11
41.528
 20
-21.625
 21
-21.897
  0
LINE
  8
0
 10
41.528
 11
41.932
 20
-21.897
 21
-22.26
  0
LINE
  8
0
 10
41.932
 11
42.252
 20
-22.26
 21
-22.7
  0
LINE
  8
0
 10
42.252
 11
42.473
 20
-22.7
 21
-23.197
  0
LINE
  8
0
 10
42.473
 11
42.586
 20
-23.197
 21
-23.728
  0
LINE
  8
0
 10
42.586
 11
42.586
 20
-23.728
 21
-24.272
  0
LINE
  8
0
 10
42.586
 11
42.473
 20
-24.272
 21
-24.803
  0
LINE
  8
0
 10
42.473
 11
42.252
 20
-24.803
 21
-25.3
  0
LINE
  8
0
 10
42.252
 11
41.932
 20
-25.3
 21
-25.74
  0
LINE
  8
0
 10
41.932
 11
41.528
 20
-25.74
 21
-26.103
  0
LINE
  8
0
 10
41.528
 11
41.058
 20
-26.103
 21
-26.375
  0
LINE
  8
0
 10
41.058
 11
40.541
 20
-26.375
 21
-26.543
  0
LINE
  8
0
 10
40.541
 11
40
 20
-26.543
 21
-26.6
  0
LINE
  8
0
 10
40
 11
39.459
 20
-26.6
 21
-26.543
  0
LINE
  8
0
 10
39.459
 11
38.942
 20
-26.543
 21
-26.375
  0
LINE
  8
0
 10
38.942
 11
38.472
 20
-26.375
 21
-26.103
  0
LINE
  8
0
 10
38.472
 11
38.068
 20
-26.103
 21
-25.74
  0
LINE
  8
0
 10
38.068
 11
37.748
 20
-25.74
 21
-25.3
  0
LINE
  8
0
 10
37.748
 11
37.527
 20
-25.3
 21
-24.803
  0
LINE
  8
0
 10
37.527
 11
37.414
 20
-24.803
 21
-24.272
  0
LINE
  8
0
 10
37.414
 11
37.414
 20
-16.272
 21
-15.728
  0
LINE
  8
0
 10
37.414
 11
37.527
 20
-15.728
 21
-15.197
  0
LINE
  8
0
 10
37.527
 11
37.748
 20
-15.197
 21
-14.7
  0
LINE
  8
0
 10
37.748
 11
38.068
 20
-14.7
 21
-14.26
  0
LINE
  8
0
 10
38.068
 11
38.472
 20
-14.26
 21
-13.897
  0
LINE
  8
0
 10
38.472
 11
38.942
 20
-13.897
 21
-13.625
  0
LINE
  8
0
 10
38.942
 11
39.459
 20
-13.625
 21
-13.457
  0
LINE
  8
0
 10
39.459
 11
40
 20
-13.457
 21
-13.4
  0
LINE
  8
0
 10
40
 11
40.541
 20
-13.4
 21
-13.457
  0
LINE
  8
0
 10
40.541
 11
41.058
 20
-13.457
 21
-13.625
  0
LINE
  8
0
 10
41.058
 11
41.528
 20
-13.625
 21
-13.897
  0
LINE
  8
0
 10
41.528
 11
41.932
 20
-13.897
 21
-14.26
  0
LINE
  8
0
 10
41.932
 11
42.252
 20
-14.26
 21
-14.7
  0
LINE
  8
0
 10
42.252
 11
42.473
 20
-14.7
 21
-15.197
  0
LINE
  8
0
 10
42.473
 11
42.586
 20
-15.197
 21
-15.728
  0
LINE
  8
0
 10
42.586
 11
42.586
 20
-15.728
 21
-16.272
  0
LINE
  8
0
 10
42.586
 11
42.473
 20
-16.272
 21
-16.803
  0
LINE
  8
0
 10
42.473
 11
42.252
 20
-16.803
 21
-17.3
  0
LINE
  8
0
 10
42.252
 11
41.932
 20
-17.3
 21
-17.74
  0
LINE
  8
0
 10
41.932
 11
41.528
 20
-17.74
 21
-18.103
  0
LINE
  8
0
 10
41.528
 11
41.058
 20
-18.103
 21
-18.375
  0
LINE
  8
0
 10
41.058
 11
40.541
 20
-18.375
 21
-18.543
  0
LINE
  8
0
 10
40.541
 11
40
 20
-18.543
 21
-18.6
  0
LINE
  8
0
 10
40
 11
39.459
 20
-18.6
 21
-18.543
  0
LINE
  8
0
 10
39.459
 11
38.942
 20
-18.543
 21
-18.375
  0
LINE
  8
0
 10
38.942
 11
38.472
 20
-18.375
 21
-18.103
  0
LINE
  8
0
 10
38.472
 11
38.068
 20
-18.103
 21
-17.74
  0
LINE
  8
0
 10
38.068
 11
37.748
 20
-17.74
 21
-17.3
  0
LINE
  8
0
 10
37.748
 11
37.527
 20
-17.3
 21
-16.803
  0
LINE
  8
0
 10
37.527
 11
37.414
 20
-16.803
 21
-16.272
  0
LINE
  8
0
 10
37.414
 11
37.414
 20
-8.272
 21
-7.728
  0
LINE
  8
0
 10
37.414
 11
37.527
 20
-7.728
 21
-7.197
  0
LINE
  8
0
 10
37.527
 11
37.748
 20
-7.197
 21
-6.7
  0
LINE
  8
0
 10
37.748
 11
38.068
 20
-6.7
 21
-6.26
  0
LINE
  8
0
 10
38.068
 11
38.472
 20
-6.26
 21
-5.897
  0
LINE
  8
0
 10
38.472
 11
38.942
 20
-5.897
 21
-5.625
  0
LINE
  8
0
 10
38.942
 11
39.459
 20
-5.625
 21
-5.457
  0
LINE
  8
0
 10
39.459
 11
40
 20
-5.457
 21
-5.4
  0
LINE
  8
0
 10
40
 11
40.541
 20
-5.4
 21
-5.457
  0
LINE
  8
0
 10
40.541
 11
41.058
 20
-5.457
 21
-5.625
  0
LINE
  8
0
 10
41.058
 11
41.528
 20
-5.625
 21
-5.897
  0
LINE
  8
0
 10
41.528
 11
41.932
 20
-5.897
 21
-6.26
  0
LINE
  8
0
 10
41.932
 11
42.252
 20
-6.26
 21
-6.7
  0
LINE
  8
0
 10
42.252
 11
42.473
 20
-6.7
 21
-7.197
  0
LINE
  8
0
 10
42.473
 11
42.586
 20
-7.197
 21
-7.728
  0
LINE
  8
0
 10
42.586
 11
42.586
 20
-7.728
 21
-8.272
  0
LINE
  8
0
 10
42.586
 11
42.473
 20
-8.272
 21
-8.803
  0
LINE
  8
0
 10
42.473
 11
42.252
 20
-8.803
 21
-9.3
  0
LINE
  8
0
 10
42.252
 11
41.932
 20
-9.3
 21
-9.74
  0
LINE
  8
0
 10
41.932
 11
41.528
 20
-9.74
 21
-10.103
  0
LINE
  8
0
 10
41.528
 11
41.058
 20
-10.103
 21
-10.375
  0
LINE
  8
0
 10
41.058
 11
40.541
 20
-10.375
 21
-10.543
  0
LINE
  8
0
 10
40.541
 11
40
 20
-10.543
 21
-10.6
  0
LINE
  8
0
 10
40
 11
39.459
 20
-10.6
 21
-10.543
  0
LINE
  8
0
 10
39.459
 11
38.942
 20
-10.543
 21
-10.375
  0
LINE
  8
0
 10
38.942
 11
38.472
 20
-10.375
 21
-10.103
  0
LINE
  8
0
 10
38.472
 11
38.068
 20
-10.103
 21
-9.74
  0
LINE
  8
0
 10
38.068
 11
37.748
 20
-9.74
 21
-9.3
  0
LINE
  8
0
 10
37.748
 11
37.527
 20
-9.3
 21
-8.803
  0
LINE
  8
0
 10
37.527
 11
37.414
 20
-8.803
 21
-8.272
  0
LINE
  8
0
 10
37.414
 11
37.414
 20
-0.272
 21
0.272
  0
LINE
  8
0
 10
37.414
 11
37.527
 20
0.272
 21
0.803
  0
LINE
  8
0
 10
37.527
 11
37.748
 20
0.803
 21
1.3
  0
LINE
  8
0
 10
37.748
 11
38.068
 20
1.3
 21
1.74
  0
LINE
  8
0
 10
38.068
 11
38.472
 20
1.74
 21
2.103
  0
LINE
  8
0
 10
38.472
 11
38.942
 20
2.103
 21
2.375
  0
LINE
  8
0
 10
38.942
 11
39.459
 20
2.375
 21
2.543
  0
LINE
  8
0
 10
39.459
 11
40
 20
2.543
 21
2.6
  0
LINE
  8
0
 10
40
 11
40.541
 20
2.6
 21
2.543
  0
LINE
  8
0
 10
40.541
 11
41.058
 20
2.543
 21
2.375
  0
LINE
  8
0
 10
41.058
 11
41.528
 20
2.375
 21
2.103
  0
LINE
  8
0
 10
41.528
 11
41.932
 20
2.103
 21
1.74
  0
LINE
  8
0
 10
41.932
 11
42.252
 20
1.74
 21
1.3
  0
LINE
  8
0
 10
42.252
 11
42.473
 20
1.3
 21
0.803
  0
LINE
  8
0
 10
42.473
 11
42.586
 20
0.803
 21
0.272
  0
LINE
  8
0
 10
42.586
 11
42.586
 20
0.272
 21
-0.272
  0
LINE
  8
0
 10
42.586
 11
42.473
 20
-0.272
 21
-0.803
  0
LINE
  8
0
 10
42.473
 11
42.252
 20
-0.803
 21
-1.3
  0
LINE
  8
0
 10
42.252
 11
41.932
 20
-1.3
 21
-1.74
  0
LINE
  8
0
 10
41.932
 11
41.528
 20
-1.74
 21
-2.103
  0
LINE
  8
0
 10
41.528
 11
41.058
 20
-2.103
 21
-2.375
  0
LINE
  8
0
 10
41.058
 11
40.541
 20
-2.375
 21
-2.543
  0
LINE
  8
0
 10
40.541
 11
40
 20
-2.543
 21
-2.6
  0
LINE
  8
0
 10
40
 11
39.459
 20
-2.6
 21
-2.543
  0
LINE
  8
0
 10
39.459
 11
38.942
 20
-2.543
 21
-2.375
  0
LINE
  8
0
 10
38.942
 11
38.472
 20
-2.375
 21
-2.103
  0
LINE
  8
0
 10
38.472
 11
38.068
 20
-2.103
 21
-1.74
  0
LINE
  8
0
 10
38.068
 11
37.748
 20
-1.74
 21
-1.3
  0
LINE
  8
0
 10
37.748
 11
37.527
 20
-1.3
 21
-0.803
  0
LINE
  8
0
 10
37.527
 11
37.414
 20
-0.803
 21
-0.272
  0
LINE
  8
0
 10
37.414
 11
37.414
 20
7.728
 21
8.272
  0
LINE
  8
0
 10
37.414
 11
37.527
 20
8.272
 21
8.803
  0
LINE
  8
0
 10
37.527
 11
37.748
 20
8.803
 21
9.3
  0
LINE
  8
0
 10
37.748
 11
38.068
 20
9.3
 21
9.74
  0
LINE
  8
0
 10
38.068
 11
38.472
 20
9.74
 21
10.103
  0
LINE
  8
0
 10
38.472
 11
38.942
 20
10.103
 21
10.375
  0
LINE
  8
0
 10
38.942
 11
39.459
 20
10.375
 21
10.543
  0
LINE
  8
0
 10
39.459
 11
40
 20
10.543
 21
10.6
  0
LINE
  8
0
 10
40
 11
40.541
 20
10.6
 21
10.543
  0
LINE
  8
0
 10
40.541
 11
41.058
 20
10.543
 21
10.375
  0
LINE
  8
0
 10
41.058
 11
41.528
 20
10.375
 21
10.103
  0
LINE
  8
0
 10
41.528
 11
41.932
 20
10.103
 21
9.74
  0
LINE
  8
0
 10
41.932
 11
42.252
 20
9.74
 21
9.3
  0
LINE
  8
0
 10
42.252
 11
42.473
 20
9.3
 21
8.803
  0
LINE
  8
0
 10
42.473
 11
42.586
 20
8.803
 21
8.272
  0
LINE
  8
0
 10
42.586
 11
42.586
 20
8.272
 21
7.728
  0
LINE
  8
0
 10
42.586
 11
42.473
 20
7.728
 21
7.197
  0
LINE
  8
0
 10
42.473
 11
42.252
 20
7.197
 21
6.7
  0
LINE
  8
0
 10
42.252
 11
41.932
 20
6.7
 21
6.26
  0
LINE
  8
0
 10
41.932
 11
41.528
 20
6.26
 21
5.897
  0
LINE
  8
0
 10
41.528
 11
41.058
 20
5.897
 21
5.625
  0
LINE
  8
0
 10
41.058
 11
40.541
 20
5.625
 21
5.457
  0
LINE
  8
0
 10
40.541
 11
40
 20
5.457
 21
5.4
  0
LINE
  8
0
 10
40
 11
39.459
 20
5.4
 21
5.457
  0
LINE
  8
0
 10
39.459
 11
38.942
 20
5.457
 21
5.625
  0
LINE
  8
0
 10
38.942
 11
38.472
 20
5.625
 21
5.897
  0
LINE
  8
0
 10
38.472
 11
38.068
 20
5.897
 21
6.26
  0
LINE
  8
0
 10
38.068
 11
37.748
 20
6.26
 21
6.7
  0
LINE
  8
0
 10
37.748
 11
37.527
 20
6.7
 21
7.197
  0
LINE
  8
0
 10
37.527
 11
37.414
 20
7.197
 21
7.728
  0
LINE
  8
0
 10
37.414
 11
37.414
 20
15.728
 21
16.272
  0
LINE
  8
0
 10
37.414
 11
37.527
 20
16.272
 21
16.803
  0
LINE
  8
0
 10
37.527
 11
37.748
 20
16.803
 21
17.3
  0
LINE
  8
0
 10
37.748
 11
38.068
 20
17.3
 21
17.74
  0
LINE
  8
0
 10
38.068
 11
38.472
 20
17.74
 21
18.103
  0
LINE
  8
0
 10
38.472
 11
38.942
 20
18.103
 21
18.375
  0
LINE
  8
0
 10
38.942
 11
39.459
 20
18.375
 21
18.543
  0
LINE
  8
0
 10
39.459
 11
40
 20
18.543
 21
18.6
  0
LINE
  8
0
 10
40
 11
40.541
 20
18.6
 21
18.543
  0
LINE
  8
0
 10
40.541
 11
41.058
 20
18.543
 21
18.375
  0
LINE
  8
0
 10
41.058
 11
41.528
 20
18.375
 21
18.103
  0
LINE
  8
0
 10
41.528
 11
41.932
 20
18.103
 21
17.74
  0
LINE
  8
0
 10
41.932
 11
42.252
 20
17.74
 21
17.3
  0
LINE
  8
0
 10
42.252
 11
42.473
 20
17.3
 21
16.803
  0
LINE
  8
0
 10
42.473
 11
42.586
 20
16.803
 21
16.272
  0
LINE
  8
0
 10
42.586
 11
42.586
 20
16.272
 21
15.728
  0
LINE
  8
0
 10
42.586
 11
42.473
 20
15.728
 21
15.197
  0
LINE
  8
0
 10
42.473
 11
42.252
 20
15.197
 21
14.7
  0
LINE
  8
0
 10
42.252
 11
41.932
 20
14.7
 21
14.26
  0
LINE
  8
0
 10
41.932
 11
41.528
 20
14.26
 21
13.897
  0
LINE
  8
0
 10
41.528
 11
41.058
 20
13.897
 21
13.625
  0
LINE
  8
0
 10
41.058
 11
40.541
 20
13.625
 21
13.457
  0
LINE
  8
0
 10
40.541
 11
40
 20
13.457
 21
13.4
  0
LINE
  8
0
 10
40
 11
39.459
 20
13.4
 21
13.457
  0
LINE
  8
0
 10
39.459
 11
38.942
 20
13.457
 21
13.625
  0
LINE
  8
0
 10
38.942
 11
38.472
 20
13.625
 21
13.897
  0
LINE
  8
0
 10
38.472
 11
38.068
 20
13.897
 21
14.26
  0
LINE
  8
0
 10
38.068
 11
37.748
 20
14.26
 21
14.7
  0
LINE
  8
0
 10
37.748
 11
37.527
 20
14.7
 21
15.197
  0
LINE
  8
0
 10
37.527
 11
37.414
 20
15.197
 21
15.728
  0
LINE
  8
0
 10
37.414
 11
37.414
 20
23.728
 21
24.272
  0
LINE
  8
0
 10
37.414
 11
37.527
 20
24.272
 21
24.803
  0
LINE
  8
0
 10
37.527
 11
37.748
 20
24.803
 21
25.3
  0
LINE
  8
0
 10
37.748
 11
38.068
 20
25.3
 21
25.74
  0
LINE
  8
0
 10
38.068
 11
38.472
 20
25.74
 21
26.103
  0
LINE
  8
0
 10
38.472
 11
38.942
 20
26.103
 21
26.375
  0
LINE
  8
0
 10
38.942
 11
39.459
 20
26.375
 21
26.543
  0
LINE
  8
0
 10
39.459
 11
40
 20
26.543
 21
26.6
  0
LINE
  8
0
 10
40
 11
40.541
 20
26.6
 21
26.543
  0
LINE
  8
0
 10
40.541
 11
41.058
 20
26.543
 21
26.375
  0
LINE
  8
0
 10
41.058
 11
41.528
 20
26.375
 21
26.103
  0
LINE
  8
0
 10
41.528
 11
41.932
 20
26.103
 21
25.74
  0
LINE
  8
0
 10
41.932
 11
42.252
 20
25.74
 21
25.3
  0
LINE
  8
0
 10
42.252
 11
42.473
 20
25.3
 21
24.803
  0
LINE
  8
0
 10
42.473
 11
42.586
 20
24.803
 21
24.272
  0
LINE
  8
0
 10
42.586
 11
42.586
 20
24.272
 21
23.728
  0
LINE
  8
0
 10
42.586
 11
42.473
 20
23.728
 21
23.197
  0
LINE
  8
0
 10
42.473
 11
42.252
 20
23.197
 21
22.7
  0
LINE
  8
0
 10
42.252
 11
41.932
 20
22.7
 21
22.26
  0
LINE
  8
0
 10
41.932
 11
41.528
 20
22.26
 21
21.897
  0
LINE
  8
0
 10
41.528
 11
41.058
 20
21.897
 21
21.625
  0
LINE
  8
0
 10
41.058
 11
40.541
 20
21.625
 21
21.457
  0
LINE
  8
0
 10
40.541
 11
40
 20
21.457
 21
21.4
  0
LINE
  8
0
 10
40
 11
39.459
 20
21.4
 21
21.457
  0
LINE
  8
0
 10
39.459
 11
38.942
 20
21.457
 21
21.625
  0
LINE
  8
0
 10
38.942
 11
38.472
 20
21.625
 21
21.897
  0
LINE
  8
0
 10
38.472
 11
38.068
 20
21.897
 21
22.26
  0
LINE
  8
0
 10
38.068
 11
37.748
 20
22.26
 21
22.7
  0
LINE
  8
0
 10
37.748
 11
37.527
 20
22.7
 21
23.197
  0
LINE
  8
0
 10
37.527
 11
37.414
 20
23.197
 21
23.728
  0
LINE
  8
0
 10
37.414
 11
37.414
 20
31.728
 21
32.272
  0
LINE
  8
0
 10
37.414
 11
37.527
 20
32.272
 21
32.803
  0
LINE
  8
0
 10
37.527
 11
37.748
 20
32.803
 21
33.3
  0
LINE
  8
0
 10
37.748
 11
38.068
 20
33.3
 21
33.74
  0
LINE
  8
0
 10
38.068
 11
38.472
 20
33.74
 21
34.103
  0
LINE
  8
0
 10
38.472
 11
38.942
 20
34.103
 21
34.375
  0
LINE
  8
0
 10
38.942
 11
39.459
 20
34.375
 21
34.543
  0
LINE
  8
0
 10
39.459
 11
40
 20
34.543
 21
34.6
  0
LINE
  8
0
 10
40
 11
40.541
 20
34.6
 21
34.543
  0
LINE
  8
0
 10
40.541
 11
41.058
 20
34.543
 21
34.375
  0
LINE
  8
0
 10
41.058
 11
41.528
 20
34.375
 21
34.103
  0
LINE
  8
0
 10
41.528
 11
41.932
 20
34.103
 21
33.74
  0
LINE
  8
0
 10
41.932
 11
42.252
 20
33.74
 21
33.3
  0
LINE
  8
0
 10
42.252
 11
42.473
 20
33.3
 21
32.803
  0
LINE
  8
0
 10
42.473
 11
42.586
 20
32.803
 21
32.272
  0
LINE
  8
0
 10
42.586
 11
42.586
 20
32.272
 21
31.728
  0
LINE
  8
0
 10
42.586
 11
42.473
 20
31.728
 21
31.197
  0
LINE
  8
0
 10
42.473
 11
42.252
 20
31.197
 21
30.7
  0
LINE
  8
0
 10
42.252
 11
41.932
 20
30.7
 21
30.26
  0
LINE
  8
0
 10
41.932
 11
41.528
 20
30.26
 21
29.897
  0
LINE
  8
0
 10
41.528
 11
41.058
 20
29.897
 21
29.625
  0
LINE
  8
0
 10
41.058
 11
40.541
 20
29.625
 21
29.457
  0
LINE
  8
0
 10
40.541
 11
40
 20
29.457
 21
29.4
  0
LINE
  8
0
 10
40
 11
39.459
 20
29.4
 21
29.457
  0
LINE
  8
0
 10
39.459
 11
38.942
 20
29.457
 21
29.625
  0
LINE
  8
0
 10
38.942
 11
38.472
 20
29.625
 21
29.897
  0
LINE
  8
0
 10
38.472
 11
38.068
 20
29.897
 21
30.26
  0
LINE
  8
0
 10
38.068
 11
37.748
 20
30.26
 21
30.7
  0
LINE
  8
0
 10
37.748
 11
37.527
 20
30.7
 21
31.197
  0
LINE
  8
0
 10
37.527
 11
37.414
 20
31.197
 21
31.728
  0
LINE
  8
0
 10
37.414
 11
37.414
 20
39.728
 21
40.272
  0
LINE
  8
0
 10
37.414
 11
37.527
 20
40.272
 21
40.803
  0
LINE
  8
0
 10
37.527
 11
37.748
 20
40.803
 21
41.3
  0
LINE
  8
0
 10
37.748
 11
38.068
 20
41.3
 21
41.74
  0
LINE
  8
0
 10
38.068
 11
38.472
 20
41.74
 21
42.103
  0
LINE
  8
0
 10
38.472
 11
38.942
 20
42.103
 21
42.375
  0
LINE
  8
0
 10
38.942
 11
39.459
 20
42.375
 21
42.543
  0
LINE
  8
0
 10
39.459
 11
40
 20
42.543
 21
42.6
  0
LINE
  8
0
 10
40
 11
40.541
 20
42.6
 21
42.543
  0
LINE
  8
0
 10
40.541
 11
41.058
 20
42.543
 21
42.375
  0
LINE
  8
0
 10
41.058
 11
41.528
 20
42.375
 21
42.103
  0
LINE
  8
0
 10
41.528
 11
41.932
 20
42.103
 21
41.74
  0
LINE
  8
0
 10
41.932
 11
42.252
 20
41.74
 21
41.3
  0
LINE
  8
0
 10
42.252
 11
42.473
 20
41.3
 21
40.803
  0
LINE
  8
0
 10
42.473
 11
42.586
 20
40.803
 21
40.272
  0
LINE
  8
0
 10
42.586
 11
42.586
 20
40.272
 21
39.728
  0
LINE
  8
0
 10
42.586
 11
42.473
 20
39.728
 21
39.197
  0
LINE
  8
0
 10
42.473
 11
42.252
 20
39.197
 21
38.7
  0
LINE
  8
0
 10
42.252
 11
41.932
 20
38.7
 21
38.26
  0
LINE
  8
0
 10
41.932
 11
41.528
 20
38.26
 21
37.897
  0
LINE
  8
0
 10
41.528
 11
41.058
 20
37.897
 21
37.625
  0
LINE
  8
0
 10
41.058
 11
40.541
 20
37.625
 21
37.457
  0
LINE
  8
0
 10
40.541
 11
40
 20
37.457
 21
37.4
  0
LINE
  8
0
 10
40
 11
39.459
 20
37.4
 21
37.457
  0
LINE
  8
0
 10
39.459
 11
38.942
 20
37.457
 21
37.625
  0
LINE
  8
0
 10
38.942
 11
38.472
 20
37.625
 21
37.897
  0
LINE
  8
0
 10
38.472
 11
38.068
 20
37.897
 21
38.26
  0
LINE
  8
0
 10
38.068
 11
37.748
 20
38.26
 21
38.7
  0
LINE
  8
0
 10
37.748
 11
37.527
 20
38.7
 21
39.197
  0
LINE
  8
0
 10
37.527
 11
37.414
 20
39.197
 21
39.728
  0
LINE
  8
0
 10
37.414
 11
37.414
 20
47.728
 21
48.272
  0
LINE
  8
0
 10
37.414
 11
37.527
 20
48.272
 21
48.803
  0
LINE
  8
0
 10
37.527
 11
37.748
 20
48.803
 21
49.3
  0
LINE
  8
0
 10
37.748
 11
38.068
 20
49.3
 21
49.74
  0
LINE
  8
0
 10
38.068
 11
38.472
 20
49.74
 21
50.103
  0
LINE
  8
0
 10
38.472
 11
38.942
 20
50.103
 21
50.375
  0
LINE
  8
0
 10
38.942
 11
39.459
 20
50.375
 21
50.543
  0
LINE
  8
0
 10
39.459
 11
40
 20
50.543
 21
50.6
  0
LINE
  8
0
 10
40
 11
40.541
 20
50.6
 21
50.543
  0
LINE
  8
0
 10
40.541
 11
41.058
 20
50.543
 21
50.375
  0
LINE
  8
0
 10
41.058
 11
41.528
 20
50.375
 21
50.103
  0
LINE
  8
0
 10
41.528
 11
41.932
 20
50.103
 21
49.74
  0
LINE
  8
0
 10
41.932
 11
42.252
 20
49.74
 21
49.3
  0
LINE
  8
0
 10
42.252
 11
42.473
 20
49.3
 21
48.803
  0
LINE
  8
0
 10
42.473
 11
42.586
 20
48.803
 21
48.272
  0
LINE
  8
0
 10
42.586
 11
42.586
 20
48.272
 21
47.728
  0
LINE
  8
0
 10
42.586
 11
42.473
 20
47.728
 21
47.197
  0
LINE
  8
0
 10
42.473
 11
42.252
 20
47.197
 21
46.7
  0
LINE
  8
0
 10
42.252
 11
41.932
 20
46.7
 21
46.26
  0
LINE
  8
0
 10
41.932
 11
41.528
 20
46.26
 21
45.897
  0
LINE
  8
0
 10
41.528
 11
41.058
 20
45.897
 21
45.625
  0
LINE
  8
0
 10
41.058
 11
40.541
 20
45.625
 21
45.457
  0
LINE
  8
0
 10
40.541
 11
40
 20
45.457
 21
45.4
  0
LINE
  8
0
 10
40
 11
39.459
 20
45.4
 21
45.457
  0
LINE
  8
0
 10
39.459
 11
38.942
 20
45.457
 21
45.625
  0
LINE
  8
0
 10
38.942
 11
38.472
 20
45.625
 21
45.897
  0
LINE
  8
0
 10
38.472
 11
38.068
 20
45.897
 21
46.26
  0
LINE
  8
0
 10
38.068
 11
37.748
 20
46.26
 21
46.7
  0
LINE
  8
0
 10
37.748
 11
37.527
 20
46.7
 21
47.197
  0
LINE
  8
0
 10
37.527
 11
37.414
 20
47.197
 21
47.728
  0
LINE
  8
0
 10
37.414
 11
37.414
 20
55.728
 21
56.272
  0
LINE
  8
0
 10
37.414
 11
37.527
 20
56.272
 21
56.803
  0
LINE
  8
0
 10
37.527
 11
37.748
 20
56.803
 21
57.3
  0
LINE
  8
0
 10
37.748
 11
38.068
 20
57.3
 21
57.74
  0
LINE
  8
0
 10
38.068
 11
38.472
 20
57.74
 21
58.103
  0
LINE
  8
0
 10
38.472
 11
38.942
 20
58.103
 21
58.375
  0
LINE
  8
0
 10
38.942
 11
39.459
 20
58.375
 21
58.543
  0
LINE
  8
0
 10
39.459
 11
40
 20
58.543
 21
58.6
  0
LINE
  8
0
 10
40
 11
40.541
 20
58.6
 21
58.543
  0
LINE
  8
0
 10
40.541
 11
41.058
 20
58.543
 21
58.375
  0
LINE
  8
0
 10
41.058
 11
41.528
 20
58.375
 21
58.103
  0
LINE
  8
0
 10
41.528
 11
41.932
 20
58.103
 21
57.74
  0
LINE
  8
0
 10
41.932
 11
42.252
 20
57.74
 21
57.3
  0
LINE
  8
0
 10
42.252
 11
42.473
 20
57.3
 21
56.803
  0
LINE
  8
0
 10
42.473
 11
42.586
 20
56.803
 21
56.272
  0
LINE
  8
0
 10
42.586
 11
42.586
 20
56.272
 21
55.728
  0
LINE
  8
0
 10
42.586
 11
42.473
 20
55.728
 21
55.197
  0
LINE
  8
0
 10
42.473
 11
42.252
 20
55.197
 21
54.7
  0
LINE
  8
0
 10
42.252
 11
41.932
 20
54.7
 21
54.26
  0
LINE
  8
0
 10
41.932
 11
41.528
 20
54.26
 21
53.897
  0
LINE
  8
0
 10
41.528
 11
41.058
 20
53.897
 21
53.625
  0
LINE
  8
0
 10
41.058
 11
40.541
 20
53.625
 21
53.457
  0
LINE
  8
0
 10
40.541
 11
40
 20
53.457
 21
53.4
  0
LINE
  8
0
 10
40
 11
39.459
 20
53.4
 21
53.457
  0
LINE
  8
0
 10
39.459
 11
38.942
 20
53.457
 21
53.625
  0
LINE
  8
0
 10
38.942
 11
38.472
 20
53.625
 21
53.897
  0
LINE
  8
0
 10
38.472
 11
38.068
 20
53.897
 21
54.26
  0
LINE
  8
0
 10
38.068
 11
37.748
 20
54.26
 21
54.7
  0
LINE
  8
0
 10
37.748
 11
37.527
 20
54.7
 21
55.197
  0
LINE
  8
0
 10
37.527
 11
37.414
 20
55.197
 21
55.728
  0
LINE
  8
0
 10
37.414
 11
37.414
 20
63.728
 21
64.272
  0
LINE
  8
0
 10
37.414
 11
37.527
 20
64.272
 21
64.803
  0
LINE
  8
0
 10
37.527
 11
37.748
 20
64.803
 21
65.3
  0
LINE
  8
0
 10
37.748
 11
38.068
 20
65.3
 21
65.74
  0
LINE
  8
0
 10
38.068
 11
38.472
 20
65.74
 21
66.103
  0
LINE
  8
0
 10
38.472
 11
38.942
 20
66.103
 21
66.375
  0
LINE
  8
0
 10
38.942
 11
39.459
 20
66.375
 21
66.543
  0
LINE
  8
0
 10
39.459
 11
40
 20
66.543
 21
66.6
  0
LINE
  8
0
 10
40
 11
40.541
 20
66.6
 21
66.543
  0
LINE
  8
0
 10
40.541
 11
41.058
 20
66.543
 21
66.375
  0
LINE
  8
0
 10
41.058
 11
41.528
 20
66.375
 21
66.103
  0
LINE
  8
0
 10
41.528
 11
41.932
 20
66.103
 21
65.74
  0
LINE
  8
0
 10
41.932
 11
42.252
 20
65.74
 21
65.3
  0
LINE
  8
0
 10
42.252
 11
42.473
 20
65.3
 21
64.803
  0
LINE
  8
0
 10
42.473
 11
42.586
 20
64.803
 21
64.272
  0
LINE
  8
0
 10
42.586
 11
42.586
 20
64.272
 21
63.728
  0
LINE
  8
0
 10
42.586
 11
42.473
 20
63.728
 21
63.197
  0
LINE
  8
0
 10
42.473
 11
42.252
 20
63.197
 21
62.7
  0
LINE
  8
0
 10
42.252
 11
41.932
 20
62.7
 21
62.26
  0
LINE
  8
0
 10
41.932
 11
41.528
 20
62.26
 21
61.897
  0
LINE
  8
0
 10
41.528
 11
41.058
 20
61.897
 21
61.625
  0
LINE
  8
0
 10
41.058
 11
40.541
 20
61.625
 21
61.457
  0
LINE
  8
0
 10
40.541
 11
40
 20
61.457
 21
61.4
  0
LINE
  8
0
 10
40
 11
39.459
 20
61.4
 21
61.457
  0
LINE
  8
0
 10
39.459
 11
38.942
 20
61.457
 21
61.625
  0
LINE
  8
0
 10
38.942
 11
38.472
 20
61.625
 21
61.897
  0
LINE
  8
0
 10
38.472
 11
38.068
 20
61.897
 21
62.26
  0
LINE
  8
0
 10
38.068
 11
37.748
 20
62.26
 21
62.7
  0
LINE
  8
0
 10
37.748
 11
37.527
 20
62.7
 21
63.197
  0
LINE
  8
0
 10
37.527
 11
37.414
 20
63.197
 21
63.728
  0
LINE
  8
0
 10
37.414
 11
37.414
 20
71.728
 21
72.272
  0
LINE
  8
0
 10
37.414
 11
37.527
 20
72.272
 21
72.803
  0
LINE
  8
0
 10
37.527
 11
37.748
 20
72.803
 21
73.3
  0
LINE
  8
0
 10
37.748
 11
38.068
 20
73.3
 21
73.74
  0
LINE
  8
0
 10
38.068
 11
38.472
 20
73.74
 21
74.103
  0
LINE
  8
0
 10
38.472
 11
38.942
 20
74.103
 21
74.375
  0
LINE
  8
0
 10
38.942
 11
39.459
 20
74.375
 21
74.543
  0
LINE
  8
0
 10
39.459
 11
40
 20
74.543
 21
74.6
  0
LINE
  8
0
 10
40
 11
40.541
 20
74.6
 21
74.543
  0
LINE
  8
0
 10
40.541
 11
41.058
 20
74.543
 21
74.375
  0
LINE
  8
0
 10
41.058
 11
41.528
 20
74.375
 21
74.103
  0
LINE
  8
0
 10
41.528
 11
41.932
 20
74.103
 21
73.74
  0
LINE
  8
0
 10
41.932
 11
42.252
 20
73.74
 21
73.3
  0
LINE
  8
0
 10
42.252
 11
42.473
 20
73.3
 21
72.803
  0
LINE
  8
0
 10
42.473
 11
42.586
 20
72.803
 21
72.272
  0
LINE
  8
0
 10
42.586
 11
42.586
 20
72.272
 21
71.728
  0
LINE
  8
0
 10
42.586
 11
42.473
 20
71.728
 21
71.197
  0
LINE
  8
0
 10
42.473
 11
42.252
 20
71.197
 21
70.7
  0
LINE
  8
0
 10
42.252
 11
41.932
 20
70.7
 21
70.26
  0
LINE
  8
0
 10
41.932
 11
41.528
 20
70.26
 21
69.897
  0
LINE
  8
0
 10
41.528
 11
41.058
 20
69.897
 21
69.625
  0
LINE
  8
0
 10
41.058
 11
40.541
 20
69.625
 21
69.457
  0
LINE
  8
0
 10
40.541
 11
40
 20
69.457
 21
69.4
  0
LINE
  8
0
 10
40
 11
39.459
 20
69.4
 21
69.457
  0
LINE
  8
0
 10
39.459
 11
38.942
 20
69.457
 21
69.625
  0
LINE
  8
0
 10
38.942
 11
38.472
 20
69.625
 21
69.897
  0
LINE
  8
0
 10
38.472
 11
38.068
 20
69.897
 21
70.26
  0
LINE
  8
0
 10
38.068
 11
37.748
 20
70.26
 21
70.7
  0
LINE
  8
0
 10
37.748
 11
37.527
 20
70.7
 21
71.197
  0
LINE
  8
0
 10
37.527
 11
37.414
 20
71.197
 21
71.728
  0
LINE
  8
0
 10
66.682
 11
66.739
 20
40
 21
40.541
  0
LINE
  8
0
 10
66.739
 11
66.907
 20
40.541
 21
41.058
  0
LINE
  8
0
 10
66.907
 11
67.179
 20
41.058
 21
41.528
  0
LINE
  8
0
 10
67.179
 11
67.542
 20
41.528
 21
41.932
  0
LINE
  8
0
 10
67.542
 11
67.982
 20
41.932
 21
42.252
  0
LINE
  8
0
 10
67.982
 11
68.479
 20
42.252
 21
42.473
  0
LINE
  8
0
 10
68.479
 11
69.01
 20
42.473
 21
42.586
  0
LINE
  8
0
 10
69.01
 11
69.554
 20
42.586
 21
42.586
  0
LINE
  8
0
 10
69.554
 11
70.085
 20
42.586
 21
42.473
  0
LINE
  8
0
 10
70.085
 11
70.582
 20
42.473
 21
42.252
  0
LINE
  8
0
 10
70.582
 11
71.022
 20
42.252
 21
41.932
  0
LINE
  8
0
 10
71.022
 11
71.385
 20
41.932
 21
41.528
  0
LINE
  8
0
 10
71.385
 11
71.657
 20
41.528
 21
41.058
  0
LINE
  8
0
 10
71.657
 11
71.825
 20
41.058
 21
40.541
  0
LINE
  8
0
 10
71.825
 11
71.882
 20
40.541
 21
40
  0
LINE
  8
0
 10
71.882
 11
71.825
 20
40
 21
39.459
  0
LINE
  8
0
 10
71.825
 11
71.657
 20
39.459
 21
38.942
  0
LINE
  8
0
 10
71.657
 11
71.385
 20
38.942
 21
38.472
  0
LINE
  8
0
 10
71.385
 11
71.022
 20
38.472
 21
38.068
  0
LINE
  8
0
 10
71.022
 11
70.582
 20
38.068
 21
37.748
  0
LINE
  8
0
 10
70.582
 11
70.085
 20
37.748
 21
37.527
  0
LINE
  8
0
 10
70.085
 11
69.554
 20
37.527
 21
37.414
  0
LINE
  8
0
 10
69.554
 11
69.01
 20
37.414
 21
37.414
  0
LINE
  8
0
 10
69.01
 11
68.479
 20
37.414
 21
37.527
  0
LINE
  8
0
 10
68.479
 11
67.982
 20
37.527
 21
37.748
  0
LINE
  8
0
 10
67.982
 11
67.542
 20
37.748
 21
38.068
  0
LINE
  8
0
 10
67.542
 11
67.179
 20
38.068
 21
38.472
  0
LINE
  8
0
 10
67.179
 11
66.907
 20
38.472
 21
38.942
  0
LINE
  8
0
 10
66.907
 11
66.739
 20
38.942
 21
39.459
  0
LINE
  8
0
 10
66.739
 11
66.682
 20
39.459
 21
40
  0
ENDSEC
  0
SECTION
  2
OBJECTS
  0
DICTIONARY
  0
ENDSEC
  0
EOF
