  0
SECTION
  2
BLOCKS
  0
ENDSEC
  0
SECTION
  2
ENTITIES
  0
LINE
  8
0
 10
-97
 11
-83
 20
0
 21
24.249
  0
LINE
  8
0
 10
-83
 11
-75.981
 20
24.249
 21
20.196
  0
LINE
  8
0
 10
-75.981
 11
-73.481
 20
20.196
 21
24.527
  0
LINE
  8
0
 10
-73.481
 11
-80.5
 20
24.527
 21
28.579
  0
LINE
  8
0
 10
-80.5
 11
-65
 20
28.579
 21
55.426
  0
LINE
  8
0
 10
-65
 11
-57.981
 20
55.426
 21
51.373
  0
LINE
  8
0
 10
-57.981
 11
-55.481
 20
51.373
 21
55.704
  0
LINE
  8
0
 10
-55.481
 11
-62.5
 20
55.704
 21
59.756
  0
LINE
  8
0
 10
-62.5
 11
-48.5
 20
59.756
 21
84.004
  0
LINE
  8
0
 10
-48.5
 11
48.5
 20
84.004
 21
84.004
  0
LINE
  8
0
 10
48.5
 11
62.5
 20
84.004
 21
59.756
  0
LINE
  8
0
 10
62.5
 11
55.481
 20
59.756
 21
55.704
  0
LINE
  8
0
 10
55.481
 11
57.981
 20
55.704
 21
51.373
  0
LINE
  8
0
 10
57.981
 11
65
 20
51.373
 21
55.426
  0
LINE
  8
0
 10
65
 11
80.5
 20
55.426
 21
28.579
  0
LINE
  8
0
 10
80.5
 11
73.481
 20
28.579
 21
24.527
  0
LINE
  8
0
 10
73.481
 11
75.981
 20
24.527
 21
20.196
  0
LINE
  8
0
 10
75.981
 11
83
 20
20.196
 21
24.249
  0
LINE
  8
0
 10
83
 11
97
 20
24.249
 21
0
  0
LINE
  8
0
 10
97
 11
48.5
 20
0
 21
-84.004
  0
LINE
  8
0
 10
48.5
 11
20.5
 20
-84.004
 21
-84.004
  0
LINE
  8
0
 10
20.5
 11
20.5
 20
-84.004
 21
-75.9
  0
LINE
  8
0
 10
20.5
 11
15.5
 20
-75.9
 21
-75.9
  0
LINE
  8
0
 10
15.5
 11
15.5
 20
-75.9
 21
-84.004
  0
LINE
  8
0
 10
15.5
 11
-15.5
 20
-84.004
 21
-84.004
  0
LINE
  8
0
 10
-15.5
 11
-15.5
 20
-84.004
 21
-75.9
  0
LINE
  8
0
 10
-15.5
 11
-20.5
 20
-75.9
 21
-75.9
  0
LINE
  8
0
 10
-20.5
 11
-20.5
 20
-75.9
 21
-84.004
  0
LINE
  8
0
 10
-20.5
 11
-48.5
 20
-84.004
 21
-84.004
  0
LINE
  8
0
 10
-48.5
 11
-97
 20
-84.004
 21
0
  0
LINE
  8
0
 10
-71.832
 11
-71.776
 20
40
 21
40.53
  0
LINE
  8
0
 10
-71.776
 11
-71.612
 20
40.53
 21
41.037
  0
LINE
  8
0
 10
-71.612
 11
-71.345
 20
41.037
 21
41.499
  0
LINE
  8
0
 10
-71.345
 11
-70.988
 20
41.499
 21
41.895
  0
LINE
  8
0
 10
-70.988
 11
-70.557
 20
41.895
 21
42.208
  0
LINE
  8
0
 10
-70.557
 11
-70.07
 20
42.208
 21
42.425
  0
LINE
  8
0
 10
-70.07
 11
-69.549
 20
42.425
 21
42.536
  0
LINE
  8
0
 10
-69.549
 11
-69.015
 20
42.536
 21
42.536
  0
LINE
  8
0
 10
-69.015
 11
-68.494
 20
42.536
 21
42.425
  0
LINE
  8
0
 10
-68.494
 11
-68.007
 20
42.425
 21
42.208
  0
LINE
  8
0
 10
-68.007
 11
-67.576
 20
42.208
 21
41.895
  0
LINE
  8
0
 10
-67.576
 11
-67.219
 20
41.895
 21
41.499
  0
LINE
  8
0
 10
-67.219
 11
-66.952
 20
41.499
 21
41.037
  0
LINE
  8
0
 10
-66.952
 11
-66.788
 20
41.037
 21
40.53
  0
LINE
  8
0
 10
-66.788
 11
-66.732
 20
40.53
 21
40
  0
LINE
  8
0
 10
-66.732
 11
-66.788
 20
40
 21
39.47
  0
LINE
  8
0
 10
-66.788
 11
-66.952
 20
39.47
 21
38.963
  0
LINE
  8
0
 10
-66.952
 11
-67.219
 20
38.963
 21
38.501
  0
LINE
  8
0
 10
-67.219
 11
-67.576
 20
38.501
 21
38.105
  0
LINE
  8
0
 10
-67.576
 11
-68.007
 20
38.105
 21
37.792
  0
LINE
  8
0
 10
-68.007
 11
-68.494
 20
37.792
 21
37.575
  0
LINE
  8
0
 10
-68.494
 11
-69.015
 20
37.575
 21
37.464
  0
LINE
  8
0
 10
-69.015
 11
-69.549
 20
37.464
 21
37.464
  0
LINE
  8
0
 10
-69.549
 11
-70.07
 20
37.464
 21
37.575
  0
LINE
  8
0
 10
-70.07
 11
-70.557
 20
37.575
 21
37.792
  0
LINE
  8
0
 10
-70.557
 11
-70.988
 20
37.792
 21
38.105
  0
LINE
  8
0
 10
-70.988
 11
-71.345
 20
38.105
 21
38.501
  0
LINE
  8
0
 10
-71.345
 11
-71.612
 20
38.501
 21
38.963
  0
LINE
  8
0
 10
-71.612
 11
-71.776
 20
38.963
 21
39.47
  0
LINE
  8
0
 10
-71.776
 11
-71.832
 20
39.47
 21
40
  0
LINE
  8
0
 10
-56.89
 11
-56.89
 20
-50.123
 21
-49.59
  0
LINE
  8
0
 10
-56.89
 11
-56.779
 20
-49.59
 21
-49.068
  0
LINE
  8
0
 10
-56.779
 11
-56.562
 20
-49.068
 21
-48.581
  0
LINE
  8
0
 10
-56.562
 11
-56.249
 20
-48.581
 21
-48.15
  0
LINE
  8
0
 10
-56.249
 11
-55.853
 20
-48.15
 21
-47.793
  0
LINE
  8
0
 10
-55.853
 11
-55.391
 20
-47.793
 21
-47.527
  0
LINE
  8
0
 10
-55.391
 11
-54.884
 20
-47.527
 21
-47.362
  0
LINE
  8
0
 10
-54.884
 11
-54.354
 20
-47.362
 21
-47.306
  0
LINE
  8
0
 10
-54.354
 11
-53.824
 20
-47.306
 21
-47.362
  0
LINE
  8
0
 10
-53.824
 11
-53.317
 20
-47.362
 21
-47.527
  0
LINE
  8
0
 10
-53.317
 11
-52.855
 20
-47.527
 21
-47.793
  0
LINE
  8
0
 10
-52.855
 11
-52.459
 20
-47.793
 21
-48.15
  0
LINE
  8
0
 10
-52.459
 11
-52.145
 20
-48.15
 21
-48.581
  0
LINE
  8
0
 10
-52.145
 11
-51.929
 20
-48.581
 21
-49.068
  0
LINE
  8
0
 10
-51.929
 11
-51.818
 20
-49.068
 21
-49.59
  0
LINE
  8
0
 10
-51.818
 11
-51.818
 20
-49.59
 21
-50.123
  0
LINE
  8
0
 10
-51.818
 11
-51.929
 20
-50.123
 21
-50.644
  0
LINE
  8
0
 10
-51.929
 11
-52.145
 20
-50.644
 21
-51.131
  0
LINE
  8
0
 10
-52.145
 11
-52.459
 20
-51.131
 21
-51.563
  0
LINE
  8
0
 10
-52.459
 11
-52.855
 20
-51.563
 21
-51.919
  0
LINE
  8
0
 10
-52.855
 11
-53.317
 20
-51.919
 21
-52.186
  0
LINE
  8
0
 10
-53.317
 11
-53.824
 20
-52.186
 21
-52.351
  0
LINE
  8
0
 10
-53.824
 11
-54.354
 20
-52.351
 21
-52.406
  0
LINE
  8
0
 10
-54.354
 11
-54.884
 20
-52.406
 21
-52.351
  0
LINE
  8
0
 10
-54.884
 11
-55.391
 20
-52.351
 21
-52.186
  0
LINE
  8
0
 10
-55.391
 11
-55.853
 20
-52.186
 21
-51.919
  0
LINE
  8
0
 10
-55.853
 11
-56.249
 20
-51.919
 21
-51.563
  0
LINE
  8
0
 10
-56.249
 11
-56.562
 20
-51.563
 21
-51.131
  0
LINE
  8
0
 10
-56.562
 11
-56.779
 20
-51.131
 21
-50.644
  0
LINE
  8
0
 10
-56.779
 11
-56.89
 20
-50.644
 21
-50.123
  0
LINE
  8
0
 10
-34.55
 11
-34.494
 20
-80
 21
-79.47
  0
LINE
  8
0
 10
-34.494
 11
-34.33
 20
-79.47
 21
-78.963
  0
LINE
  8
0
 10
-34.33
 11
-34.063
 20
-78.963
 21
-78.501
  0
LINE
  8
0
 10
-34.063
 11
-33.706
 20
-78.501
 21
-78.105
  0
LINE
  8
0
 10
-33.706
 11
-33.275
 20
-78.105
 21
-77.792
  0
LINE
  8
0
 10
-33.275
 11
-32.788
 20
-77.792
 21
-77.575
  0
LINE
  8
0
 10
-32.788
 11
-32.267
 20
-77.575
 21
-77.464
  0
LINE
  8
0
 10
-32.267
 11
-31.733
 20
-77.464
 21
-77.464
  0
LINE
  8
0
 10
-31.733
 11
-31.212
 20
-77.464
 21
-77.575
  0
LINE
  8
0
 10
-31.212
 11
-30.725
 20
-77.575
 21
-77.792
  0
LINE
  8
0
 10
-30.725
 11
-30.294
 20
-77.792
 21
-78.105
  0
LINE
  8
0
 10
-30.294
 11
-29.937
 20
-78.105
 21
-78.501
  0
LINE
  8
0
 10
-29.937
 11
-29.67
 20
-78.501
 21
-78.963
  0
LINE
  8
0
 10
-29.67
 11
-29.506
 20
-78.963
 21
-79.47
  0
LINE
  8
0
 10
-29.506
 11
-29.45
 20
-79.47
 21
-80
  0
LINE
  8
0
 10
-29.45
 11
-29.506
 20
-80
 21
-80.53
  0
LINE
  8
0
 10
-29.506
 11
-29.67
 20
-80.53
 21
-81.037
  0
LINE
  8
0
 10
-29.67
 11
-29.937
 20
-81.037
 21
-81.499
  0
LINE
  8
0
 10
-29.937
 11
-30.294
 20
-81.499
 21
-81.895
  0
LINE
  8
0
 10
-30.294
 11
-30.725
 20
-81.895
 21
-82.208
  0
LINE
  8
0
 10
-30.725
 11
-31.212
 20
-82.208
 21
-82.425
  0
LINE
  8
0
 10
-31.212
 11
-31.733
 20
-82.425
 21
-82.536
  0
LINE
  8
0
 10
-31.733
 11
-32.267
 20
-82.536
 21
-82.536
  0
LINE
  8
0
 10
-32.267
 11
-32.788
 20
-82.536
 21
-82.425
  0
LINE
  8
0
 10
-32.788
 11
-33.275
 20
-82.425
 21
-82.208
  0
LINE
  8
0
 10
-33.275
 11
-33.706
 20
-82.208
 21
-81.895
  0
LINE
  8
0
 10
-33.706
 11
-34.063
 20
-81.895
 21
-81.499
  0
LINE
  8
0
 10
-34.063
 11
-34.33
 20
-81.499
 21
-81.037
  0
LINE
  8
0
 10
-34.33
 11
-34.494
 20
-81.037
 21
-80.53
  0
LINE
  8
0
 10
-34.494
 11
-34.55
 20
-80.53
 21
-80
  0
LINE
  8
0
 10
-34.55
 11
-34.494
 20
-16
 21
-15.47
  0
LINE
  8
0
 10
-34.494
 11
-34.33
 20
-15.47
 21
-14.963
  0
LINE
  8
0
 10
-34.33
 11
-34.063
 20
-14.963
 21
-14.501
  0
LINE
  8
0
 10
-34.063
 11
-33.706
 20
-14.501
 21
-14.105
  0
LINE
  8
0
 10
-33.706
 11
-33.275
 20
-14.105
 21
-13.792
  0
LINE
  8
0
 10
-33.275
 11
-32.788
 20
-13.792
 21
-13.575
  0
LINE
  8
0
 10
-32.788
 11
-32.267
 20
-13.575
 21
-13.464
  0
LINE
  8
0
 10
-32.267
 11
-31.733
 20
-13.464
 21
-13.464
  0
LINE
  8
0
 10
-31.733
 11
-31.212
 20
-13.464
 21
-13.575
  0
LINE
  8
0
 10
-31.212
 11
-30.725
 20
-13.575
 21
-13.792
  0
LINE
  8
0
 10
-30.725
 11
-30.294
 20
-13.792
 21
-14.105
  0
LINE
  8
0
 10
-30.294
 11
-29.937
 20
-14.105
 21
-14.501
  0
LINE
  8
0
 10
-29.937
 11
-29.67
 20
-14.501
 21
-14.963
  0
LINE
  8
0
 10
-29.67
 11
-29.506
 20
-14.963
 21
-15.47
  0
LINE
  8
0
 10
-29.506
 11
-29.45
 20
-15.47
 21
-16
  0
LINE
  8
0
 10
-29.45
 11
-29.506
 20
-16
 21
-16.53
  0
LINE
  8
0
 10
-29.506
 11
-29.67
 20
-16.53
 21
-17.037
  0
LINE
  8
0
 10
-29.67
 11
-29.937
 20
-17.037
 21
-17.499
  0
LINE
  8
0
 10
-29.937
 11
-30.294
 20
-17.499
 21
-17.895
  0
LINE
  8
0
 10
-30.294
 11
-30.725
 20
-17.895
 21
-18.208
  0
LINE
  8
0
 10
-30.725
 11
-31.212
 20
-18.208
 21
-18.425
  0
LINE
  8
0
 10
-31.212
 11
-31.733
 20
-18.425
 21
-18.536
  0
LINE
  8
0
 10
-31.733
 11
-32.267
 20
-18.536
 21
-18.536
  0
LINE
  8
0
 10
-32.267
 11
-32.788
 20
-18.536
 21
-18.425
  0
LINE
  8
0
 10
-32.788
 11
-33.275
 20
-18.425
 21
-18.208
  0
LINE
  8
0
 10
-33.275
 11
-33.706
 20
-18.208
 21
-17.895
  0
LINE
  8
0
 10
-33.706
 11
-34.063
 20
-17.895
 21
-17.499
  0
LINE
  8
0
 10
-34.063
 11
-34.33
 20
-17.499
 21
-17.037
  0
LINE
  8
0
 10
-34.33
 11
-34.494
 20
-17.037
 21
-16.53
  0
LINE
  8
0
 10
-34.494
 11
-34.55
 20
-16.53
 21
-16
  0
LINE
  8
0
 10
-18.536
 11
-18.536
 20
7.733
 21
8.267
  0
LINE
  8
0
 10
-18.536
 11
-18.425
 20
8.267
 21
8.788
  0
LINE
  8
0
 10
-18.425
 11
-18.208
 20
8.788
 21
9.275
  0
LINE
  8
0
 10
-18.208
 11
-17.895
 20
9.275
 21
9.706
  0
LINE
  8
0
 10
-17.895
 11
-17.499
 20
9.706
 21
10.063
  0
LINE
  8
0
 10
-17.499
 11
-17.037
 20
10.063
 21
10.33
  0
LINE
  8
0
 10
-17.037
 11
-16.53
 20
10.33
 21
10.494
  0
LINE
  8
0
 10
-16.53
 11
-16
 20
10.494
 21
10.55
  0
LINE
  8
0
 10
-16
 11
-15.47
 20
10.55
 21
10.494
  0
LINE
  8
0
 10
-15.47
 11
-14.963
 20
10.494
 21
10.33
  0
LINE
  8
0
 10
-14.963
 11
-14.501
 20
10.33
 21
10.063
  0
LINE
  8
0
 10
-14.501
 11
-14.105
 20
10.063
 21
9.706
  0
LINE
  8
0
 10
-14.105
 11
-13.792
 20
9.706
 21
9.275
  0
LINE
  8
0
 10
-13.792
 11
-13.575
 20
9.275
 21
8.788
  0
LINE
  8
0
 10
-13.575
 11
-13.464
 20
8.788
 21
8.267
  0
LINE
  8
0
 10
-13.464
 11
-13.464
 20
8.267
 21
7.733
  0
LINE
  8
0
 10
-13.464
 11
-13.575
 20
7.733
 21
7.212
  0
LINE
  8
0
 10
-13.575
 11
-13.792
 20
7.212
 21
6.725
  0
LINE
  8
0
 10
-13.792
 11
-14.105
 20
6.725
 21
6.294
  0
LINE
  8
0
 10
-14.105
 11
-14.501
 20
6.294
 21
5.937
  0
LINE
  8
0
 10
-14.501
 11
-14.963
 20
5.937
 21
5.67
  0
LINE
  8
0
 10
-14.963
 11
-15.47
 20
5.67
 21
5.506
  0
LINE
  8
0
 10
-15.47
 11
-16
 20
5.506
 21
5.45
  0
LINE
  8
0
 10
-16
 11
-16.53
 20
5.45
 21
5.506
  0
LINE
  8
0
 10
-16.53
 11
-17.037
 20
5.506
 21
5.67
  0
LINE
  8
0
 10
-17.037
 11
-17.499
 20
5.67
 21
5.937
  0
LINE
  8
0
 10
-17.499
 11
-17.895
 20
5.937
 21
6.294
  0
LINE
  8
0
 10
-17.895
 11
-18.208
 20
6.294
 21
6.725
  0
LINE
  8
0
 10
-18.208
 11
-18.425
 20
6.725
 21
7.212
  0
LINE
  8
0
 10
-18.425
 11
-18.536
 20
7.212
 21
7.733
  0
LINE
  8
0
 10
-18.536
 11
-18.536
 20
71.733
 21
72.267
  0
LINE
  8
0
 10
-18.536
 11
-18.425
 20
72.267
 21
72.788
  0
LINE
  8
0
 10
-18.425
 11
-18.208
 20
72.788
 21
73.275
  0
LINE
  8
0
 10
-18.208
 11
-17.895
 20
73.275
 21
73.706
  0
LINE
  8
0
 10
-17.895
 11
-17.499
 20
73.706
 21
74.063
  0
LINE
  8
0
 10
-17.499
 11
-17.037
 20
74.063
 21
74.33
  0
LINE
  8
0
 10
-17.037
 11
-16.53
 20
74.33
 21
74.494
  0
LINE
  8
0
 10
-16.53
 11
-16
 20
74.494
 21
74.55
  0
LINE
  8
0
 10
-16
 11
-15.47
 20
74.55
 21
74.494
  0
LINE
  8
0
 10
-15.47
 11
-14.963
 20
74.494
 21
74.33
  0
LINE
  8
0
 10
-14.963
 11
-14.501
 20
74.33
 21
74.063
  0
LINE
  8
0
 10
-14.501
 11
-14.105
 20
74.063
 21
73.706
  0
LINE
  8
0
 10
-14.105
 11
-13.792
 20
73.706
 21
73.275
  0
LINE
  8
0
 10
-13.792
 11
-13.575
 20
73.275
 21
72.788
  0
LINE
  8
0
 10
-13.575
 11
-13.464
 20
72.788
 21
72.267
  0
LINE
  8
0
 10
-13.464
 11
-13.464
 20
72.267
 21
71.733
  0
LINE
  8
0
 10
-13.464
 11
-13.575
 20
71.733
 21
71.212
  0
LINE
  8
0
 10
-13.575
 11
-13.792
 20
71.212
 21
70.725
  0
LINE
  8
0
 10
-13.792
 11
-14.105
 20
70.725
 21
70.294
  0
LINE
  8
0
 10
-14.105
 11
-14.501
 20
70.294
 21
69.937
  0
LINE
  8
0
 10
-14.501
 11
-14.963
 20
69.937
 21
69.67
  0
LINE
  8
0
 10
-14.963
 11
-15.47
 20
69.67
 21
69.506
  0
LINE
  8
0
 10
-15.47
 11
-16
 20
69.506
 21
69.45
  0
LINE
  8
0
 10
-16
 11
-16.53
 20
69.45
 21
69.506
  0
LINE
  8
0
 10
-16.53
 11
-17.037
 20
69.506
 21
69.67
  0
LINE
  8
0
 10
-17.037
 11
-17.499
 20
69.67
 21
69.937
  0
LINE
  8
0
 10
-17.499
 11
-17.895
 20
69.937
 21
70.294
  0
LINE
  8
0
 10
-17.895
 11
-18.208
 20
70.294
 21
70.725
  0
LINE
  8
0
 10
-18.208
 11
-18.425
 20
70.725
 21
71.212
  0
LINE
  8
0
 10
-18.425
 11
-18.536
 20
71.212
 21
71.733
  0
LINE
  8
0
 10
-7
 11
-6.847
 20
0
 21
1.455
  0
LINE
  8
0
 10
-6.847
 11
-6.395
 20
1.455
 21
2.847
  0
LINE
  8
0
 10
-6.395
 11
-5.663
 20
2.847
 21
4.114
  0
LINE
  8
0
 10
-5.663
 11
-4.684
 20
4.114
 21
5.202
  0
LINE
  8
0
 10
-4.684
 11
-3.5
 20
5.202
 21
6.062
  0
LINE
  8
0
 10
-3.5
 11
-2.163
 20
6.062
 21
6.657
  0
LINE
  8
0
 10
-2.163
 11
-0.732
 20
6.657
 21
6.962
  0
LINE
  8
0
 10
-0.732
 11
0.732
 20
6.962
 21
6.962
  0
LINE
  8
0
 10
0.732
 11
2.163
 20
6.962
 21
6.657
  0
LINE
  8
0
 10
2.163
 11
3.5
 20
6.657
 21
6.062
  0
LINE
  8
0
 10
3.5
 11
4.684
 20
6.062
 21
5.202
  0
LINE
  8
0
 10
4.684
 11
5.663
 20
5.202
 21
4.114
  0
LINE
  8
0
 10
5.663
 11
6.395
 20
4.114
 21
2.847
  0
LINE
  8
0
 10
6.395
 11
6.847
 20
2.847
 21
1.455
  0
LINE
  8
0
 10
6.847
 11
7
 20
1.455
 21
0
  0
LINE
  8
0
 10
7
 11
6.847
 20
0
 21
-1.455
  0
LINE
  8
0
 10
6.847
 11
6.395
 20
-1.455
 21
-2.847
  0
LINE
  8
0
 10
6.395
 11
5.663
 20
-2.847
 21
-4.114
  0
LINE
  8
0
 10
5.663
 11
4.684
 20
-4.114
 21
-5.202
  0
LINE
  8
0
 10
4.684
 11
3.5
 20
-5.202
 21
-6.062
  0
LINE
  8
0
 10
3.5
 11
2.163
 20
-6.062
 21
-6.657
  0
LINE
  8
0
 10
2.163
 11
0.732
 20
-6.657
 21
-6.962
  0
LINE
  8
0
 10
0.732
 11
-0.732
 20
-6.962
 21
-6.962
  0
LINE
  8
0
 10
-0.732
 11
-2.163
 20
-6.962
 21
-6.657
  0
LINE
  8
0
 10
-2.163
 11
-3.5
 20
-6.657
 21
-6.062
  0
LINE
  8
0
 10
-3.5
 11
-4.684
 20
-6.062
 21
-5.202
  0
LINE
  8
0
 10
-4.684
 11
-5.663
 20
-5.202
 21
-4.114
  0
LINE
  8
0
 10
-5.663
 11
-6.395
 20
-4.114
 21
-2.847
  0
LINE
  8
0
 10
-6.395
 11
-6.847
 20
-2.847
 21
-1.455
  0
LINE
  8
0
 10
-6.847
 11
-7
 20
-1.455
 21
0
  0
LINE
  8
0
 10
-2.55
 11
-2.494
 20
-80
 21
-79.47
  0
LINE
  8
0
 10
-2.494
 11
-2.33
 20
-79.47
 21
-78.963
  0
LINE
  8
0
 10
-2.33
 11
-2.063
 20
-78.963
 21
-78.501
  0
LINE
  8
0
 10
-2.063
 11
-1.706
 20
-78.501
 21
-78.105
  0
LINE
  8
0
 10
-1.706
 11
-1.275
 20
-78.105
 21
-77.792
  0
LINE
  8
0
 10
-1.275
 11
-0.788
 20
-77.792
 21
-77.575
  0
LINE
  8
0
 10
-0.788
 11
-0.267
 20
-77.575
 21
-77.464
  0
LINE
  8
0
 10
-0.267
 11
0.267
 20
-77.464
 21
-77.464
  0
LINE
  8
0
 10
0.267
 11
0.788
 20
-77.464
 21
-77.575
  0
LINE
  8
0
 10
0.788
 11
1.275
 20
-77.575
 21
-77.792
  0
LINE
  8
0
 10
1.275
 11
1.706
 20
-77.792
 21
-78.105
  0
LINE
  8
0
 10
1.706
 11
2.063
 20
-78.105
 21
-78.501
  0
LINE
  8
0
 10
2.063
 11
2.33
 20
-78.501
 21
-78.963
  0
LINE
  8
0
 10
2.33
 11
2.494
 20
-78.963
 21
-79.47
  0
LINE
  8
0
 10
2.494
 11
2.55
 20
-79.47
 21
-80
  0
LINE
  8
0
 10
2.55
 11
2.494
 20
-80
 21
-80.53
  0
LINE
  8
0
 10
2.494
 11
2.33
 20
-80.53
 21
-81.037
  0
LINE
  8
0
 10
2.33
 11
2.063
 20
-81.037
 21
-81.499
  0
LINE
  8
0
 10
2.063
 11
1.706
 20
-81.499
 21
-81.895
  0
LINE
  8
0
 10
1.706
 11
1.275
 20
-81.895
 21
-82.208
  0
LINE
  8
0
 10
1.275
 11
0.788
 20
-82.208
 21
-82.425
  0
LINE
  8
0
 10
0.788
 11
0.267
 20
-82.425
 21
-82.536
  0
LINE
  8
0
 10
0.267
 11
-0.267
 20
-82.536
 21
-82.536
  0
LINE
  8
0
 10
-0.267
 11
-0.788
 20
-82.536
 21
-82.425
  0
LINE
  8
0
 10
-0.788
 11
-1.275
 20
-82.425
 21
-82.208
  0
LINE
  8
0
 10
-1.275
 11
-1.706
 20
-82.208
 21
-81.895
  0
LINE
  8
0
 10
-1.706
 11
-2.063
 20
-81.895
 21
-81.499
  0
LINE
  8
0
 10
-2.063
 11
-2.33
 20
-81.499
 21
-81.037
  0
LINE
  8
0
 10
-2.33
 11
-2.494
 20
-81.037
 21
-80.53
  0
LINE
  8
0
 10
-2.494
 11
-2.55
 20
-80.53
 21
-80
  0
LINE
  8
0
 10
-1.464
 11
-1.464
 20
-18.123
 21
-17.59
  0
LINE
  8
0
 10
-1.464
 11
-1.353
 20
-17.59
 21
-17.068
  0
LINE
  8
0
 10
-1.353
 11
-1.137
 20
-17.068
 21
-16.581
  0
LINE
  8
0
 10
-1.137
 11
-0.823
 20
-16.581
 21
-16.15
  0
LINE
  8
0
 10
-0.823
 11
-0.427
 20
-16.15
 21
-15.793
  0
LINE
  8
0
 10
-0.427
 11
0.035
 20
-15.793
 21
-15.527
  0
LINE
  8
0
 10
0.035
 11
0.542
 20
-15.527
 21
-15.362
  0
LINE
  8
0
 10
0.542
 11
1.072
 20
-15.362
 21
-15.306
  0
LINE
  8
0
 10
1.072
 11
1.602
 20
-15.306
 21
-15.362
  0
LINE
  8
0
 10
1.602
 11
2.109
 20
-15.362
 21
-15.527
  0
LINE
  8
0
 10
2.109
 11
2.571
 20
-15.527
 21
-15.793
  0
LINE
  8
0
 10
2.571
 11
2.967
 20
-15.793
 21
-16.15
  0
LINE
  8
0
 10
2.967
 11
3.28
 20
-16.15
 21
-16.581
  0
LINE
  8
0
 10
3.28
 11
3.497
 20
-16.581
 21
-17.068
  0
LINE
  8
0
 10
3.497
 11
3.608
 20
-17.068
 21
-17.59
  0
LINE
  8
0
 10
3.608
 11
3.608
 20
-17.59
 21
-18.123
  0
LINE
  8
0
 10
3.608
 11
3.497
 20
-18.123
 21
-18.644
  0
LINE
  8
0
 10
3.497
 11
3.28
 20
-18.644
 21
-19.131
  0
LINE
  8
0
 10
3.28
 11
2.967
 20
-19.131
 21
-19.563
  0
LINE
  8
0
 10
2.967
 11
2.571
 20
-19.563
 21
-19.919
  0
LINE
  8
0
 10
2.571
 11
2.109
 20
-19.919
 21
-20.186
  0
LINE
  8
0
 10
2.109
 11
1.602
 20
-20.186
 21
-20.351
  0
LINE
  8
0
 10
1.602
 11
1.072
 20
-20.351
 21
-20.406
  0
LINE
  8
0
 10
1.072
 11
0.542
 20
-20.406
 21
-20.351
  0
LINE
  8
0
 10
0.542
 11
0.035
 20
-20.351
 21
-20.186
  0
LINE
  8
0
 10
0.035
 11
-0.427
 20
-20.186
 21
-19.919
  0
LINE
  8
0
 10
-0.427
 11
-0.823
 20
-19.919
 21
-19.563
  0
LINE
  8
0
 10
-0.823
 11
-1.137
 20
-19.563
 21
-19.131
  0
LINE
  8
0
 10
-1.137
 11
-1.353
 20
-19.131
 21
-18.644
  0
LINE
  8
0
 10
-1.353
 11
-1.464
 20
-18.644
 21
-18.123
  0
LINE
  8
0
 10
12.392
 11
12.392
 20
9.59
 21
10.123
  0
LINE
  8
0
 10
12.392
 11
12.503
 20
10.123
 21
10.644
  0
LINE
  8
0
 10
12.503
 11
12.72
 20
10.644
 21
11.131
  0
LINE
  8
0
 10
12.72
 11
13.033
 20
11.131
 21
11.563
  0
LINE
  8
0
 10
13.033
 11
13.429
 20
11.563
 21
11.919
  0
LINE
  8
0
 10
13.429
 11
13.891
 20
11.919
 21
12.186
  0
LINE
  8
0
 10
13.891
 11
14.398
 20
12.186
 21
12.351
  0
LINE
  8
0
 10
14.398
 11
14.928
 20
12.351
 21
12.406
  0
LINE
  8
0
 10
14.928
 11
15.458
 20
12.406
 21
12.351
  0
LINE
  8
0
 10
15.458
 11
15.965
 20
12.351
 21
12.186
  0
LINE
  8
0
 10
15.965
 11
16.427
 20
12.186
 21
11.919
  0
LINE
  8
0
 10
16.427
 11
16.823
 20
11.919
 21
11.563
  0
LINE
  8
0
 10
16.823
 11
17.137
 20
11.563
 21
11.131
  0
LINE
  8
0
 10
17.137
 11
17.353
 20
11.131
 21
10.644
  0
LINE
  8
0
 10
17.353
 11
17.464
 20
10.644
 21
10.123
  0
LINE
  8
0
 10
17.464
 11
17.464
 20
10.123
 21
9.59
  0
LINE
  8
0
 10
17.464
 11
17.353
 20
9.59
 21
9.068
  0
LINE
  8
0
 10
17.353
 11
17.137
 20
9.068
 21
8.581
  0
LINE
  8
0
 10
17.137
 11
16.823
 20
8.581
 21
8.15
  0
LINE
  8
0
 10
16.823
 11
16.427
 20
8.15
 21
7.793
  0
LINE
  8
0
 10
16.427
 11
15.965
 20
7.793
 21
7.527
  0
LINE
  8
0
 10
15.965
 11
15.458
 20
7.527
 21
7.362
  0
LINE
  8
0
 10
15.458
 11
14.928
 20
7.362
 21
7.306
  0
LINE
  8
0
 10
14.928
 11
14.398
 20
7.306
 21
7.362
  0
LINE
  8
0
 10
14.398
 11
13.891
 20
7.362
 21
7.527
  0
LINE
  8
0
 10
13.891
 11
13.429
 20
7.527
 21
7.793
  0
LINE
  8
0
 10
13.429
 11
13.033
 20
7.793
 21
8.15
  0
LINE
  8
0
 10
13.033
 11
12.72
 20
8.15
 21
8.581
  0
LINE
  8
0
 10
12.72
 11
12.503
 20
8.581
 21
9.068
  0
LINE
  8
0
 10
12.503
 11
12.392
 20
9.068
 21
9.59
  0
LINE
  8
0
 10
29.45
 11
29.506
 20
-80
 21
-79.47
  0
LINE
  8
0
 10
29.506
 11
29.67
 20
-79.47
 21
-78.963
  0
LINE
  8
0
 10
29.67
 11
29.937
 20
-78.963
 21
-78.501
  0
LINE
  8
0
 10
29.937
 11
30.294
 20
-78.501
 21
-78.105
  0
LINE
  8
0
 10
30.294
 11
30.725
 20
-78.105
 21
-77.792
  0
LINE
  8
0
 10
30.725
 11
31.212
 20
-77.792
 21
-77.575
  0
LINE
  8
0
 10
31.212
 11
31.733
 20
-77.575
 21
-77.464
  0
LINE
  8
0
 10
31.733
 11
32.267
 20
-77.464
 21
-77.464
  0
LINE
  8
0
 10
32.267
 11
32.788
 20
-77.464
 21
-77.575
  0
LINE
  8
0
 10
32.788
 11
33.275
 20
-77.575
 21
-77.792
  0
LINE
  8
0
 10
33.275
 11
33.706
 20
-77.792
 21
-78.105
  0
LINE
  8
0
 10
33.706
 11
34.063
 20
-78.105
 21
-78.501
  0
LINE
  8
0
 10
34.063
 11
34.33
 20
-78.501
 21
-78.963
  0
LINE
  8
0
 10
34.33
 11
34.494
 20
-78.963
 21
-79.47
  0
LINE
  8
0
 10
34.494
 11
34.55
 20
-79.47
 21
-80
  0
LINE
  8
0
 10
34.55
 11
34.494
 20
-80
 21
-80.53
  0
LINE
  8
0
 10
34.494
 11
34.33
 20
-80.53
 21
-81.037
  0
LINE
  8
0
 10
34.33
 11
34.063
 20
-81.037
 21
-81.499
  0
LINE
  8
0
 10
34.063
 11
33.706
 20
-81.499
 21
-81.895
  0
LINE
  8
0
 10
33.706
 11
33.275
 20
-81.895
 21
-82.208
  0
LINE
  8
0
 10
33.275
 11
32.788
 20
-82.208
 21
-82.425
  0
LINE
  8
0
 10
32.788
 11
32.267
 20
-82.425
 21
-82.536
  0
LINE
  8
0
 10
32.267
 11
31.733
 20
-82.536
 21
-82.536
  0
LINE
  8
0
 10
31.733
 11
31.212
 20
-82.536
 21
-82.425
  0
LINE
  8
0
 10
31.212
 11
30.725
 20
-82.425
 21
-82.208
  0
LINE
  8
0
 10
30.725
 11
30.294
 20
-82.208
 21
-81.895
  0
LINE
  8
0
 10
30.294
 11
29.937
 20
-81.895
 21
-81.499
  0
LINE
  8
0
 10
29.937
 11
29.67
 20
-81.499
 21
-81.037
  0
LINE
  8
0
 10
29.67
 11
29.506
 20
-81.037
 21
-80.53
  0
LINE
  8
0
 10
29.506
 11
29.45
 20
-80.53
 21
-80
  0
LINE
  8
0
 10
29.45
 11
29.506
 20
-16
 21
-15.47
  0
LINE
  8
0
 10
29.506
 11
29.67
 20
-15.47
 21
-14.963
  0
LINE
  8
0
 10
29.67
 11
29.937
 20
-14.963
 21
-14.501
  0
LINE
  8
0
 10
29.937
 11
30.294
 20
-14.501
 21
-14.105
  0
LINE
  8
0
 10
30.294
 11
30.725
 20
-14.105
 21
-13.792
  0
LINE
  8
0
 10
30.725
 11
31.212
 20
-13.792
 21
-13.575
  0
LINE
  8
0
 10
31.212
 11
31.733
 20
-13.575
 21
-13.464
  0
LINE
  8
0
 10
31.733
 11
32.267
 20
-13.464
 21
-13.464
  0
LINE
  8
0
 10
32.267
 11
32.788
 20
-13.464
 21
-13.575
  0
LINE
  8
0
 10
32.788
 11
33.275
 20
-13.575
 21
-13.792
  0
LINE
  8
0
 10
33.275
 11
33.706
 20
-13.792
 21
-14.105
  0
LINE
  8
0
 10
33.706
 11
34.063
 20
-14.105
 21
-14.501
  0
LINE
  8
0
 10
34.063
 11
34.33
 20
-14.501
 21
-14.963
  0
LINE
  8
0
 10
34.33
 11
34.494
 20
-14.963
 21
-15.47
  0
LINE
  8
0
 10
34.494
 11
34.55
 20
-15.47
 21
-16
  0
LINE
  8
0
 10
34.55
 11
34.494
 20
-16
 21
-16.53
  0
LINE
  8
0
 10
34.494
 11
34.33
 20
-16.53
 21
-17.037
  0
LINE
  8
0
 10
34.33
 11
34.063
 20
-17.037
 21
-17.499
  0
LINE
  8
0
 10
34.063
 11
33.706
 20
-17.499
 21
-17.895
  0
LINE
  8
0
 10
33.706
 11
33.275
 20
-17.895
 21
-18.208
  0
LINE
  8
0
 10
33.275
 11
32.788
 20
-18.208
 21
-18.425
  0
LINE
  8
0
 10
32.788
 11
32.267
 20
-18.425
 21
-18.536
  0
LINE
  8
0
 10
32.267
 11
31.733
 20
-18.536
 21
-18.536
  0
LINE
  8
0
 10
31.733
 11
31.212
 20
-18.536
 21
-18.425
  0
LINE
  8
0
 10
31.212
 11
30.725
 20
-18.425
 21
-18.208
  0
LINE
  8
0
 10
30.725
 11
30.294
 20
-18.208
 21
-17.895
  0
LINE
  8
0
 10
30.294
 11
29.937
 20
-17.895
 21
-17.499
  0
LINE
  8
0
 10
29.937
 11
29.67
 20
-17.499
 21
-17.037
  0
LINE
  8
0
 10
29.67
 11
29.506
 20
-17.037
 21
-16.53
  0
LINE
  8
0
 10
29.506
 11
29.45
 20
-16.53
 21
-16
  0
LINE
  8
0
 10
66.732
 11
66.788
 20
40
 21
40.53
  0
LINE
  8
0
 10
66.788
 11
66.952
 20
40.53
 21
41.037
  0
LINE
  8
0
 10
66.952
 11
67.219
 20
41.037
 21
41.499
  0
LINE
  8
0
 10
67.219
 11
67.576
 20
41.499
 21
41.895
  0
LINE
  8
0
 10
67.576
 11
68.007
 20
41.895
 21
42.208
  0
LINE
  8
0
 10
68.007
 11
68.494
 20
42.208
 21
42.425
  0
LINE
  8
0
 10
68.494
 11
69.015
 20
42.425
 21
42.536
  0
LINE
  8
0
 10
69.015
 11
69.549
 20
42.536
 21
42.536
  0
LINE
  8
0
 10
69.549
 11
70.07
 20
42.536
 21
42.425
  0
LINE
  8
0
 10
70.07
 11
70.557
 20
42.425
 21
42.208
  0
LINE
  8
0
 10
70.557
 11
70.988
 20
42.208
 21
41.895
  0
LINE
  8
0
 10
70.988
 11
71.345
 20
41.895
 21
41.499
  0
LINE
  8
0
 10
71.345
 11
71.612
 20
41.499
 21
41.037
  0
LINE
  8
0
 10
71.612
 11
71.776
 20
41.037
 21
40.53
  0
LINE
  8
0
 10
71.776
 11
71.832
 20
40.53
 21
40
  0
LINE
  8
0
 10
71.832
 11
71.776
 20
40
 21
39.47
  0
LINE
  8
0
 10
71.776
 11
71.612
 20
39.47
 21
38.963
  0
LINE
  8
0
 10
71.612
 11
71.345
 20
38.963
 21
38.501
  0
LINE
  8
0
 10
71.345
 11
70.988
 20
38.501
 21
38.105
  0
LINE
  8
0
 10
70.988
 11
70.557
 20
38.105
 21
37.792
  0
LINE
  8
0
 10
70.557
 11
70.07
 20
37.792
 21
37.575
  0
LINE
  8
0
 10
70.07
 11
69.549
 20
37.575
 21
37.464
  0
LINE
  8
0
 10
69.549
 11
69.015
 20
37.464
 21
37.464
  0
LINE
  8
0
 10
69.015
 11
68.494
 20
37.464
 21
37.575
  0
LINE
  8
0
 10
68.494
 11
68.007
 20
37.575
 21
37.792
  0
LINE
  8
0
 10
68.007
 11
67.576
 20
37.792
 21
38.105
  0
LINE
  8
0
 10
67.576
 11
67.219
 20
38.105
 21
38.501
  0
LINE
  8
0
 10
67.219
 11
66.952
 20
38.501
 21
38.963
  0
LINE
  8
0
 10
66.952
 11
66.788
 20
38.963
 21
39.47
  0
LINE
  8
0
 10
66.788
 11
66.732
 20
39.47
 21
40
  0
LINE
  8
0
 10
67.818
 11
67.818
 20
-22.41
 21
-21.877
  0
LINE
  8
0
 10
67.818
 11
67.929
 20
-21.877
 21
-21.356
  0
LINE
  8
0
 10
67.929
 11
68.145
 20
-21.356
 21
-20.869
  0
LINE
  8
0
 10
68.145
 11
68.459
 20
-20.869
 21
-20.437
  0
LINE
  8
0
 10
68.459
 11
68.855
 20
-20.437
 21
-20.081
  0
LINE
  8
0
 10
68.855
 11
69.317
 20
-20.081
 21
-19.814
  0
LINE
  8
0
 10
69.317
 11
69.824
 20
-19.814
 21
-19.649
  0
LINE
  8
0
 10
69.824
 11
70.354
 20
-19.649
 21
-19.594
  0
LINE
  8
0
 10
70.354
 11
70.884
 20
-19.594
 21
-19.649
  0
LINE
  8
0
 10
70.884
 11
71.391
 20
-19.649
 21
-19.814
  0
LINE
  8
0
 10
71.391
 11
71.853
 20
-19.814
 21
-20.081
  0
LINE
  8
0
 10
71.853
 11
72.249
 20
-20.081
 21
-20.437
  0
LINE
  8
0
 10
72.249
 11
72.562
 20
-20.437
 21
-20.869
  0
LINE
  8
0
 10
72.562
 11
72.779
 20
-20.869
 21
-21.356
  0
LINE
  8
0
 10
72.779
 11
72.89
 20
-21.356
 21
-21.877
  0
LINE
  8
0
 10
72.89
 11
72.89
 20
-21.877
 21
-22.41
  0
LINE
  8
0
 10
72.89
 11
72.779
 20
-22.41
 21
-22.932
  0
LINE
  8
0
 10
72.779
 11
72.562
 20
-22.932
 21
-23.419
  0
LINE
  8
0
 10
72.562
 11
72.249
 20
-23.419
 21
-23.85
  0
LINE
  8
0
 10
72.249
 11
71.853
 20
-23.85
 21
-24.207
  0
LINE
  8
0
 10
71.853
 11
71.391
 20
-24.207
 21
-24.473
  0
LINE
  8
0
 10
71.391
 11
70.884
 20
-24.473
 21
-24.638
  0
LINE
  8
0
 10
70.884
 11
70.354
 20
-24.638
 21
-24.694
  0
LINE
  8
0
 10
70.354
 11
69.824
 20
-24.694
 21
-24.638
  0
LINE
  8
0
 10
69.824
 11
69.317
 20
-24.638
 21
-24.473
  0
LINE
  8
0
 10
69.317
 11
68.855
 20
-24.473
 21
-24.207
  0
LINE
  8
0
 10
68.855
 11
68.459
 20
-24.207
 21
-23.85
  0
LINE
  8
0
 10
68.459
 11
68.145
 20
-23.85
 21
-23.419
  0
LINE
  8
0
 10
68.145
 11
67.929
 20
-23.419
 21
-22.932
  0
LINE
  8
0
 10
67.929
 11
67.818
 20
-22.932
 21
-22.41
  0
ENDSEC
  0
SECTION
  2
OBJECTS
  0
DICTIONARY
  0
ENDSEC
  0
EOF
